<svg width="320" height="251" viewBox="0 0 320 251" fill="none" xmlns="http://www.w3.org/2000/svg">
<g clip-path="url(#clip0_1437_6722)">
<path d="M171.688 245.718L87.2717 250.036L72.7989 250.557L65.4579 240.163L19.6863 166.513L21.8961 164.55L45.8657 167.102L70.4505 208.721C70.4505 208.721 67.7898 211.44 67.818 212.807C67.8462 214.175 69.5229 219.551 72.6697 222.795C75.8165 226.038 78.51 227.235 78.51 227.235L80.5155 225.766L85.7923 234.679L105.269 233.521L111.46 241.134L121.511 232.775L126.574 232.552C126.574 232.552 130.204 234.722 132.602 240.187C135.354 239.317 140.095 237.656 147.521 231.337C152.61 231.07 155.688 230.898 155.688 230.898L171.526 243.433L171.688 245.718Z" fill="#4D4D4D"/>
<path d="M26.076 167.796L45.0953 169.03L82.5068 233.687L73.1651 242.603L26.076 167.796Z" fill="#E3F4FF"/>
<path d="M78.9773 227.235C78.5076 227.235 73.3413 223.843 71.4626 221.477C70.6876 220.51 73.6113 228.406 73.3906 229.384C72.9796 231.213 62.2383 220.665 63.2786 218.125C63.861 216.704 67.6536 215.134 67.8297 214.105C67.3013 211.942 70.5209 208.304 70.5209 208.304C70.5209 208.304 66.6931 204.849 66.6062 198.826C66.5193 192.802 66.5475 188.447 69.8939 183.019C67.8438 181.631 65.5894 180.188 65.5894 180.188C65.5894 180.188 64.7369 169.959 67.2003 160.628C66.7368 159.601 66.1984 158.608 65.5894 157.659C65.5894 157.659 57.3443 160.865 57.3114 162.233C56.0198 161.109 43.9376 148.556 43.9376 148.556C43.9376 148.556 34.5066 138.686 29.0044 136.746C31.5242 133.54 39.0084 124.734 45.0953 122.335C43.1298 118.176 38.9896 112.805 38.9896 112.805L30.6694 111.02L33.6847 104.396L28.988 93.6372C28.988 93.6372 24.3571 83.3918 11.9766 77.6991C12.3288 73.0198 28.051 66.0464 28.051 66.0464C28.051 66.0464 44.0409 58.8385 49.7732 58.2568C55.5055 57.6751 56.5623 58.1443 60.5005 61.4914C64.4387 64.8385 64.4269 65.5632 64.4269 65.5632L68.1491 62.195C68.1491 62.195 70.9788 62.7509 75.6379 65.7743C80.2971 68.7978 85.2662 72.3419 85.2662 72.3419L87.7906 64.503C87.7906 64.503 87.0345 58.0457 80.1068 47.9599C77.4133 44.5541 67.569 31.541 60.1224 28.154C60.524 25.2361 62.0011 23.3714 66.5428 19.5716C71.0845 15.7718 82.3143 8.7 96.6016 7.02997C103.21 12.4975 105.652 14.8641 105.652 14.8641C105.652 14.8641 106.028 3.71336 107.439 2.84785C108.851 1.98234 120.764 0.488222 124.756 0.544515C128.748 0.600808 146.471 2.42096 152.025 3.82829C151.238 5.3271 146.572 11.3739 146.899 17.531C149.036 17.3621 171.556 16.3019 182.028 18.9383C183.641 24.0657 187.631 37.1258 184.312 55.1419C187.478 52.5618 196.435 45.0678 196.435 45.0678C196.435 45.0678 197.675 42.8043 202.43 44.0897C207.185 45.3751 217.617 51.2835 221.233 53.873C224.85 56.4625 234.37 63.2388 233.806 66.4733C233.83 67.8971 229.993 68.6969 228.302 70.5217C226.611 72.3466 219.427 77.4036 219.427 77.4036C219.427 77.4036 222.067 80.1197 222.532 80.8586C222.997 81.5974 225.911 84.4402 221.555 89.1079C221.844 89.7459 229.218 95.2978 230.584 101.305C235.671 99.3931 246.206 97.5284 251.327 97.5144C253.469 97.2986 254.474 100.177 254.474 100.177C254.474 100.177 263.306 121.115 266.103 135.569C266.592 137.619 266.831 138.676 266.831 138.676C266.831 138.676 286.193 135.409 296.124 149.78C295.568 151.657 291.249 163.619 291.249 163.619C291.249 163.619 281.13 185.451 275.659 189.741C274.214 188.379 268.242 182.869 255.172 183.516C251.98 185.918 238.559 195.877 238.559 195.877C238.559 195.877 238.207 196.145 240.328 197.754C242.448 199.363 254.84 209.923 257.844 213.905C256.2 217.255 250.766 229.386 244.224 235.564C242.495 237.276 236.829 241.649 235.128 242.601C234.189 240.464 233.705 238.426 226.933 233.017C220.162 227.88 213.735 222.675 203.717 219.701C201.161 219.009 198.561 218.49 195.934 218.146C195.934 218.146 195.991 214.33 196.064 214.041C196.136 213.753 197.433 206.665 198.177 203.517C197.158 201.584 194.586 199.152 193.368 199.218C192.428 200.503 188.239 205.733 188.239 205.733L185.923 202.297C185.923 202.297 177.39 191.616 174.313 190.483C171.711 193.811 171.512 194.336 171.512 194.336C171.512 194.336 179.402 207.772 183.509 210.256C181.302 211.102 163.001 215.805 157.238 219.544C156.252 221.843 145.328 237.37 132.599 240.185C131.618 237.839 128.311 231.689 123.481 231.335C120.412 233.681 111.457 241.133 111.457 241.133C111.457 241.133 103.193 230.108 99.9246 228.38C96.9281 229.363 92.0764 231.091 92.0764 231.091C92.0764 231.091 84.9163 223.492 83.1738 222.945C81.7061 224.503 78.9773 227.235 78.9773 227.235Z" fill="white"/>
<path d="M48.8597 184.422C48.8597 184.422 49.7568 173.668 59.0328 171.843C58.9107 173.452 57.7201 176.684 57.9784 178.387C58.2367 180.09 59.0445 183.662 61.569 185.942C63.5346 188.067 64.387 190.337 63.7929 191.06C63.1987 191.782 61.0571 193.126 61.5079 202.992C57.2997 199.476 49.5619 186.756 48.8597 184.422Z" fill="white"/>
<path d="M19.2236 166.788C20.736 169.227 22.2499 171.666 23.7653 174.104L34.6781 191.672C39.0961 198.787 43.5142 205.902 47.9322 213.016L59.3475 231.396L63.1049 237.452C63.6943 238.405 64.2368 239.42 64.8896 240.328C64.9184 240.369 64.9451 240.411 64.9694 240.455C65.3334 241.041 66.261 240.502 65.897 239.913L61.353 232.599L50.4402 215.029L37.1885 193.684L25.7708 175.305L22.0135 169.248C21.424 168.298 20.8816 167.28 20.2287 166.373C20.2005 166.333 20.1771 166.288 20.1512 166.246C19.7872 165.662 18.8573 166.199 19.2119 166.788H19.2236Z" fill="#151116"/>
<path d="M171.688 245.184L163.304 245.61L143.176 246.64L118.932 247.881L97.9661 248.951L91.0244 249.307C89.9347 249.363 88.8146 249.352 87.7367 249.476C87.6897 249.476 87.4784 249.417 87.4314 249.42C86.7433 249.455 86.7386 250.508 87.4314 250.473C90.2259 250.33 93.1825 250.271 95.977 250.126L116.102 249.098L140.349 247.858L161.313 246.786L168.255 246.431C169.346 246.375 170.464 246.387 171.542 246.263H171.688C172.376 246.227 172.381 245.155 171.688 245.191V245.184Z" fill="#151116"/>
<path d="M155.313 231.284L169.208 242.28L171.148 243.818C171.685 244.243 172.451 243.488 171.909 243.058L158.013 232.06L156.071 230.524C155.536 230.099 154.77 230.854 155.313 231.284Z" fill="#151116"/>
<path d="M21.5156 164.174L19.5782 165.896L19.3058 166.131C19.2066 166.232 19.151 166.369 19.151 166.511C19.151 166.653 19.2066 166.789 19.3058 166.891C19.4087 166.988 19.5448 167.042 19.6863 167.042C19.8277 167.042 19.9638 166.988 20.0667 166.891L22.0041 165.167L22.2741 164.932C22.3745 164.831 22.4308 164.694 22.4308 164.552C22.4308 164.41 22.3745 164.273 22.2741 164.172C22.1722 164.074 22.0363 164.02 21.8949 164.02C21.7535 164.02 21.6175 164.074 21.5156 164.172V164.174Z" fill="#151116"/>
<path d="M70.2016 241.403L65.418 233.693L54.0285 215.334L40.1733 192.986C36.2014 186.59 32.2304 180.197 28.2601 173.806L24.3078 167.426C23.6902 166.429 23.1336 165.364 22.4291 164.412C22.4003 164.371 22.3737 164.327 22.3493 164.283C21.9853 163.699 21.0553 164.236 21.4217 164.825L26.2053 172.537C30.0018 178.656 33.7983 184.775 37.5948 190.896L51.45 213.244L63.3749 232.445C64.69 234.57 66.0067 236.693 67.3249 238.815C67.9448 239.812 68.5108 240.877 69.2035 241.829C69.2317 241.869 69.2552 241.914 69.281 241.956C69.645 242.543 70.575 242.005 70.2086 241.414L70.2016 241.403Z" fill="#151116"/>
<path d="M45.8656 166.572L24.8714 164.335L21.896 164.018C21.2079 163.945 21.2126 165.02 21.896 165.092L42.8879 167.328L45.8656 167.644C46.5513 167.717 46.5466 166.645 45.8656 166.572Z" fill="#151116"/>
<path d="M85.4799 234.401L77.4321 243.138L76.2884 244.381C75.8188 244.888 76.5773 245.65 77.047 245.141L85.0947 236.402L86.2384 235.158C86.7081 234.652 85.9495 233.889 85.4799 234.401Z" fill="#151116"/>
<path d="M82.6971 248.122L91.5386 247.709L112.77 246.72L138.367 245.523L160.639 244.484C164.203 244.318 167.829 244.332 171.382 243.982H171.535C172.223 243.949 172.24 242.875 171.535 242.908L162.694 243.321L141.464 244.313L115.867 245.507L93.5958 246.548C90.0333 246.715 86.4051 246.701 82.8544 247.05H82.6994C82.0114 247.081 82.009 248.155 82.6994 248.122H82.6971Z" fill="#151116"/>
<path d="M147.758 231.879L154.693 231.506L155.691 231.452C156.379 231.412 156.384 230.34 155.691 230.378L148.756 230.763L147.758 230.819C147.07 230.856 147.054 231.931 147.758 231.891V231.879Z" fill="#151116"/>
<path d="M121.865 233.317L125.388 233.122L125.895 233.094C126.038 233.094 126.174 233.037 126.275 232.936C126.376 232.836 126.433 232.699 126.433 232.557C126.433 232.414 126.376 232.278 126.275 232.177C126.174 232.076 126.038 232.02 125.895 232.02L122.373 232.214L121.868 232.245C121.726 232.248 121.592 232.305 121.491 232.404C121.391 232.504 121.333 232.638 121.33 232.779C121.331 232.922 121.388 233.057 121.489 233.158C121.589 233.258 121.725 233.315 121.868 233.317H121.865Z" fill="#151116"/>
<path d="M85.8486 235.315L103.048 234.36L105.507 234.224C106.195 234.187 106.211 233.113 105.507 233.152L88.3096 234.107L85.8486 234.243C85.1629 234.281 85.1582 235.355 85.8486 235.315Z" fill="#151116"/>
<path d="M80.3135 226.468L84.7566 233.985L85.386 235.05C85.7359 235.643 86.6658 235.104 86.3135 234.508C84.8325 232.006 83.3515 229.5 81.8705 226.988C81.6623 226.635 81.4525 226.281 81.2411 225.926C80.8912 225.33 79.9613 225.87 80.3135 226.468Z" fill="#151116"/>
<path d="M61.7616 195.073C64.1804 199.168 66.6 203.262 69.0204 207.354C69.3617 207.934 69.7038 208.513 70.0466 209.092C70.3965 209.685 71.3265 209.146 70.9742 208.55L63.7178 196.269L62.701 194.531C62.3511 193.937 61.4211 194.477 61.7734 195.073H61.7616Z" fill="#151116"/>
<path d="M45.4006 167.379L50.4026 175.847L51.1072 177.043C51.4571 177.636 52.387 177.097 52.0348 176.501L47.0375 168.036L46.3329 166.837C45.983 166.244 45.0531 166.784 45.4053 167.379H45.4006Z" fill="#151116"/>
<path d="M82.8968 246.485L89.6413 237.806C89.9607 237.391 90.2824 236.978 90.6041 236.563C91.0221 236.024 90.2683 235.259 89.8456 235.805L83.0988 244.484L82.1359 245.725C81.7179 246.264 82.4741 247.029 82.8968 246.482V246.485Z" fill="#151116"/>
<path d="M119.338 235.221L127.259 234.794L128.398 234.733C129.086 234.696 129.103 233.624 128.398 233.659L120.47 234.086L119.331 234.149C118.643 234.187 118.639 235.259 119.331 235.221H119.338Z" fill="#151116"/>
<path d="M90.2142 236.711L104.807 235.962L106.909 235.854C107.597 235.817 107.601 234.745 106.909 234.78L92.316 235.535L90.2142 235.646C89.5261 235.681 89.5238 236.755 90.2142 236.718V236.711Z" fill="#151116"/>
<path d="M82.5069 246.642L88.8474 246.33L104.06 245.582L122.56 244.669L138.48 243.886C141.037 243.759 143.681 243.815 146.229 243.503C146.267 243.503 146.304 243.503 146.34 243.503C146.445 243.501 146.547 243.468 146.633 243.409C146.72 243.349 146.787 243.266 146.828 243.17C146.868 243.073 146.879 242.966 146.86 242.863C146.841 242.76 146.792 242.665 146.72 242.589L141.112 236.009C140.664 235.484 139.905 236.244 140.351 236.769C142.23 238.958 144.099 241.148 145.959 243.337L146.34 242.422L139.999 242.732L124.789 243.482L106.282 244.406L90.3621 245.192C87.8048 245.316 85.1605 245.263 82.6126 245.572C82.5773 245.572 82.5374 245.572 82.5022 245.572C81.8141 245.605 81.8094 246.679 82.5022 246.644L82.5069 246.642Z" fill="#151116"/>
<path d="M160.902 239.645L155.24 234.656C155.034 234.432 154.803 234.233 154.552 234.062C154.279 233.924 153.904 234.011 153.613 234.027L149.249 234.292L145.678 234.508C145.573 234.511 145.471 234.544 145.385 234.604C145.299 234.663 145.231 234.746 145.191 234.843C145.151 234.94 145.14 235.046 145.159 235.149C145.179 235.252 145.227 235.347 145.299 235.423C146.943 237.234 148.552 239.12 150.276 240.867C150.766 241.364 151.685 241.101 152.323 241.059L157.105 240.768L160.521 240.56C161.207 240.517 161.212 239.446 160.521 239.488L150.773 240.079L151.154 240.236C149.454 238.38 147.755 236.523 146.058 234.665L145.678 235.58L154.277 235.062L153.897 234.905L160.141 240.403C160.66 240.858 161.423 240.102 160.902 239.645Z" fill="#151116"/>
<path d="M170.99 243.439L171.131 245.432C171.131 245.528 171.131 245.622 171.15 245.718C171.15 245.861 171.207 245.997 171.307 246.098C171.408 246.199 171.545 246.256 171.688 246.256C171.83 246.256 171.967 246.199 172.068 246.098C172.169 245.997 172.226 245.861 172.226 245.718C172.179 245.055 172.132 244.391 172.087 243.725L172.066 243.439C172.066 243.296 172.009 243.159 171.908 243.059C171.807 242.958 171.671 242.901 171.528 242.901C171.385 242.901 171.249 242.958 171.148 243.059C171.047 243.159 170.99 243.296 170.99 243.439Z" fill="#151116"/>
<path d="M68.5718 213.964C68.4834 213.649 68.4183 213.327 68.3769 213.003C68.3416 212.616 68.459 212.489 68.6892 212.177C69.1088 211.609 69.5244 211.039 69.9362 210.465C70.7675 209.292 71.58 208.119 72.362 206.916C73.8187 204.703 75.1514 202.411 76.3542 200.05C78.4677 195.864 80.0693 191.421 80.6493 186.751L80.1115 187.288C83.0752 187.584 85.9073 188.89 88.4646 190.354C91.0613 191.825 93.4783 193.592 95.667 195.62C95.62 195.446 95.5754 195.273 95.5284 195.099C91.9049 206.592 87.6685 218.728 78.4395 226.999L79.0924 226.914C76.3934 225.7 74.0558 223.807 72.308 221.421C71.9041 220.87 70.9718 221.404 71.3687 221.963C73.208 224.512 75.6783 226.542 78.5381 227.852C78.6419 227.907 78.7603 227.929 78.8769 227.914C78.9935 227.899 79.1024 227.848 79.1886 227.768C86.4286 221.282 90.6955 212.301 93.9175 203.306C94.8568 200.691 95.7163 198.05 96.5523 195.399C96.5785 195.308 96.5796 195.212 96.5556 195.12C96.5317 195.029 96.4835 194.945 96.4161 194.879C94.0992 192.716 91.5314 190.839 88.7675 189.287C86.0998 187.788 83.1902 186.521 80.1186 186.214C79.8039 186.184 79.6137 186.488 79.5808 186.751C78.9609 191.745 77.0775 196.492 74.708 200.902C73.3952 203.32 71.9585 205.668 70.4035 207.939C69.5831 209.144 68.7401 210.332 67.8743 211.501C67.6089 211.86 67.3436 212.144 67.299 212.602C67.245 213.141 67.4187 213.741 67.5338 214.257C67.6958 214.928 68.7315 214.644 68.5694 213.971L68.5718 213.964Z" fill="#151116"/>
<path d="M95.8432 225.987C103.647 217.044 113.106 209.517 123.453 203.705C126.333 202.086 129.29 200.613 132.322 199.286H131.78C139.868 202.863 144.696 210.847 148.056 218.658L148.378 217.869C137.595 221.66 127.526 227.234 118.592 234.359C116.013 236.413 113.543 238.592 111.18 240.896H111.941C107.341 235.065 102.668 228.368 95.7375 225.145C95.1129 224.854 94.5634 225.779 95.1951 226.084C102.045 229.266 106.648 235.909 111.19 241.665C111.291 241.764 111.428 241.82 111.57 241.82C111.712 241.82 111.849 241.764 111.951 241.665C120.045 233.803 129.404 227.355 139.638 222.591C142.584 221.218 145.594 219.995 148.667 218.923C148.745 218.899 148.817 218.858 148.877 218.803C148.937 218.748 148.984 218.68 149.015 218.605C149.046 218.529 149.059 218.448 149.054 218.366C149.049 218.285 149.026 218.206 148.986 218.134C147.119 213.786 144.832 209.5 141.826 205.825C140.434 204.114 138.848 202.569 137.101 201.221C136.172 200.503 135.191 199.855 134.166 199.283C133.358 198.835 132.416 198.099 131.508 198.495C122.584 202.396 114.243 207.706 106.747 213.912C102.56 217.367 98.6609 221.155 95.0871 225.239C94.6385 225.746 95.3876 226.508 95.8432 225.987Z" fill="#151116"/>
<path d="M159.561 194.96C154.226 199.399 148.125 202.828 141.558 205.079C140.908 205.302 141.187 206.339 141.843 206.114C148.585 203.802 154.847 200.28 160.322 195.72C160.853 195.277 160.087 194.522 159.561 194.96Z" fill="#151116"/>
<path d="M160.315 194.379C147.767 185.846 143.32 170.255 142.155 155.912C141.777 151.263 141.674 146.6 141.61 141.939C141.607 141.798 141.55 141.663 141.449 141.563C141.349 141.463 141.214 141.405 141.072 141.402C128.578 141.448 116.134 142.991 104.008 146C103.919 146.025 103.837 146.072 103.771 146.138C103.705 146.204 103.658 146.285 103.633 146.375C101.237 155.082 101.519 164.229 103.163 173.044C104.619 180.904 106.833 189.043 110.913 195.983C113.026 199.57 115.72 202.767 119.082 205.239C119.641 205.649 120.177 204.718 119.625 204.301C113.59 199.863 110.025 193.004 107.648 186.064C104.936 178.131 103.14 169.666 102.952 161.272C102.81 156.34 103.387 151.415 104.664 146.649L104.288 147.025C116.321 144.038 128.669 142.508 141.068 142.465L140.53 141.928C140.746 157.514 141.603 174.339 151.4 187.274C153.733 190.386 156.56 193.095 159.768 195.296C160.341 195.685 160.878 194.757 160.31 194.37L160.315 194.379Z" fill="#151116"/>
<path d="M144.374 205.437C149.176 207.839 154.438 209.183 159.805 209.38C160.51 209.404 160.495 208.332 159.805 208.306C154.628 208.119 149.551 206.825 144.917 204.511C144.301 204.204 143.756 205.128 144.374 205.449V205.437Z" fill="#151116"/>
<path d="M173.853 190.225C169.289 196.466 164.468 202.508 159.39 208.351C158.939 208.87 159.697 209.632 160.15 209.109C165.284 203.203 170.161 197.089 174.783 190.767C175.189 190.208 174.259 189.671 173.844 190.225H173.853Z" fill="#151116"/>
<path d="M145.882 176.714C147.152 178.448 148.599 180.35 150.63 181.232C152.586 182.079 154.714 181.377 156.466 180.343C158.152 179.346 159.519 177.929 160.942 176.59C162.175 175.439 163.423 174.303 164.685 173.182C166.019 171.99 167.363 170.811 168.717 169.645C169.624 168.866 170.525 168.003 171.535 167.349C173.05 166.345 175.182 166.46 176.92 166.483C178.989 166.509 181.215 166.668 183.171 165.866C183.693 165.653 184.477 165.317 184.087 164.621C183.826 164.152 183.131 163.882 182.678 163.659C180.799 162.721 178.827 161.989 176.953 161.046C176.988 161.327 177.026 161.607 177.061 161.888C179.618 159.777 182.335 157.319 183.986 154.408C184.411 153.66 184.864 152.701 184.573 151.828C184.381 151.258 183.946 150.735 183.601 150.256C180.488 145.952 176.974 141.952 173.106 138.308C172.24 137.476 171.327 136.693 170.373 135.963C169.706 135.461 169.123 135.01 168.259 135.013C166.568 135.013 164.854 135.801 163.356 136.5C158.624 138.707 154.247 141.803 150.191 145.061C148.023 146.804 145.903 148.647 144.045 150.723C142.935 151.966 141.601 153.468 141.38 155.18C141.293 155.862 142.369 155.858 142.456 155.18C142.62 153.89 143.794 152.625 144.609 151.694C146.104 150.034 147.72 148.488 149.444 147.067C153.287 143.766 157.463 140.873 161.905 138.435C163.53 137.56 165.237 136.699 167.04 136.263C167.526 136.148 168.215 135.96 168.708 136.134C169.518 136.418 170.352 137.288 170.976 137.837C174.867 141.203 178.315 145.19 181.48 149.236C182.065 149.98 182.655 150.733 183.166 151.525C183.584 152.166 183.709 152.426 183.385 153.219C182.765 154.746 181.53 156.076 180.424 157.267C179.136 158.648 177.757 159.942 176.298 161.14C176.24 161.198 176.196 161.268 176.169 161.346C176.143 161.423 176.135 161.506 176.145 161.587C176.155 161.669 176.184 161.746 176.23 161.815C176.275 161.883 176.335 161.94 176.406 161.982C177.925 162.747 179.508 163.389 181.055 164.093C181.662 164.349 182.252 164.641 182.824 164.968C182.914 165.043 183.012 165.107 183.117 165.16L183.148 165.188C183.204 165.001 183.256 164.813 183.307 164.625C183.246 164.592 182.06 165.125 181.915 165.16C179.947 165.648 177.855 165.395 175.847 165.42C174.287 165.435 172.493 165.51 171.122 166.342C170.34 166.811 169.635 167.482 168.938 168.069C167.75 169.065 166.59 170.086 165.415 171.118C163.163 173.105 160.953 175.143 158.767 177.193C157.105 178.746 154.857 180.613 152.427 180.58C149.996 180.547 148.096 177.95 146.791 176.182C146.387 175.628 145.454 176.163 145.863 176.724L145.882 176.714Z" fill="#151116"/>
<path d="M90.1532 212.427C91.0197 212.341 91.8886 212.27 92.7551 212.193C93.7156 212.111 94.824 211.749 95.5145 212.531C96.1556 213.251 96.6604 214.144 97.2194 214.932L99.1239 217.616C99.1972 217.737 99.3149 217.825 99.452 217.861C99.5891 217.898 99.735 217.879 99.8589 217.81C100.58 217.304 100.622 216.556 100.535 215.732C100.39 214.377 100.218 213.023 100.066 211.67C99.9881 210.992 99.7532 210.41 100.413 209.993C100.883 209.69 101.378 209.411 101.85 209.104C102.79 208.492 103.7 207.838 104.581 207.14C106.436 205.691 108.14 204.06 109.668 202.271C111.042 200.648 112.204 198.835 112.3 196.656C112.331 195.966 111.255 195.966 111.225 196.656C111.126 198.95 109.581 200.805 108.099 202.424C106.608 204.053 104.967 205.539 103.198 206.864C102.378 207.475 101.532 208.052 100.66 208.595C99.9975 209.005 99.1051 209.35 98.9219 210.192C98.7082 211.182 99.0816 212.446 99.1967 213.441C99.2648 214.029 99.3352 214.613 99.4033 215.207C99.4479 215.596 99.718 216.614 99.3211 216.886L100.056 217.079L97.8511 213.971C97.2405 213.11 96.6628 211.932 95.855 211.243C95.1998 210.685 94.1313 211.008 93.361 211.074C92.2925 211.165 91.224 211.25 90.1579 211.355C89.4745 211.421 89.4675 212.495 90.1579 212.427H90.1532Z" fill="#151116"/>
<path d="M139.912 222.481C140.842 224.242 142.036 225.852 143.451 227.254C143.942 227.742 144.703 226.984 144.212 226.496C142.862 225.158 141.724 223.621 140.84 221.939C140.518 221.327 139.591 221.868 139.9 222.481H139.912Z" fill="#151116"/>
<path d="M144.466 227.05C153.9 221.238 164.049 216.673 174.658 213.467C177.693 212.552 180.757 211.751 183.852 211.063C184.526 210.913 184.242 209.878 183.568 210.029C172.658 212.463 162.11 216.299 152.187 221.44C149.369 222.899 146.614 224.462 143.923 226.131C143.334 226.492 143.874 227.421 144.466 227.069V227.05Z" fill="#151116"/>
<path d="M183.892 209.878C179.134 205.25 175.117 199.918 171.981 194.069C171.655 193.459 170.727 194.001 171.042 194.611C174.227 200.538 178.305 205.941 183.134 210.631C183.629 211.114 184.39 210.357 183.892 209.874V209.878Z" fill="#151116"/>
<path d="M188.378 205.262C185.09 200.479 181.626 195.837 177.291 191.941C171.073 186.348 163.635 182.279 155.569 180.056C154.902 179.871 154.618 180.908 155.285 181.091C165.45 183.908 174.543 189.69 181.401 197.697C183.592 200.266 185.541 203.024 187.45 205.803C187.84 206.369 188.772 205.834 188.378 205.262Z" fill="#151116"/>
<path d="M175.393 141.02C178.734 132.828 179.57 123.832 177.796 115.167L177.007 115.774C188.091 120.656 198.55 126.799 206.664 135.93C208.97 138.524 211.159 141.369 212.281 144.69C212.316 144.8 212.386 144.896 212.479 144.964C212.572 145.032 212.685 145.069 212.8 145.069C212.916 145.069 213.028 145.032 213.122 144.964C213.215 144.896 213.284 144.8 213.319 144.69C213.714 143.71 214.193 142.453 215.278 142.063C216.947 141.463 217.208 143.14 217.156 144.39C217.039 146.853 216.189 149.391 215.541 151.758C214.243 156.474 212.682 161.115 210.865 165.657C207.253 174.728 202.698 183.408 197.555 191.693C196.107 194.029 194.612 196.336 193.069 198.612C191.484 200.958 189.932 203.393 187.863 205.356C187.361 205.825 188.121 206.59 188.624 206.113C190.606 204.237 192.116 201.927 193.642 199.677C195.169 197.428 196.627 195.195 198.055 192.913C200.967 188.257 203.691 183.484 206.171 178.584C211.041 168.967 214.989 158.855 217.511 148.368C217.962 146.492 219.324 142.289 216.987 141.113C214.601 139.91 212.995 142.598 212.291 144.397H213.329C212.373 141.583 210.706 139.089 208.829 136.795C206.872 134.406 204.741 132.164 202.453 130.089C197.872 125.931 192.677 122.492 187.246 119.546C184.087 117.834 180.844 116.288 177.559 114.841C177.466 114.791 177.361 114.769 177.256 114.777C177.151 114.785 177.051 114.824 176.968 114.888C176.884 114.952 176.821 115.039 176.786 115.138C176.751 115.237 176.745 115.344 176.77 115.446C178.486 123.928 177.647 132.728 174.358 140.733C174.097 141.374 175.135 141.651 175.393 141.02Z" fill="#151116"/>
<path d="M217.821 141.721C217.006 140.175 215.646 138.894 214.383 137.717C212.435 135.936 210.397 134.255 208.277 132.681C203.722 129.229 198.97 126.044 194.046 123.141C192.222 122.069 190.362 120.981 188.387 120.212C187.741 119.961 187.464 120.997 188.1 121.246C189.744 121.886 191.299 122.792 192.823 123.671C195.084 124.978 197.285 126.371 199.478 127.809C204.116 130.858 208.714 134.095 212.864 137.796C214.324 139.098 215.968 140.517 216.896 142.274C217.218 142.884 218.145 142.342 217.821 141.732V141.721Z" fill="#151116"/>
<path d="M198.647 203.247C198.165 202.14 197.448 201.15 196.546 200.346C195.644 199.542 194.578 198.943 193.422 198.591C192.757 198.391 192.482 199.426 193.135 199.628C194.159 199.943 195.101 200.48 195.895 201.199C196.69 201.917 197.316 202.802 197.731 203.789C197.803 203.911 197.921 204 198.059 204.036C198.196 204.072 198.343 204.052 198.466 203.981C198.586 203.906 198.673 203.789 198.709 203.652C198.745 203.516 198.727 203.37 198.658 203.247H198.647Z" fill="#151116"/>
<path d="M207.627 183.352C201.549 194.041 195.204 205.471 195.383 218.137C195.387 218.278 195.445 218.412 195.545 218.512C195.645 218.612 195.779 218.67 195.92 218.674C203.355 219.443 210.276 222.232 216.541 226.224C221.325 229.273 226.061 232.574 230.15 236.521C231.921 238.231 233.989 240.274 234.628 242.742C234.651 242.82 234.691 242.893 234.746 242.954C234.801 243.015 234.869 243.063 234.945 243.093C235.021 243.124 235.103 243.138 235.184 243.132C235.266 243.127 235.346 243.103 235.417 243.063C246.727 236.983 252.898 225.237 258.314 214.163C258.361 214.081 258.386 213.988 258.386 213.893C258.386 213.797 258.361 213.704 258.314 213.622C257.585 212.658 256.785 211.751 255.921 210.908C254.436 209.357 252.898 207.859 251.337 206.381C247.652 202.902 243.822 199.515 239.661 196.6C237.862 195.338 235.964 194.104 233.879 193.37C233.224 193.136 232.94 194.179 233.593 194.407C235.375 195.031 237.009 196.084 238.559 197.139C240.569 198.512 242.483 200.024 244.348 201.596C247.937 204.6 251.371 207.784 254.636 211.135C255.575 212.095 256.635 213.106 257.386 214.185V213.643C252.053 224.559 246.018 236.16 234.875 242.158L235.664 242.479C235.103 240.319 233.52 238.477 232.017 236.897C229.943 234.715 227.6 232.794 225.207 230.969C220.153 227.106 214.735 223.41 208.853 220.942C204.727 219.205 200.368 218.086 195.916 217.621L196.453 218.158C196.282 205.691 202.573 194.435 208.557 183.913C208.9 183.312 207.972 182.771 207.617 183.373L207.627 183.352Z" fill="#151116"/>
<path d="M206.709 177.758C207.545 178.827 207.749 180.206 207.902 181.51C208.078 183.026 208.202 184.546 208.291 186.066C208.471 189.112 208.493 192.165 208.36 195.213C208.361 195.295 208.382 195.376 208.419 195.449C208.456 195.523 208.51 195.587 208.575 195.636C208.64 195.686 208.716 195.721 208.797 195.737C208.878 195.754 208.961 195.752 209.041 195.732C218.166 194.193 227.529 193.752 236.751 194.702C237.439 194.772 237.432 193.7 236.751 193.63C227.438 192.668 217.985 193.142 208.761 194.697L209.442 195.213C209.591 191.816 209.545 188.413 209.304 185.022C209.116 182.39 209.181 179.181 207.474 177.002C207.049 176.46 206.3 177.223 206.716 177.762L206.709 177.758Z" fill="#151116"/>
<path d="M239.022 195.591C237.108 193.086 234.708 190.977 232.418 188.824C229.967 186.518 227.473 184.25 224.826 182.17C219.939 178.328 214.493 175.107 208.388 173.641C207.716 173.479 207.427 174.516 208.101 174.676C214.115 176.123 219.507 179.317 224.305 183.134C226.768 185.09 229.103 187.203 231.395 189.356C233.687 191.509 236.157 193.62 238.073 196.133C238.487 196.674 239.421 196.133 239.013 195.591H239.022Z" fill="#151116"/>
<path d="M239.172 196.22L248.148 189.488C250.992 187.356 253.896 185.28 256.63 183.005C259.051 180.985 261.376 178.832 263.661 176.672C265.749 174.74 267.733 172.699 269.605 170.557C269.701 170.454 269.755 170.318 269.755 170.177C269.755 170.036 269.701 169.9 269.605 169.797C267.874 167.712 266.127 165.531 264.102 163.72C260.221 160.244 255.552 157.387 250.952 155.004C248.248 153.602 245.463 152.361 242.613 151.288C241.965 151.054 241.685 152.081 242.326 152.323C247.347 154.222 252.15 156.654 256.651 159.578C258.911 161.01 261.076 162.588 263.13 164.302C264.304 165.305 265.335 166.509 266.357 167.665C267.197 168.617 268.023 169.581 268.834 170.555V169.795C265.049 174.251 260.578 178.272 256.12 182.034C253.34 184.38 250.36 186.491 247.453 188.674L238.618 195.3C238.071 195.711 238.618 196.642 239.161 196.227L239.172 196.22Z" fill="#151116"/>
<path d="M242.488 187.556C244.458 186.357 246.673 187.673 247.96 189.23C248.32 189.638 248.621 190.094 248.852 190.586C248.954 190.843 248.996 191.121 248.972 191.397C248.949 191.673 248.862 191.94 248.718 192.176C248.494 192.62 248.172 193.008 247.778 193.311C247.383 193.614 246.925 193.824 246.438 193.926C245.499 194.083 244.414 193.572 244.108 192.631C243.895 191.977 242.857 192.258 243.073 192.918C243.276 193.499 243.646 194.008 244.137 194.381C244.627 194.753 245.217 194.974 245.832 195.014C247.145 195.129 248.415 194.386 249.204 193.373C249.671 192.817 249.966 192.138 250.054 191.419C250.123 190.671 249.801 189.969 249.395 189.364C248.636 188.231 247.65 187.173 246.412 186.566C245.003 185.881 243.308 185.792 241.95 186.62C241.361 186.976 241.901 187.905 242.493 187.558L242.488 187.556Z" fill="#151116"/>
<path d="M252.361 180.373C254.329 180.115 256.855 180.138 258.196 181.869C258.522 182.285 258.743 182.773 258.84 183.292C258.937 183.811 258.907 184.346 258.753 184.851C258.589 185.327 258.302 185.752 257.921 186.082C257.539 186.412 257.077 186.634 256.581 186.727C256.044 186.8 255.497 186.698 255.023 186.435C254.549 186.173 254.173 185.764 253.95 185.271C253.879 185.146 253.76 185.055 253.621 185.018C253.482 184.981 253.334 185 253.21 185.072C253.085 185.144 252.994 185.263 252.957 185.401C252.92 185.54 252.939 185.688 253.011 185.812C253.29 186.387 253.717 186.876 254.25 187.229C254.782 187.582 255.4 187.785 256.038 187.818C257.358 187.9 258.605 187.145 259.326 186.07C259.688 185.5 259.904 184.849 259.954 184.175C260.004 183.501 259.886 182.825 259.612 182.207C259.341 181.601 258.947 181.058 258.456 180.611C257.965 180.164 257.386 179.824 256.757 179.611C255.364 179.097 253.805 179.104 252.351 179.296C252.21 179.301 252.077 179.359 251.977 179.458C251.877 179.557 251.819 179.691 251.813 179.831C251.814 179.973 251.871 180.11 251.972 180.21C252.072 180.311 252.209 180.368 252.351 180.368L252.361 180.373Z" fill="#151116"/>
<path d="M260.763 179.55C261.25 180.035 261.86 180.378 262.527 180.543C263.194 180.709 263.894 180.689 264.551 180.488C265.2 180.27 265.79 179.908 266.279 179.429C266.767 178.95 267.14 178.367 267.369 177.723C268.393 174.988 266.634 171.891 263.813 171.268C262.278 170.927 260.526 171.268 259.558 172.6C259.15 173.158 260.082 173.693 260.498 173.142C261.118 172.293 262.376 172.1 263.358 172.267C263.871 172.348 264.362 172.531 264.802 172.806C265.242 173.081 265.622 173.442 265.92 173.866C267.106 175.64 266.676 178.264 264.701 179.278C264.187 179.541 263.602 179.635 263.032 179.545C262.461 179.456 261.933 179.188 261.524 178.78C261.042 178.283 260.282 179.043 260.765 179.538L260.763 179.55Z" fill="#151116"/>
<path d="M194.753 124.141C201.587 117.121 209.547 111.291 218.305 106.892C227.095 102.471 236.772 99.3652 246.569 98.2464C247.956 98.0734 249.355 98.0114 250.752 98.0611C251.294 98.0869 252.196 98.0236 252.68 98.2535C252.6 98.2159 252.72 98.3027 252.79 98.3684C253.133 98.6874 253.441 99.3324 253.692 99.8086C254.746 101.809 255.571 103.934 256.383 106.043C258.861 112.491 260.974 119.089 262.902 125.718C264.781 132.156 266.561 138.693 267.566 145.329C267.662 145.954 267.745 146.58 267.815 147.205L268.35 146.668C251.856 146.79 235.474 151.709 221.325 160.106C217.358 162.464 213.57 165.109 209.989 168.02C209.452 168.456 210.224 169.209 210.748 168.777C223.419 158.528 238.512 151.699 254.582 148.943C259.131 148.169 263.736 147.763 268.35 147.731C268.493 147.73 268.629 147.673 268.73 147.573C268.831 147.472 268.888 147.336 268.888 147.193C268.153 140.626 266.399 134.147 264.614 127.8C262.642 120.78 260.439 113.807 257.881 106.977C256.999 104.617 256.087 102.253 254.984 99.9868C254.677 99.3139 254.315 98.6675 253.901 98.0541C253.229 97.1159 252.433 97.1041 251.252 97.015C248.507 96.8086 245.736 97.2284 243.033 97.6788C240.586 98.0854 238.159 98.5967 235.753 99.2128C221.125 102.974 207.688 110.37 196.693 120.714C195.772 121.585 194.873 122.474 193.995 123.381C193.513 123.876 194.272 124.636 194.753 124.139V124.141Z" fill="#151116"/>
<path d="M256.137 184.126C262.933 184.044 270.356 184.902 275.278 190.105C275.38 190.204 275.516 190.26 275.659 190.26C275.801 190.26 275.938 190.204 276.039 190.105C282.828 182.238 287.924 173.008 291.893 163.443C292.899 161.017 293.831 158.563 294.687 156.08C295.105 154.865 295.505 153.644 295.887 152.419C296.162 151.539 296.944 150.122 296.451 149.259C294.154 145.272 290.005 142.551 285.841 140.815C280.008 138.397 273.524 137.496 267.242 137.925C266.554 137.972 266.538 139.044 267.242 138.997C272.743 138.605 278.267 139.31 283.493 141.071C287.792 142.539 292.057 144.92 294.765 148.661C295 148.994 295.469 149.487 295.516 149.895C295.563 150.303 295.148 151.138 295.016 151.567C294.64 152.791 294.249 154.01 293.842 155.221C293.059 157.511 292.218 159.778 291.317 162.024C289.43 166.734 287.234 171.315 284.742 175.736C282.045 180.569 278.878 185.126 275.288 189.34H276.048C270.931 183.931 263.224 182.962 256.146 183.049C255.456 183.049 255.442 184.13 256.146 184.121L256.137 184.126Z" fill="#151116"/>
<path d="M221.282 90.0222C225.479 92.6591 228.594 96.707 230.065 101.436C230.267 102.095 231.305 101.813 231.101 101.149C229.548 96.1547 226.258 91.8793 221.825 89.0957C221.238 88.7298 220.698 89.6563 221.282 90.0222Z" fill="#151116"/>
<path d="M218.96 78.1609C220.208 78.9262 221.275 79.952 222.088 81.1679C222.847 82.2703 223.56 83.5932 223.178 84.956C222.708 86.6565 221.534 88.0592 220.393 89.3633C219.063 90.8832 217.715 92.3891 216.372 93.8972C211.074 99.8393 205.719 105.732 200.307 111.576C197.203 114.925 194.08 118.258 190.94 121.575C190.47 122.077 191.224 122.837 191.7 122.335C197.657 116.042 203.549 109.688 209.376 103.272C212.29 100.065 215.186 96.8433 218.065 93.6064C219.42 92.0841 220.829 90.59 222.102 88.9974C223.103 87.7449 224.11 86.2765 224.347 84.6511C224.556 83.225 223.798 81.7637 223.016 80.6261C222.102 79.2534 220.9 78.096 219.493 77.2344C218.897 76.8826 218.357 77.8114 218.953 78.1727L218.96 78.1609Z" fill="#151116"/>
<path d="M180.738 112.507L182.725 114.678C183.343 115.352 183.932 116.151 184.646 116.724C185.928 117.751 186.806 116.585 187.443 115.53C189.218 112.598 191.093 109.729 193.067 106.922C196.988 101.349 201.285 96.0495 205.929 91.0611C210.569 86.0751 215.539 81.4063 220.806 77.0863C223.467 74.9096 226.197 72.8276 228.994 70.8401C230.359 69.8714 231.766 68.9636 233.132 68.0043C234.21 67.2467 234.628 66.2968 234.203 65.009C233.846 63.9254 233.029 62.9966 232.268 62.1709C231.045 60.8709 229.735 59.6555 228.346 58.533C224.722 55.5634 220.896 52.8485 216.896 50.408C213.162 48.1046 209.273 45.9115 205.154 44.3752C203.564 43.7841 201.932 43.3174 200.223 43.2235C198.513 43.1297 197.228 43.7231 195.911 44.788C194.594 45.8529 193.264 46.9764 191.947 48.0718C181.497 56.7973 171.094 66.0059 163.68 77.5531C162.758 78.9901 161.887 80.46 161.066 81.9627C160.737 82.5679 161.665 83.112 162.006 82.5045C168.299 70.9785 177.739 61.669 187.603 53.1617C190.099 51.0084 192.63 48.8998 195.167 46.7958C196.496 45.6958 197.78 44.3213 199.617 44.2814C200.537 44.2743 201.454 44.3871 202.345 44.6168C206.025 45.5128 209.506 47.3822 212.784 49.2258C216.766 51.4726 220.602 53.9694 224.267 56.7011C227.066 58.7839 230.03 61.0099 232.216 63.7612C232.539 64.1451 232.816 64.5655 233.041 65.0137C233.154 65.2353 233.233 65.4725 233.276 65.7174C233.43 66.7799 232.39 67.2092 231.632 67.7111C228.948 69.5109 226.325 71.3968 223.762 73.3686C213.627 81.1622 204.521 90.2058 196.66 100.284C194.706 102.786 192.828 105.349 191.024 107.973C190.127 109.284 189.25 110.614 188.394 111.96C187.993 112.585 187.597 113.217 187.206 113.855C186.996 114.193 186.788 114.531 186.583 114.871C186.257 115.41 185.989 116.06 185.188 115.79C184.904 115.694 184.503 115.049 184.296 114.824L183.357 113.801L181.478 111.756C181.008 111.245 180.252 112.005 180.717 112.516L180.738 112.507Z" fill="#151116"/>
<path d="M161.388 82.7513C163.631 83.6778 165.69 85.125 167.541 86.6754C169.39 88.1684 170.987 89.9478 172.273 91.9459C177.099 99.7324 180.22 108.451 181.431 117.529C181.52 118.202 182.605 118.211 182.504 117.529C181.709 111.525 180.097 105.658 177.714 100.09C175.518 94.967 172.89 89.8584 168.607 86.1782C166.521 84.3862 164.213 82.7631 161.663 81.7099C161.024 81.4449 160.747 82.4839 161.376 82.7443L161.388 82.7513Z" fill="#151116"/>
<path d="M139.891 118.544C140.99 106.884 138.823 94.807 134.704 83.8978L134.457 84.503C141.321 80.2552 149.808 80.1192 157.492 81.822C159.331 82.2302 161.289 82.6524 162.95 83.5718C163.801 84.0297 164.516 84.703 165.024 85.5244C165.533 86.3457 165.816 87.2861 165.845 88.2512C166.045 92.0932 164.002 96.0877 162.196 99.3597C159.979 103.366 157.147 107.001 153.803 110.131C153.745 110.189 153.701 110.259 153.675 110.337C153.648 110.414 153.64 110.497 153.65 110.578C153.661 110.659 153.69 110.737 153.735 110.805C153.78 110.874 153.84 110.931 153.911 110.973C163.17 115.195 171.822 121.762 177.159 130.537C177.519 131.126 178.449 130.586 178.099 129.995C172.669 121.082 163.887 114.331 154.465 110.046C154.5 110.328 154.538 110.607 154.573 110.888C159.428 106.353 163.2 100.786 165.61 94.5983C166.331 92.75 166.923 90.7891 166.935 88.786C166.935 86.9658 166.409 85.1504 165.101 83.8369C163.753 82.4811 161.862 81.8455 160.061 81.3506C155.954 80.2247 151.656 79.6008 147.38 79.7439C142.643 79.9057 137.958 81.0691 133.908 83.5765C133.809 83.6391 133.733 83.7316 133.69 83.8405C133.648 83.9494 133.642 84.069 133.673 84.1817C137.764 95.0181 139.915 106.964 138.82 118.544C138.757 119.231 139.83 119.227 139.896 118.544H139.891Z" fill="#151116"/>
<path d="M133.856 141.794C136.5 134.722 140.14 127.955 144.914 122.077C144.97 122.018 145.013 121.947 145.038 121.87C145.063 121.792 145.071 121.71 145.06 121.63C145.049 121.549 145.021 121.472 144.977 121.403C144.932 121.335 144.873 121.278 144.804 121.235C139.948 118.113 134.872 115.347 129.615 112.96C123.448 110.162 116.974 107.821 110.269 106.728C108.714 106.47 107.146 106.292 105.572 106.193C104.664 106.139 104.516 106.308 103.929 106.99C103.341 107.673 102.754 108.377 102.158 109.071C99.7438 111.929 97.3876 114.834 95.0894 117.785C90.55 123.649 86.3066 129.747 82.8427 136.303C78.8834 143.809 75.8728 151.837 74.4263 160.213C74.3112 160.889 75.3468 161.18 75.4642 160.5C77.9676 145.99 85.0925 132.913 93.8142 121.223C96.0381 118.244 98.3489 115.334 100.716 112.467C101.864 111.077 103.024 109.695 104.199 108.32C104.43 107.993 104.691 107.689 104.978 107.41C105.265 107.192 105.46 107.258 105.845 107.284C106.674 107.338 107.503 107.417 108.327 107.518C114.959 108.348 121.419 110.537 127.525 113.192C133.339 115.726 138.94 118.725 144.271 122.159C144.236 121.878 144.198 121.599 144.163 121.317C139.264 127.34 135.542 134.248 132.83 141.505C132.595 142.155 133.626 142.443 133.865 141.791L133.856 141.794Z" fill="#151116"/>
<path d="M74.6776 160.905C77.7069 165.42 82.2745 168.542 87.1614 170.78C89.8878 172.027 92.7152 173.036 95.5473 174.009C98.201 174.92 101.064 176.071 103.875 175.154C104.527 174.941 104.248 173.904 103.588 174.12C100.885 175.002 98.0601 173.74 95.5168 172.865C92.7583 171.956 90.0493 170.904 87.4009 169.712C82.8052 167.571 78.4772 164.627 75.6052 160.363C75.2224 159.793 74.2924 160.33 74.6658 160.905H74.6776Z" fill="#151116"/>
<path d="M67.7851 203.072C66.5006 196.405 66.3151 189.101 70.3683 183.289C70.7628 182.721 69.8329 182.184 69.4289 182.747C65.2231 188.794 65.4133 196.424 66.7495 203.358C66.881 204.036 67.9237 203.747 67.7851 203.072Z" fill="#151116"/>
<path d="M79.5692 165.737C78.3039 171.522 77.5185 177.401 77.2208 183.315C77.1856 184.004 78.2611 184.004 78.2964 183.315C78.587 177.497 79.3584 171.714 80.6024 166.023C80.748 165.348 79.7124 165.062 79.5645 165.737H79.5692Z" fill="#151116"/>
<path d="M77.7632 182.778C75.7929 182.921 73.7593 183.205 71.7937 182.881C69.5933 182.52 67.8015 180.918 65.9792 179.745C65.3968 179.367 64.8567 180.296 65.4367 180.669C67.3436 181.898 69.1941 183.531 71.5072 183.915C73.5808 184.26 75.6849 184.002 77.7632 183.852C78.4489 183.8 78.4536 182.728 77.7632 182.778Z" fill="#151116"/>
<path d="M75.058 157.018C72.8177 156.512 70.4646 156.491 68.1797 156.549C68.0628 156.551 67.9497 156.591 67.8568 156.662C67.7639 156.733 67.696 156.831 67.6631 156.943C65.3389 164.462 64.492 172.358 65.1691 180.197C65.2302 180.88 66.3034 180.887 66.2447 180.197C65.5709 172.454 66.4042 164.654 68.6987 157.227L68.1797 157.621C70.3684 157.558 72.6275 157.56 74.7715 158.046C75.4455 158.196 75.732 157.161 75.058 157.009V157.018Z" fill="#151116"/>
<path d="M78.7684 178.478C86.0201 181.802 91.8628 187.311 97.5693 192.746C98.0718 193.215 98.8327 192.464 98.3301 191.988C92.5626 186.495 86.64 180.908 79.3085 177.551C78.6862 177.265 78.1343 178.189 78.766 178.478H78.7684Z" fill="#151116"/>
<path d="M98.4334 192.596C100.12 189.079 102.818 186.145 106.183 184.168C106.779 183.819 106.239 182.892 105.641 183.242C102.115 185.309 99.2832 188.376 97.5058 192.054C97.2076 192.673 98.1328 193.227 98.4451 192.596H98.4334Z" fill="#151116"/>
<path d="M67.7147 160.485C66.8904 157.957 64.9554 155.961 63.1706 154.068C62.701 153.566 62.2313 153.066 61.7616 152.555C61.2426 151.98 60.3714 151.223 60.4113 150.411C60.4442 149.729 60.9397 149.004 61.2614 148.401C61.5832 147.798 61.9659 147.16 62.3698 146.562C65.4532 141.918 70.0489 138.46 74.9711 135.948C76.3543 135.245 77.775 134.607 79.2216 134.039C80.5766 133.507 83.2701 132.123 84.1719 133.971C84.4748 134.593 85.4024 134.049 85.0995 133.429C83.6529 130.467 79.3578 132.791 77.2889 133.683C74.3783 134.91 71.6124 136.455 69.0415 138.289C66.5641 140.048 64.3562 142.158 62.4873 144.552C61.544 145.775 60.7154 147.082 60.0121 148.457C59.7303 149.013 59.3687 149.63 59.3076 150.261C59.2278 151.04 59.6152 151.668 60.0826 152.255C62.283 155.006 65.5472 157.307 66.6791 160.769C66.8928 161.423 67.9307 161.144 67.7147 160.485Z" fill="#151116"/>
<path d="M65.3288 157.278C62.3464 158.287 59.263 159.699 56.9287 161.852H57.6896C47.9815 153.61 41.0328 141.976 29.2746 136.286C28.6546 135.986 28.1004 136.91 28.7321 137.224C40.3987 142.877 47.2841 154.447 56.9264 162.626C57.029 162.724 57.1652 162.778 57.3068 162.778C57.4484 162.778 57.5846 162.724 57.6872 162.626C59.883 160.588 62.8137 159.263 65.6129 158.325C66.2658 158.104 65.9863 157.067 65.3288 157.288V157.278Z" fill="#151116"/>
<path d="M29.6081 136.788C33.7928 131.187 39.1165 126.026 45.3678 122.794C45.9807 122.478 45.4383 121.551 44.8254 121.868C38.405 125.189 32.9756 130.497 28.6805 136.246C28.2672 136.8 29.1994 137.334 29.6198 136.788H29.6081Z" fill="#151116"/>
<path d="M80.8584 104.122C77.303 109.176 73.6913 114.19 70.0231 119.166C67.4141 122.684 64.8098 126.243 61.9871 129.604C61.5456 130.129 62.3018 130.894 62.7456 130.364C65.5636 127.007 68.1679 123.468 70.7723 119.95C74.5077 114.902 78.179 109.807 81.786 104.664C82.1852 104.098 81.2553 103.561 80.8584 104.122Z" fill="#151116"/>
<path d="M95.5777 81.8601C94.3143 84.1681 92.8795 86.3847 91.4446 88.5895C91.0666 89.1712 91.9965 89.7083 92.3722 89.1313C93.8071 86.9265 95.2419 84.71 96.5053 82.4019C96.8388 81.7968 95.9112 81.255 95.5777 81.8601Z" fill="#151116"/>
<path d="M96.503 81.8603C93.5887 77.8588 89.3429 74.7181 85.4165 71.7744C81.2129 68.6314 76.8286 65.5915 72.1765 63.1404C71.0869 62.5681 69.6473 61.651 68.3651 61.6416C67.8955 61.6416 67.6747 61.8973 67.3342 62.2116C66.517 62.9637 65.7045 63.7213 64.8966 64.4844C63.4187 65.8777 61.9557 67.285 60.5076 68.7064C54.6249 74.4999 49.0241 80.596 44.0057 87.1565C38.426 94.4512 33.6237 102.339 30.1505 110.847C30.0049 111.205 30.3642 111.489 30.6695 111.524C40.3517 112.681 49.6911 117.051 56.6469 123.89C58.6094 125.815 60.3674 127.937 61.8931 130.223C62.2759 130.796 63.2058 130.261 62.8207 129.681C57.2363 121.303 48.6108 115.216 39.0319 112.223C36.3074 111.385 33.5112 110.8 30.6788 110.476L31.1955 111.156C37.2589 96.2526 47.4719 83.4599 58.6712 72.0746C61.4492 69.26 64.3072 66.5016 67.2027 63.8019C67.5522 63.5116 67.8861 63.2031 68.2031 62.8777C68.3957 62.6432 68.0974 62.7628 68.3369 62.7229C68.5257 62.7337 68.7114 62.7758 68.8865 62.8472C69.539 63.0598 70.1728 63.3258 70.7816 63.6424C75.126 65.7815 79.1934 68.5891 83.1104 71.4179C85.6513 73.2497 88.1359 75.1708 90.4983 77.2208C92.3136 78.8111 94.1688 80.4529 95.5778 82.4091C95.9817 82.9627 96.914 82.4279 96.5054 81.8673L96.503 81.8603Z" fill="#151116"/>
<path d="M32.2288 111.207L46.5537 105.16L53.5987 102.186C55.8062 101.248 58.0442 100.352 60.0849 99.0853C67.4939 94.481 69.6638 85.7531 70.1499 77.5953C70.4575 72.4539 70.2673 67.1506 68.6916 62.2085C68.4802 61.5517 67.4446 61.8332 67.6536 62.4946C69.0415 66.8386 69.3162 71.45 69.1542 75.9839C69.0039 80.1754 68.5836 84.3974 67.1323 88.3591C65.7538 92.18 63.4055 95.6514 59.9604 97.9031C58.0606 99.1486 55.9682 100.042 53.8758 100.924L46.967 103.833L31.6793 110.281C31.0452 110.55 31.5924 111.475 32.2217 111.207H32.2288Z" fill="#151116"/>
<path d="M50.5952 133.718C48.0207 126.116 44.2644 118.966 39.464 112.53C39.0531 111.984 38.1208 112.519 38.5247 113.072C43.2782 119.427 46.999 126.491 49.5502 134.004C49.7709 134.654 50.8089 134.375 50.5858 133.718H50.5952Z" fill="#151116"/>
<path d="M50.5177 134.21C54.1646 132.338 58.0573 130.989 62.081 130.201C62.7596 130.068 62.4731 129.029 61.7968 129.167C57.6825 129.979 53.703 131.364 49.9752 133.283C49.3599 133.6 49.9024 134.527 50.5177 134.222V134.21Z" fill="#151116"/>
<path d="M63.4054 129.437C71.3147 126.212 79.4164 122.649 87.9738 121.629C88.6525 121.549 88.6619 120.475 87.9738 120.557C79.3014 121.589 71.1362 125.133 63.1189 128.403C62.4896 128.659 62.7643 129.698 63.4054 129.437Z" fill="#151116"/>
<path d="M89.8268 125.865C89.0114 121.342 87.7278 116.916 85.9966 112.659C85.1731 110.639 84.2526 108.661 83.2349 106.725C82.1923 104.745 80.8725 102.859 80.0553 100.769C79.8322 100.197 79.4541 99.2401 79.494 98.7077C79.5332 98.5445 79.6042 98.3907 79.703 98.255C80.0351 97.7725 80.43 97.3364 80.8772 96.9579C82.2979 95.6585 83.9066 94.5631 85.5081 93.5029C89.7535 90.731 94.1432 88.1864 98.6589 85.8798C100.538 84.9088 102.416 83.9635 104.347 83.1121C104.962 82.84 105.584 82.575 106.225 82.3545C106.542 82.2244 106.874 82.1368 107.214 82.0941C107.317 82.1082 107.08 82.0566 107.167 82.0941C107.386 82.1837 107.599 82.2887 107.803 82.4084C108.33 82.6927 108.829 83.0232 109.297 83.3959C110.199 84.1273 110.994 84.9807 111.659 85.9314C113.113 87.9815 113.989 90.3599 114.644 92.7687C116.091 98.0674 117.049 103.542 117.932 108.953C118.042 109.633 119.075 109.345 118.967 108.667C118.141 103.554 117.197 98.4286 115.931 93.402C114.891 89.2739 113.244 85.0378 109.738 82.3779C108.978 81.8009 107.914 80.8932 106.888 81.0527C106.404 81.1488 105.932 81.295 105.479 81.489C103.715 82.1668 102.005 82.9995 100.312 83.8345C95.5854 86.1718 90.9828 88.7514 86.5226 91.5631C84.6042 92.7527 82.7582 94.0553 80.9946 95.4638C80.0881 96.205 78.7519 97.2018 78.4631 98.4145C78.3245 98.9985 78.5547 99.6459 78.7191 100.197C79.0787 101.321 79.5573 102.403 80.1469 103.425C81.4267 105.749 82.7559 108.024 83.8666 110.44C86.1659 115.45 87.8229 120.731 88.7982 126.155C88.9226 126.833 89.9583 126.545 89.8361 125.869L89.8268 125.865Z" fill="#151116"/>
<path d="M64.899 65.2906C64.1264 63.7215 62.5366 62.4525 61.2121 61.3712C59.5565 60.0225 57.7647 58.7278 55.7921 57.8857C52.8708 56.6356 49.2168 57.7262 46.2884 58.5026C41.9228 59.6613 37.6699 61.2657 33.511 63.0178C29.3038 64.7669 25.2001 66.7545 21.2198 68.9708C19.4786 69.9262 17.7965 70.9852 16.1826 72.142C14.2663 73.5493 12.2514 75.2475 11.4671 77.5555C11.4362 77.6695 11.4437 77.7903 11.4882 77.8996C11.5327 78.009 11.6119 78.1007 11.7136 78.1607C16.0957 80.4312 20.3344 83.1239 23.5963 86.8768C26.2123 89.8861 28.0041 93.4607 29.6644 97.0541C30.7869 99.4818 31.8742 101.924 33.0437 104.325C33.3443 104.947 34.2719 104.403 33.9713 103.784C32.001 99.7281 30.3266 95.5108 28.1309 91.5679C26.1427 87.9399 23.4432 84.749 20.1935 82.1857C17.7075 80.2884 15.0502 78.6261 12.2561 77.2201L12.5027 77.8276C13.1861 75.8151 15.0506 74.2812 16.7297 73.0544C18.0557 72.0996 19.4314 71.2156 20.8511 70.4063C24.5311 68.3036 28.3274 66.4108 32.2218 64.7371C36.2378 62.9473 40.3589 61.4026 44.5623 60.1117C46.3211 59.5694 48.1086 59.1246 49.9166 58.7794C51.2246 58.5448 52.7205 58.2493 54.0544 58.4534C56.088 58.7606 58.0982 60.3298 59.6904 61.5307C61.2004 62.68 63.1166 64.0921 63.9761 65.8372C64.2814 66.4564 65.209 65.9146 64.9037 65.2953L64.899 65.2906Z" fill="#151116"/>
<path d="M157.365 219.277C151.541 228.267 142.7 236.188 132.496 239.786L133.156 240.162C132.486 237.939 131.25 235.927 129.569 234.324C127.888 232.72 125.82 231.58 123.565 231.014C122.896 230.847 122.61 231.882 123.281 232.048C125.356 232.563 127.262 233.607 128.811 235.078C130.361 236.549 131.501 238.397 132.12 240.441C132.159 240.577 132.25 240.693 132.374 240.763C132.497 240.833 132.643 240.852 132.78 240.816C143.249 237.136 152.309 229.055 158.293 219.816C158.669 219.237 157.741 218.697 157.365 219.277Z" fill="#151116"/>
<path d="M131.702 113.837C132.839 106.759 134.762 99.8295 137.437 93.1774C137.693 92.5347 136.655 92.2579 136.399 92.8912C133.726 99.5439 131.804 106.473 130.667 113.551C130.559 114.226 131.606 114.517 131.702 113.837Z" fill="#151116"/>
<path d="M142.049 80.7829C144.651 72.9644 147.618 65.275 150.95 57.7145C151.227 57.0882 150.301 56.5417 150.022 57.1726C146.654 64.8019 143.652 72.5767 141.014 80.4968C140.795 81.1535 141.831 81.435 142.049 80.7829Z" fill="#151116"/>
<path d="M86.2314 71.457C88.6139 62.8478 91.8527 54.4983 95.8996 46.5332C96.2119 45.9186 95.2867 45.3768 94.972 45.9937C90.8792 54.0395 87.6041 62.4749 85.1958 71.1732C85.0103 71.8393 86.0483 72.1232 86.2314 71.457Z" fill="#151116"/>
<path d="M96.4067 46.2312C111.086 45.4055 126.466 45.3422 140.102 51.6259C143.654 53.2447 146.985 55.3081 150.015 57.7666C150.543 58.2029 151.309 57.4476 150.773 57.009C139.384 47.6737 124.406 44.9294 110.041 44.7746C105.492 44.7253 100.946 44.9106 96.4067 45.1663C95.7187 45.2038 95.714 46.2781 96.4067 46.2382V46.2312Z" fill="#151116"/>
<path d="M141.58 51.4049C143.263 40.3808 143.872 28.5545 138.783 18.2739C138.477 17.6547 137.55 18.1989 137.843 18.8158C142.791 28.8102 142.169 40.3949 140.532 51.1211C140.429 51.7966 141.472 52.0875 141.568 51.4049H141.58Z" fill="#151116"/>
<path d="M139.022 19.0718C153.176 16.6559 167.731 17.4463 181.882 19.4494L181.509 19.0765C183.324 23.8755 184.327 28.9724 184.86 34.0622C185.409 38.9485 185.452 43.8783 184.989 48.7735C184.805 50.8826 184.403 52.967 183.791 54.9939C183.582 55.6554 184.618 55.9321 184.827 55.2801C186.09 51.3208 186.337 47.0026 186.37 42.8768C186.415 37.6348 185.928 32.4017 184.916 27.2578C184.36 24.3748 183.567 21.5427 182.544 18.7903C182.519 18.7007 182.472 18.6191 182.406 18.5533C182.34 18.4876 182.258 18.4399 182.168 18.415C170.939 16.8247 159.533 15.9968 148.202 16.8717C145.032 17.1062 141.861 17.5026 138.738 18.0444C138.057 18.1594 138.344 19.1938 139.022 19.0788V19.0718Z" fill="#151116"/>
<path d="M124.211 45.8066C121.33 34.0788 114.761 23.437 106.364 14.8452C104.254 12.6818 102.018 10.6454 99.6663 8.7468C99.152 8.32929 98.6283 7.92117 98.1047 7.51773C97.5434 7.08615 97.0174 6.46927 96.28 6.54667C94.763 6.70617 93.2459 7.00171 91.7547 7.31132C85.4393 8.6352 79.3679 10.9299 73.757 14.1134C70.7214 15.7981 67.8509 17.7637 65.1832 19.9844C62.6611 22.1282 60.4301 24.7318 59.6035 28.0038C59.5739 28.1177 59.5819 28.2382 59.6263 28.3472C59.6707 28.4563 59.7492 28.5481 59.8501 28.609C64.7934 31.311 68.9734 35.6151 72.7049 39.7574C77.1879 44.7323 81.3304 50.2185 84.2823 56.2513C85.6091 58.9628 86.7645 61.9135 86.9618 64.9533C87.0064 65.6382 88.0819 65.6429 88.0373 64.9533C87.6498 59.0214 84.2588 53.3592 80.9923 48.5649C77.1133 42.83 72.5576 37.5821 67.4235 32.9342C65.256 30.985 62.9617 29.0874 60.3785 27.6825L60.6251 28.29C61.3601 25.3838 63.2857 23.0688 65.4932 21.1219C67.7795 19.154 70.2379 17.3949 72.8388 15.8656C78.1058 12.6896 83.8204 10.3215 89.7915 8.84062C91.2804 8.47003 92.7817 8.15729 94.2956 7.9024C94.9039 7.7992 95.9395 7.44736 96.5383 7.66785C96.8131 7.76401 97.0949 8.08301 97.3297 8.26362C97.7101 8.55212 98.0835 8.84532 98.4569 9.14086C100.669 10.8994 102.782 12.7788 104.786 14.7702C108.917 18.8655 112.552 23.4316 115.616 28.3744C119.038 33.8519 121.584 39.8291 123.162 46.0904C123.326 46.7612 124.362 46.475 124.197 45.8042L124.211 45.8066Z" fill="#151116"/>
<path d="M147.427 16.766C147.916 12.3416 149.642 8.14413 152.408 4.65353C152.833 4.1164 152.077 3.35175 151.647 3.89358C148.704 7.59962 146.872 12.0628 146.363 16.766C146.288 17.4532 147.364 17.4485 147.436 16.766H147.427Z" fill="#151116"/>
<path d="M152.373 3.34495C144.597 1.59986 136.674 0.326225 128.708 0.0541402C124.711 -0.0983923 120.707 0.0497961 116.732 0.49745C114.853 0.715586 112.974 1.00409 111.115 1.38172C110.211 1.56468 109.312 1.76796 108.416 1.99157C108.05 2.08304 107.343 2.15107 107.028 2.37624C106.754 2.57561 106.707 2.91806 106.615 3.22533C105.441 7.06829 105.013 11.0998 105.354 15.1032C105.413 15.7858 106.488 15.7928 106.427 15.1032C106.078 11.0112 106.551 6.89082 107.817 2.98374L107.444 3.35668C118.826 0.26524 130.845 0.649911 142.406 2.50055C145.652 3.01892 148.878 3.65926 152.088 4.377C152.76 4.52711 153.049 3.49272 152.373 3.34261V3.34495Z" fill="#151116"/>
<path d="M118.636 8.39704C120.543 6.75515 123.251 7.24772 125.531 7.5245C127.595 7.77782 129.65 7.5503 131.726 7.68399C133.135 7.77547 134.521 7.64881 135.918 7.81769C137.649 8.0241 139.363 8.36889 141.096 8.55419C141.782 8.62691 141.777 7.55499 141.096 7.48227C139.257 7.28525 137.442 6.90527 135.603 6.70824C134.086 6.54405 132.55 6.65899 131.014 6.56516C130.102 6.5229 129.189 6.537 128.279 6.60738C126.895 6.68713 125.522 6.43381 124.153 6.27901C121.945 6.03038 119.637 6.12654 117.875 7.63943C117.352 8.08977 118.11 8.84504 118.636 8.39704Z" fill="#151116"/>
<path d="M117.441 15.3185C119.085 14.5492 120.628 15.6094 122.229 16.0034C123.1 16.2192 124.012 16.238 124.899 16.3553C125.916 16.4912 126.943 16.5242 127.966 16.4538C130.08 16.2732 132.153 15.9284 134.267 15.8111C136.542 15.6868 138.818 15.668 141.096 15.6516C141.786 15.6516 141.789 14.5727 141.096 14.5773C138.762 14.5961 136.425 14.6125 134.093 14.7486C131.825 14.8799 129.575 15.335 127.309 15.4217C125.39 15.4968 123.213 15.2646 121.4 14.6196C119.834 14.0613 118.484 13.6555 116.896 14.385C116.271 14.6759 116.816 15.6024 117.441 15.3232V15.3185Z" fill="#151116"/>
<path d="M120.564 25.9446C122.737 25.3676 124.904 26.3902 127.093 26.3269C128.199 26.2964 129.206 25.8766 130.282 25.703C131.503 25.506 132.715 25.8203 133.872 26.1909C134.532 26.402 134.812 25.3652 134.157 25.1541C133.022 24.7906 131.825 24.4903 130.634 24.5865C129.443 24.6827 128.314 25.2198 127.111 25.255C124.805 25.3207 122.603 24.298 120.301 24.9102C119.634 25.0885 119.919 26.1228 120.588 25.9446H120.564Z" fill="#151116"/>
<path d="M125.684 35.1576C127.106 35.1205 128.527 35.2679 129.911 35.5962C130.582 35.7557 130.869 34.7213 130.195 34.5618C128.717 34.2114 127.2 34.0537 125.681 34.0927C124.991 34.1115 124.977 35.1834 125.681 35.167L125.684 35.1576Z" fill="#151116"/>
<path d="M131.101 35.5137C132.454 35.2183 133.844 35.1336 135.223 35.2627C135.365 35.2621 135.502 35.2053 135.602 35.1047C135.703 35.0041 135.76 34.8679 135.76 34.7256C135.757 34.5841 135.7 34.4492 135.6 34.3491C135.499 34.249 135.364 34.1915 135.223 34.1885C133.748 34.0585 132.262 34.1566 130.817 34.4793C130.687 34.5229 130.578 34.6147 130.513 34.7359C130.449 34.8571 130.433 34.9984 130.469 35.1308C130.506 35.2632 130.592 35.3767 130.709 35.4479C130.827 35.5191 130.967 35.5427 131.101 35.5137Z" fill="#151116"/>
<path d="M186.299 107.03C191.305 97.0621 198.176 88.1446 206.542 80.7599C208.912 78.6559 211.403 76.6917 214.003 74.8772C214.564 74.4855 214.028 73.5543 213.46 73.9507C204.216 80.4504 196.306 88.6603 190.158 98.1357C188.403 100.825 186.806 103.614 185.374 106.488C185.066 107.105 185.992 107.649 186.299 107.03Z" fill="#151116"/>
<path d="M214.111 74.0253C207.902 66.6802 200.57 60.3608 192.386 55.3008C191.797 54.9372 191.257 55.8637 191.846 56.2273C199.949 61.2427 207.207 67.506 213.352 74.7853C213.796 75.313 214.555 74.5507 214.111 74.0253Z" fill="#151116"/>
<path d="M208.627 68.8816C209.691 67.9739 210.72 67.0286 211.753 66.088C212.248 65.6377 212.746 65.1912 213.249 64.7487C213.643 64.4016 214.148 64.0709 214.423 63.6111C214.923 62.762 214.411 62.0208 213.74 61.479C212.758 60.6886 211.748 59.9356 210.769 59.1335C206.915 56.0233 203.123 52.8286 198.731 50.4854C198.121 50.1594 197.578 51.0859 198.189 51.4236C202.043 53.4807 205.438 56.1898 208.815 58.9294C209.617 59.5815 210.42 60.2288 211.225 60.8715C211.633 61.1952 212.043 61.515 212.453 61.8308C212.972 62.2319 213.695 62.6072 213.235 63.339C212.955 63.7824 212.255 64.1881 211.859 64.5423C211.462 64.8965 211.034 65.2858 210.626 65.6611C209.715 66.4891 208.806 67.3194 207.869 68.1193C207.343 68.5696 208.104 69.3249 208.627 68.8769V68.8816Z" fill="#151116"/>
<path d="M167.848 85.0968C173.767 74.6954 181.461 65.4079 190.583 57.6538C193.191 55.4388 195.911 53.358 198.731 51.4193C199.297 51.0276 198.759 50.0988 198.189 50.4811C188.215 57.3563 179.523 65.9217 172.505 75.7896C170.496 78.6147 168.633 81.5403 166.923 84.5549C166.58 85.1554 167.508 85.6972 167.848 85.0968Z" fill="#151116"/>
<path d="M171.664 89.7716C177.371 78.7076 185.963 69.4215 195.19 61.1769C197.853 58.7962 200.591 56.4975 203.362 54.2482C203.898 53.8119 203.127 53.0566 202.601 53.4882C192.849 61.3974 183.453 70.0173 176.173 80.3143C174.156 83.1561 172.339 86.1343 170.734 89.2274C170.42 89.8419 171.345 90.3838 171.674 89.7692L171.664 89.7716Z" fill="#151116"/>
<path d="M176.035 95.699C182.198 84.443 190.142 74.2561 199.56 65.5328C202.208 63.0816 204.98 60.7689 207.866 58.604C208.414 58.1935 207.878 57.2624 207.324 57.6775C196.965 65.4413 188.049 75.0862 180.823 85.796C178.777 88.8265 176.875 91.9468 175.116 95.1571C174.785 95.7623 175.713 96.3041 176.056 95.699H176.035Z" fill="#151116"/>
<path d="M180.783 100.057C186.611 90.8624 193.828 82.6812 201.707 75.1941C203.97 73.0425 206.277 70.9393 208.627 68.8846C209.149 68.4272 208.392 67.672 207.869 68.127C199.673 75.3302 191.876 83.0189 185.268 91.7233C183.357 94.2455 181.556 96.8436 179.867 99.5175C179.496 100.104 180.426 100.643 180.806 100.059L180.783 100.057Z" fill="#151116"/>
<path d="M186.299 106.488C183.702 102.422 180.271 98.9512 176.232 96.3063C175.652 95.9263 175.114 96.8552 175.689 97.2445C179.573 99.7915 182.874 103.13 185.374 107.042C185.743 107.624 186.675 107.086 186.299 106.5V106.488Z" fill="#151116"/>
<path d="M190.216 99.2854C185.022 91.6929 177.845 85.6665 169.464 81.8603C168.839 81.5789 168.29 82.503 168.921 82.7868C177.138 86.5021 184.178 92.3957 189.277 99.8272C189.664 100.395 190.597 99.8577 190.216 99.2854Z" fill="#151116"/>
<path d="M175.004 74.2036C183.115 77.9002 189.58 84.5592 195.157 91.3472C195.596 91.882 196.352 91.1127 195.916 90.5896C190.28 83.7383 183.732 77.0089 175.544 73.2771C174.919 72.9933 174.37 73.9175 175.004 74.2036Z" fill="#151116"/>
<path d="M181.041 66.8482C188.918 71.1804 195.622 77.5252 201.286 84.4398C201.726 84.9746 202.482 84.2053 202.047 83.6799C196.322 76.6995 189.533 70.2821 181.584 65.91C180.978 65.5769 180.435 66.5034 181.041 66.8365V66.8482Z" fill="#151116"/>
<path d="M186.327 61.0924C194.103 66.0533 201.162 72.3206 207.216 79.2634C207.671 79.7865 208.428 79.0289 207.977 78.5058C201.871 71.4949 194.72 65.176 186.87 60.1659C186.285 59.793 185.747 60.7195 186.327 61.0924Z" fill="#151116"/>
<path d="M149.083 30.5674C157.228 28.4896 165.716 28.1183 174.013 29.4767C174.689 29.587 174.98 28.5549 174.299 28.4424C165.814 27.0433 157.131 27.4138 148.796 29.5307C148.127 29.7019 148.411 30.7363 149.083 30.5674Z" fill="#151116"/>
<path d="M151.025 40.5006C158.909 38.9048 167.004 38.6337 174.978 39.6984C175.661 39.7875 175.654 38.7133 174.978 38.6241C166.908 37.5565 158.717 37.8411 150.741 39.4662C150.062 39.6022 150.351 40.639 151.027 40.5006H151.025Z" fill="#151116"/>
<path d="M152.347 50.8991C159.32 49.3611 166.49 48.9093 173.602 49.5598C174.29 49.6231 174.285 48.5489 173.602 48.4879C166.394 47.8351 159.129 48.2987 152.063 49.8624C151.386 50.0125 151.673 51.0351 152.347 50.8991Z" fill="#151116"/>
<path d="M153.166 62.2957C159.777 61.0554 166.548 60.9231 173.202 61.904C173.879 62.0049 174.17 60.9658 173.487 60.8696C166.643 59.8534 159.678 59.985 152.878 61.259C152.199 61.388 152.485 62.4317 153.162 62.2957H153.166Z" fill="#151116"/>
<path d="M152.384 74.0045C154.939 73.1344 157.651 72.8248 160.336 73.0968C161.024 73.1648 161.019 72.0929 160.336 72.0225C157.554 71.7454 154.746 72.0653 152.098 72.9607C151.447 73.1953 151.727 74.2203 152.384 73.9975V74.0045Z" fill="#151116"/>
<path d="M208.926 197.655C208 198.16 207.427 199.497 206.96 200.374C206.159 201.87 205.45 203.423 204.743 204.955C204.215 206.111 203.733 207.3 203.125 208.429C202.745 209.132 202.275 209.735 201.977 210.486C201.474 211.736 201.272 213.066 201.059 214.396C200.955 215.071 201.998 215.362 202.097 214.68C202.284 213.446 202.477 212.193 202.916 211.018C203.198 210.26 203.675 209.665 204.053 208.97C204.635 207.901 205.095 206.759 205.6 205.654C206.284 204.157 206.974 202.661 207.737 201.197C208.136 200.43 208.677 199.004 209.468 198.577C210.074 198.247 209.531 197.32 208.926 197.639V197.655Z" fill="#151116"/>
<path d="M209.118 216.776C210.435 214.309 211.304 211.616 212.697 209.179C214.864 205.398 215.921 200.913 218.779 197.552C219.225 197.029 218.469 196.264 218.021 196.792C215.13 200.191 214.148 204.596 211.915 208.379C210.445 210.88 209.545 213.678 208.181 216.234C207.855 216.844 208.782 217.386 209.12 216.776H209.118Z" fill="#151116"/>
<path d="M225.498 199.225C224.382 200.632 223.685 202.274 223.016 203.916C222.17 206.006 221.358 208.107 220.231 210.066C219.211 211.844 217.861 213.38 216.868 215.174C215.98 216.762 215.201 218.407 214.536 220.1C214.287 220.745 215.325 221.024 215.571 220.386C216.237 218.703 217.021 217.07 217.92 215.498C218.885 213.784 220.184 212.311 221.165 210.605C222.206 208.795 222.992 206.852 223.767 204.92C224.448 203.217 225.11 201.422 226.263 199.971C226.689 199.436 225.932 198.671 225.503 199.213L225.498 199.225Z" fill="#151116"/>
<path d="M233.005 203.789C232.341 205.388 231.77 207.033 230.892 208.529C229.798 210.389 228.483 212.141 227.275 213.924C225.122 217.109 222.377 220.355 221.494 224.176C221.337 224.847 222.372 225.136 222.529 224.46C222.971 222.553 223.92 220.869 224.984 219.244C226.158 217.44 227.388 215.669 228.595 213.886C229.748 212.176 231.047 210.499 232.036 208.691C232.843 207.213 233.402 205.623 234.046 204.072C234.309 203.434 233.271 203.155 233.01 203.786L233.005 203.789Z" fill="#151116"/>
<path d="M238.653 178.933L250.033 170.02C250.576 169.593 249.798 168.847 249.272 169.26L237.895 178.173C237.35 178.598 238.115 179.346 238.653 178.931V178.933Z" fill="#151116"/>
<path d="M233.29 178.188C237.623 174.817 242.181 171.746 246.934 168.995C247.53 168.651 246.99 167.722 246.391 168.057C241.565 170.859 236.936 173.985 232.536 177.416C231.991 177.841 232.754 178.589 233.294 178.176L233.29 178.188Z" fill="#151116"/>
<path d="M225.03 175.257L239.355 164.407C239.898 163.994 239.355 163.063 238.813 163.48L224.488 174.331C223.946 174.744 224.488 175.675 225.03 175.269V175.257Z" fill="#151116"/>
<path d="M235.831 158.857C229.55 161.8 223.703 165.588 218.453 170.116C217.927 170.566 218.688 171.324 219.211 170.874C224.402 166.413 230.18 162.684 236.385 159.791C237.009 159.5 236.465 158.573 235.842 158.853L235.831 158.857Z" fill="#151116"/>
<path d="M189.963 186.025C188.492 184.706 186.822 183.628 185.015 182.829C183.136 182.001 181.166 181.374 179.489 180.141C177.812 178.907 176.328 177.537 174.456 176.575C172.585 175.614 170.598 174.933 168.616 174.251C167.961 174.016 167.677 175.062 168.33 175.285C170.274 175.951 172.23 176.617 174.055 177.572C175.88 178.527 177.317 179.866 178.944 181.076C180.449 182.183 182.178 182.814 183.892 183.52C185.835 184.308 187.63 185.418 189.202 186.804C189.716 187.262 190.479 186.506 189.96 186.047L189.963 186.025Z" fill="#151116"/>
<path d="M193.189 178.215C191.545 176.512 189.197 176.055 187.194 174.931C185.08 173.732 183.352 170.93 180.548 171.718C179.884 171.905 180.165 172.94 180.832 172.752C182.11 172.393 183.27 173.172 184.2 173.965C185.085 174.722 185.926 175.487 186.968 176.031C188.8 176.983 190.961 177.438 192.431 178.982C192.9 179.481 193.668 178.722 193.189 178.222V178.215Z" fill="#151116"/>
<path d="M200.861 162.767C196.378 158.949 190.977 156.563 185.618 154.246C184.991 153.974 184.444 154.898 185.076 155.172C190.338 157.448 195.697 159.777 200.105 163.527C200.629 163.973 201.392 163.218 200.866 162.767H200.861Z" fill="#151116"/>
<path d="M204.8 156.873C203.374 155.283 201.622 154.059 199.826 152.931C197.947 151.744 196.068 150.571 194.14 149.459C190.362 147.275 186.391 145.38 182.089 144.473C181.415 144.329 181.126 145.364 181.805 145.507C186.013 146.396 189.895 148.247 193.598 150.386C195.385 151.42 197.137 152.513 198.886 153.608C200.746 154.781 202.566 155.989 204.053 157.633C204.522 158.149 205.272 157.399 204.811 156.873H204.8Z" fill="#151116"/>
<path d="M187.654 138.247C191.956 137.874 195.763 140.138 199.304 142.284C202.592 144.277 206.021 146.271 209.956 146.461C210.661 146.494 210.647 145.422 209.956 145.387C201.737 144.974 196.165 136.436 187.647 137.177C186.964 137.238 186.957 138.31 187.647 138.252L187.654 138.247Z" fill="#151116"/>
<path d="M208.158 140.264C201.527 134.827 193.868 130.779 185.637 128.363C184.972 128.168 184.698 129.205 185.353 129.4C193.408 131.757 200.906 135.71 207.399 141.024C207.93 141.458 208.693 140.703 208.158 140.264Z" fill="#151116"/>
<path d="M213.664 118.826C214.19 123.918 215.602 128.832 217.164 133.688C218.791 138.761 220.451 143.818 222.112 148.882C222.325 149.537 223.363 149.258 223.147 148.598C221.531 143.64 219.902 138.686 218.302 133.725C216.734 128.861 215.266 123.928 214.74 118.826C214.67 118.146 213.594 118.139 213.664 118.826Z" fill="#151116"/>
<path d="M221.104 114.958C224.199 126.307 227.293 137.657 230.385 149.006C230.568 149.672 231.604 149.389 231.423 148.72C228.328 137.372 225.233 126.024 222.14 114.674C221.959 114.008 220.923 114.29 221.104 114.958Z" fill="#151116"/>
<path d="M231.845 111.179C234.413 122.368 237.078 133.533 239.842 144.676C240.006 145.345 241.044 145.063 240.877 144.39C238.115 133.249 235.45 122.084 232.881 110.896C232.726 110.222 231.69 110.506 231.845 111.179Z" fill="#151116"/>
<path d="M244.625 111.109C246.034 116.473 247.476 121.825 248.817 127.204C250.158 132.582 251.219 138.127 250.588 143.705C250.512 144.39 251.586 144.385 251.663 143.705C252.29 138.157 251.264 132.629 249.937 127.258C248.58 121.764 247.091 116.299 245.661 110.825C245.487 110.156 244.449 110.44 244.625 111.109Z" fill="#151116"/>
<path d="M113.66 155.123C120.573 153.241 127.719 152.354 134.882 152.489C135.587 152.489 135.587 151.429 134.882 151.415C127.623 151.28 120.381 152.18 113.376 154.088C112.709 154.269 112.991 155.306 113.66 155.123Z" fill="#151116"/>
<path d="M135.413 160.98C131.261 161.161 127.102 161.295 122.952 161.539C119.383 161.747 115.771 162.226 112.62 164.02C112.019 164.363 112.559 165.289 113.162 164.959C116.332 163.155 119.989 162.775 123.568 162.59C127.518 162.385 131.47 162.238 135.417 162.064C136.108 162.034 136.122 160.962 135.417 160.992L135.413 160.98Z" fill="#151116"/>
<path d="M130.989 187.552C135.448 186.298 140.016 185.465 144.632 185.064C145.316 185.003 145.321 183.931 144.632 183.99C139.92 184.398 135.256 185.247 130.702 186.525C130.037 186.71 130.322 187.747 130.989 187.56V187.552Z" fill="#151116"/>
<path d="M138.553 188.817C141.055 188.084 143.654 187.728 146.262 187.762C146.953 187.762 146.953 186.697 146.262 186.687C143.561 186.655 140.87 187.024 138.278 187.783C137.616 187.978 137.897 189.012 138.564 188.817H138.553Z" fill="#151116"/>
<path d="M145.205 191.264C145.318 191.196 145.44 191.132 145.548 191.076C145.565 191.076 145.713 191.003 145.663 191.022L145.783 190.978C146.012 190.896 146.248 190.837 146.488 190.802C146.366 190.82 146.567 190.802 146.591 190.802H146.737C146.868 190.802 146.997 190.802 147.129 190.802L147.274 190.816C147.338 190.816 147.34 190.816 147.274 190.816L147.371 190.832C147.5 190.854 147.628 190.884 147.753 190.921C147.888 190.95 148.028 190.927 148.146 190.855C148.263 190.784 148.349 190.671 148.385 190.538C148.422 190.406 148.406 190.265 148.341 190.143C148.277 190.022 148.168 189.931 148.038 189.887C147.471 189.727 146.878 189.686 146.295 189.767C145.712 189.848 145.153 190.048 144.651 190.356C144.587 190.39 144.531 190.436 144.485 190.493C144.439 190.549 144.405 190.614 144.386 190.684C144.366 190.753 144.36 190.826 144.369 190.898C144.378 190.97 144.402 191.039 144.439 191.102C144.475 191.164 144.524 191.219 144.582 191.262C144.641 191.305 144.707 191.336 144.778 191.353C144.848 191.37 144.921 191.372 144.993 191.36C145.064 191.348 145.133 191.322 145.194 191.283L145.205 191.264Z" fill="#151116"/>
<path d="M74.0622 210.931C76.3139 213.699 78.9606 216.121 81.9174 218.12C82.4904 218.509 83.0282 217.581 82.4599 217.194C79.5822 215.236 77.0082 212.867 74.8207 210.162C74.3863 209.624 73.6301 210.396 74.0622 210.922V210.931Z" fill="#151116"/>
<path d="M83.9699 211.426C82.6736 211.22 81.8446 210.134 81.0767 209.137C80.1984 207.997 79.3014 206.829 77.9041 206.322C77.7668 206.285 77.6205 206.304 77.497 206.374C77.3735 206.445 77.2826 206.561 77.2442 206.697C77.2093 206.834 77.2289 206.98 77.299 207.103C77.369 207.226 77.4841 207.317 77.6199 207.356C78.8669 207.826 79.6724 209.078 80.4568 210.082C81.2881 211.152 82.2744 212.245 83.6834 212.467C83.8209 212.501 83.9661 212.481 84.0892 212.411C84.2124 212.342 84.3041 212.227 84.3456 212.092C84.3824 211.955 84.3636 211.809 84.2933 211.686C84.223 211.562 84.1068 211.471 83.9699 211.433V211.426Z" fill="#151116"/>
<path d="M86.3958 199.909C85.2255 198.347 83.7306 197.057 82.0138 196.126C81.4032 195.8 80.8608 196.727 81.4713 197.064C83.0305 197.898 84.392 199.057 85.4635 200.463C85.5381 200.583 85.6559 200.67 85.7926 200.706C85.9294 200.741 86.0747 200.723 86.1986 200.655C86.321 200.583 86.4099 200.465 86.446 200.328C86.482 200.19 86.4623 200.044 86.3911 199.921L86.3958 199.909Z" fill="#151116"/>
<path d="M100.794 163.755C97.9935 162.045 95.0388 160.601 91.9684 159.444C89.3852 158.472 85.851 158.006 84.1061 155.644C83.6999 155.093 82.7676 155.627 83.1785 156.183C84.9328 158.559 87.9058 159.146 90.543 160.065C93.9331 161.257 97.1873 162.804 100.251 164.681C100.843 165.042 101.383 164.116 100.794 163.743V163.755Z" fill="#151116"/>
<path d="M99.1192 155.22C94.6566 153.299 90.43 150.872 86.5227 147.986C85.9661 147.576 85.4283 148.505 85.9802 148.924C89.8875 151.81 94.1141 154.237 98.5767 156.158C99.2061 156.428 99.7509 155.504 99.1192 155.22Z" fill="#151116"/>
<path d="M96.5899 132.735C99.2013 134.764 102.198 136.108 105.298 137.206C108.766 138.435 112.298 139.5 115.799 140.628C116.459 140.839 116.739 139.805 116.086 139.594C112.779 138.529 109.454 137.508 106.171 136.375C103.055 135.301 99.9716 134.011 97.3485 131.978C96.8107 131.558 96.0451 132.313 96.5899 132.735Z" fill="#151116"/>
<path d="M100.04 127.077C106.983 129.792 113.962 132.413 120.977 134.942C121.63 135.176 121.917 134.14 121.264 133.907C114.249 131.379 107.269 128.757 100.326 126.043C99.6803 125.792 99.4009 126.829 100.04 127.077Z" fill="#151116"/>
<path d="M124.463 136.099L126.358 136.636C126.495 136.672 126.64 136.653 126.764 136.584C126.887 136.514 126.978 136.399 127.018 136.263C127.053 136.126 127.034 135.98 126.965 135.857C126.895 135.733 126.78 135.642 126.644 135.601L124.749 135.064C124.68 135.042 124.607 135.034 124.535 135.04C124.463 135.047 124.392 135.068 124.328 135.102C124.264 135.137 124.208 135.184 124.163 135.24C124.118 135.297 124.084 135.362 124.065 135.432C124.046 135.502 124.041 135.575 124.05 135.647C124.06 135.719 124.084 135.788 124.121 135.85C124.158 135.912 124.208 135.967 124.266 136.009C124.325 136.052 124.392 136.082 124.463 136.099Z" fill="#151116"/>
<path d="M122.934 120.301C127.976 120.35 131.949 123.803 136.521 125.417C137.174 125.651 137.461 124.61 136.808 124.38C132.111 122.724 128.119 119.278 122.934 119.22C122.243 119.22 122.243 120.287 122.934 120.294V120.301Z" fill="#151116"/>
<path d="M124.181 126.676C127.551 127.297 130.797 128.464 133.79 130.131C134.394 130.466 134.936 129.54 134.333 129.205C131.261 127.489 127.929 126.286 124.47 125.642C123.793 125.515 123.502 126.549 124.183 126.676H124.181Z" fill="#151116"/>
<path d="M21.882 76.1063L36.8174 69.1306C41.5141 66.9445 46.4292 64.7139 51.7295 65.0822C52.4175 65.1314 52.4152 64.0572 51.7295 64.0102C46.4668 63.6443 41.5329 65.76 36.8668 67.9297C31.6863 70.3362 26.5105 72.7529 21.3395 75.1798C20.7125 75.473 21.2573 76.3971 21.882 76.118V76.1063Z" fill="#151116"/>
<path d="M28.3328 80.5349L35.5916 76.714C36.6766 76.0993 37.8044 75.5632 38.9661 75.1096C40.1215 74.6968 41.3286 74.4881 42.5169 74.2042C44.6116 73.7046 46.2742 72.7312 48.0049 71.4811C49.6183 70.3083 51.3067 69.0487 53.4061 69.1636C54.0966 69.2035 54.0942 68.1293 53.4061 68.0917C51.403 67.9791 49.6958 68.9737 48.113 70.0925C46.2343 71.4318 44.5317 72.621 42.2421 73.1699C41.0538 73.4537 39.8444 73.6601 38.6914 74.0752C37.5507 74.5128 36.4419 75.0293 35.3732 75.621L27.7998 79.6084C27.1868 79.9297 27.7293 80.8562 28.3422 80.5466L28.3328 80.5349Z" fill="#151116"/>
<path d="M34.4057 86.234C38.5963 83.3263 43.1063 80.9071 47.8477 79.0238C48.4841 78.7728 48.207 77.7337 47.5635 77.9894C42.7321 79.8976 38.1354 82.3522 33.8633 85.3052C33.2996 85.6969 33.8351 86.6281 34.4057 86.2434V86.234Z" fill="#151116"/>
<path d="M72.82 26.6294C75.0838 23.3644 79.2099 21.6099 82.6948 19.9727C86.645 18.1247 90.7333 16.5868 94.9227 15.3731C95.5849 15.1807 95.3031 14.144 94.6362 14.3387C90.2527 15.6136 85.9777 17.2348 81.8517 19.1869C78.2541 20.8945 74.2267 22.7053 71.8924 26.0899C71.4979 26.6575 72.4278 27.1947 72.82 26.6294Z" fill="#151116"/>
<path d="M78.7378 32.6033C82.2235 30.2214 86.062 28.4009 90.1132 27.2086C90.7731 27.0139 90.4913 25.9772 89.8267 26.1742C85.6869 27.3909 81.7637 29.2484 78.2001 31.6792C77.6341 32.0662 78.1695 32.9951 78.7425 32.6057L78.7378 32.6033Z" fill="#151116"/>
<path d="M82.6784 34.9841C85.1394 33.2881 87.9369 32.1409 90.8811 31.6206C91.5598 31.4986 91.2733 30.4642 90.5946 30.5838C87.561 31.1268 84.6786 32.3112 82.1406 34.0576C81.5747 34.447 82.1101 35.3782 82.6831 34.9958L82.6784 34.9841Z" fill="#151116"/>
<path d="M101.042 58.2337C107.39 58.1844 113.725 58.7754 119.954 59.9975C122.969 60.5902 125.949 61.3306 128.894 62.2188C131.78 63.089 134.607 64.1374 137.167 65.7535C137.752 66.1217 138.292 65.1953 137.71 64.827C135.166 63.2203 132.348 62.1554 129.49 61.2758C126.447 60.3481 123.358 59.5762 120.235 58.9631C113.913 57.718 107.481 57.1145 101.038 57.1618C100.347 57.1618 100.345 58.2407 101.038 58.2337H101.042Z" fill="#151116"/>
<path d="M108.625 72.8792C114.372 73.5149 120.233 73.8644 125.691 75.9284C127.548 76.6321 129.11 77.8049 131.08 78.2107C131.754 78.3537 132.043 77.3193 131.367 77.1763C129.359 76.7564 127.729 75.5344 125.822 74.8307C120.308 72.7901 114.416 72.4359 108.625 71.7979C107.939 71.7205 107.944 72.7948 108.625 72.8698V72.8792Z" fill="#151116"/>
<path d="M109.283 77.3047C111.345 77.6777 113.392 78.1421 115.442 78.583C117.293 78.9794 119.169 79.2867 121.013 79.7136C122.149 79.9934 123.254 80.3863 124.312 80.8864C126.073 81.6862 127.849 82.4415 129.657 83.1334C130.303 83.3821 130.582 82.3453 129.941 82.099C127.078 81.0013 124.305 79.3829 121.299 78.6839C119.456 78.2547 117.579 77.9497 115.727 77.551C113.676 77.1124 111.631 76.648 109.567 76.2727C108.893 76.1507 108.602 77.1851 109.283 77.3094V77.3047Z" fill="#151116"/>
<path d="M109.903 81.8949C112.972 83.0676 116.321 83.138 119.475 83.9918C122.495 84.8104 124.944 86.8697 128.142 87.0855C128.833 87.1301 128.83 86.0582 128.142 86.0113C125.01 85.8002 122.492 83.6657 119.496 82.8894C116.422 82.1013 113.172 82.0004 110.187 80.8605C109.541 80.6118 109.262 81.6486 109.903 81.8949Z" fill="#151116"/>
<path d="M96.2024 117.09C98.4329 108.607 103.484 101.134 110.527 95.8959C111.077 95.4901 110.541 94.559 109.987 94.9694C102.705 100.355 97.478 108.058 95.1668 116.809C94.993 117.477 96.0286 117.761 96.2024 117.093V117.09Z" fill="#151116"/>
<path d="M240.844 219.418C241.097 218.394 241.563 217.435 242.211 216.603C242.892 215.74 243.721 215.008 244.47 214.206C245.909 212.661 247.141 210.935 248.134 209.071C248.46 208.464 247.532 207.92 247.194 208.53C246.159 210.476 244.854 212.266 243.317 213.847C242.566 214.619 241.781 215.357 241.142 216.23C240.513 217.099 240.056 218.081 239.797 219.122C239.625 219.791 240.661 220.077 240.832 219.406L240.844 219.418Z" fill="#151116"/>
<path d="M249.23 210.994C248.873 212.8 247.607 214.222 246.647 215.735C246.274 216.319 247.204 216.858 247.586 216.277C248.598 214.682 249.902 213.185 250.278 211.28C250.311 211.143 250.29 210.998 250.221 210.875C250.151 210.753 250.037 210.661 249.902 210.619C249.765 210.582 249.618 210.601 249.495 210.671C249.371 210.742 249.28 210.858 249.242 210.994H249.23Z" fill="#151116"/>
<path d="M83.566 223.825C86.3982 225.652 88.6502 228.157 90.8037 230.714C91.1841 231.166 91.5669 231.614 92.1986 231.638C92.9782 231.668 93.8424 231.188 94.5681 230.934L100.073 229.025C100.723 228.802 100.444 227.763 99.7884 227.991L94.8733 229.696L93.6851 230.099C93.3375 230.221 92.8937 230.47 92.5273 230.498C91.7547 230.559 91.1348 229.433 90.6721 228.898C88.7277 226.642 86.6259 224.514 84.1085 222.891C83.5261 222.516 82.9883 223.445 83.566 223.83V223.825Z" fill="#151116"/>
<path d="M106.984 213.914C105.716 211.882 104.352 209.92 102.893 208.029C102.818 207.91 102.701 207.824 102.565 207.789C102.428 207.753 102.284 207.77 102.16 207.837C102.038 207.909 101.949 208.027 101.913 208.165C101.877 208.302 101.896 208.448 101.968 208.571C103.424 210.466 104.786 212.428 106.056 214.456C106.422 215.04 107.352 214.501 106.984 213.914Z" fill="#151116"/>
<path d="M49.3952 184.421C49.8202 178.682 54.1389 173.615 59.7115 172.224L59.0516 171.565C58.0043 174.253 56.9827 177.106 57.6614 180.009C58.2391 182.486 59.8477 184.548 61.3507 186.535C62.1679 187.614 63.537 188.962 63.1706 190.424C62.8348 191.751 62.0786 193.004 61.6865 194.324C60.8682 197.135 60.6285 200.083 60.982 202.989C61.0618 203.667 62.1374 203.676 62.0552 202.989C61.7008 200.074 61.9624 197.118 62.8231 194.31C63.227 193.011 64.0325 191.768 64.2767 190.435C64.5115 189.178 63.8634 188.132 63.1518 187.152C61.6301 185.052 59.7773 183.033 58.9389 180.532C57.9408 177.561 59.014 174.624 60.0966 171.854C60.254 171.453 59.7984 171.101 59.4367 171.192C53.378 172.712 48.7917 178.229 48.3314 184.431C48.2797 185.118 49.3553 185.116 49.4046 184.431L49.3952 184.421Z" fill="#151116"/>
<path d="M54.2704 177.941C53.8008 180.242 54.4113 182.576 55.5409 184.596C56.6704 186.615 58.2438 188.281 59.1597 190.399C59.4344 191.03 60.3597 190.485 60.099 189.857C59.2606 187.917 57.8728 186.338 56.7738 184.553C55.6184 182.677 54.874 180.43 55.3178 178.22C55.454 177.547 54.4184 177.259 54.2822 177.937L54.2704 177.941Z" fill="#151116"/>
<path d="M51.1682 183.171C50.8019 185.517 51.4571 187.837 52.643 189.856C53.8289 191.876 55.5244 193.569 56.5342 195.72C56.8277 196.346 57.753 195.802 57.4618 195.181C56.5342 193.203 55.0477 191.618 53.8712 189.8C52.6946 187.982 51.8539 185.693 52.2038 183.467C52.3095 182.791 51.2645 182.5 51.1682 183.181V183.171Z" fill="#151116"/>
<path d="M63.7342 218.395C65.0487 216.688 66.747 215.314 68.6916 214.384C69.2341 214.124 71.6458 212.944 71.836 213.854C71.93 214.309 71.681 214.902 71.6012 215.348C71.4955 215.902 71.4063 216.455 71.3311 217.013C70.7534 221.315 71.1738 225.772 73.231 229.649C73.555 230.259 74.4826 229.717 74.1586 229.107C72.9206 226.71 72.2429 224.063 72.1765 221.367C72.1307 220.054 72.1896 218.739 72.3527 217.436C72.4936 216.263 72.9562 215.031 72.9139 213.854C72.82 211.239 69.4642 212.829 68.1562 213.457C66.0528 214.481 64.2214 215.986 62.8113 217.851C62.3886 218.397 63.3209 218.932 63.7389 218.39L63.7342 218.395Z" fill="#151116"/>
<path d="M243.993 78.7097C253.62 66.0234 267.287 56.9917 282.741 53.1033C291.759 50.861 302.378 50.8446 309.12 57.2362C311.436 59.4316 318.528 65.319 319.333 65.9147C321.836 67.7654 288.133 70.8521 280.033 80.1218C278.587 81.7754 274.484 86.3445 274.484 86.3445C274.484 86.3445 267.996 81.773 264.314 79.6972C254.697 74.2813 251.226 75.4682 243.993 78.7097Z" fill="white"/>
<path d="M244.463 78.9792C252.203 68.8071 262.597 60.9585 274.506 56.293C285.155 52.132 299.633 49.1719 308.916 57.7989C311.948 60.6135 315.162 63.2687 318.387 65.8629C318.561 66.0012 318.732 66.1631 318.92 66.2851C319.108 66.407 318.92 66.3343 318.92 66.1138C318.92 65.8934 319.033 65.9731 318.948 65.959C319.011 65.9708 318.859 66.0177 318.73 66.0787C317.905 66.4195 317.05 66.6841 316.177 66.8691C308.697 68.7455 301.096 70.0356 293.729 72.3741C290.03 73.5469 286.273 74.9167 282.981 77.0042C279.834 79.0026 277.579 82.0847 275.123 84.829C274.78 85.209 274.44 85.5913 274.099 85.9713L274.75 85.8868C271.603 83.6703 268.409 81.4725 265.089 79.5304C260.833 77.0512 255.998 74.7408 250.952 75.6555C248.429 76.1106 246.055 77.213 243.733 78.2521C243.103 78.5359 243.648 79.46 244.275 79.1903C246.318 78.2755 248.387 77.3373 250.583 76.8447C252.591 76.3827 254.681 76.4133 256.674 76.9339C261.651 78.2145 266.108 81.3013 270.321 84.1324C271.626 85.0096 272.924 85.9001 274.214 86.804C274.317 86.8635 274.436 86.8875 274.554 86.8723C274.672 86.857 274.781 86.8033 274.865 86.7195C276.039 85.4123 277.213 84.1034 278.387 82.7931C279.561 81.4678 280.675 80.0441 282.079 78.944C285.174 76.5164 289.044 75.0598 292.738 73.8213C300.429 71.2412 308.406 69.8925 316.261 67.9574C316.947 67.7862 320.723 67.16 319.901 65.7409C319.709 65.4125 319.354 65.2507 319.037 64.995C318.307 64.4063 317.584 63.8058 316.863 63.2054C314.984 61.6479 313.126 60.0787 311.297 58.4744C309.418 56.8325 307.683 55.1367 305.466 53.9521C302.844 52.5988 299.994 51.7438 297.059 51.4307C290.812 50.6778 284.462 51.8623 278.507 53.7457C266.097 57.6945 255.016 64.9822 246.48 74.8088C245.461 75.9816 244.489 77.2013 243.55 78.4421C243.117 78.9886 244.05 79.514 244.463 78.9792Z" fill="#151116"/>
<path d="M51.6191 45.7646C45.1917 33.169 35.7677 23.9674 25.3974 20.1582C19.2917 17.9159 12.1011 17.9018 7.53589 24.2935C5.9672 26.4889 1.17422 32.3692 0.622356 32.9673C-1.07315 34.818 21.7457 37.907 27.2291 47.1767C28.2084 48.8303 30.9865 53.3994 30.9865 53.3994C30.9865 53.3994 35.3803 48.8279 37.8742 46.7498C44.3838 41.3362 46.7322 42.5231 51.6191 45.7646Z" fill="white"/>
<path d="M52.0841 45.5043C47.5893 36.7436 41.2394 28.6421 32.8628 23.2989C26.0925 18.9714 16.2365 15.4812 9.34648 21.4811C7.86937 22.7665 6.81026 24.4177 5.6173 25.9377C4.42434 27.4576 3.26895 28.9095 2.06895 30.3801C1.62902 30.9243 1.18675 31.4653 0.742131 32.0033C0.502346 32.24 0.286797 32.5001 0.0986838 32.7796C-0.192511 33.3402 0.206708 33.8164 0.659939 34.1166C1.32922 34.5623 2.14409 34.8203 2.89557 35.0923C4.06974 35.5122 5.26505 35.8875 6.45331 36.2651C9.60245 37.2761 12.7516 38.3081 15.7974 39.6028C18.8784 40.9093 22.0088 42.4668 24.5004 44.7396C26.8487 46.8858 28.2577 49.9444 29.9016 52.6324L30.5286 53.6644C30.5706 53.7345 30.628 53.7941 30.6963 53.8389C30.7647 53.8837 30.8424 53.9125 30.9234 53.9231C31.0045 53.9337 31.0869 53.9258 31.1645 53.9001C31.2422 53.8744 31.313 53.8316 31.3716 53.7747C34.0628 50.9764 36.8034 48.075 39.9595 45.7998C41.6762 44.559 43.7357 43.2994 45.9455 43.5856C47.9416 43.8436 49.724 45.1477 51.3467 46.2267C51.9244 46.609 52.4622 45.6802 51.8892 45.2885C49.2167 43.5223 46.3588 41.7185 43.0617 42.8491C39.2809 44.1438 36.2092 47.3971 33.4335 50.1438C32.4801 51.082 31.5407 52.0358 30.6155 53.0053L31.4585 53.1156C30.0495 50.7935 28.7744 48.3025 27.1845 46.1C25.4303 43.6747 22.8565 41.932 20.2522 40.527C14.9168 37.6678 9.08111 36.122 3.40751 34.1377C2.703 33.8891 1.91631 33.6498 1.27755 33.2394C1.16249 33.1643 1.16249 33.1174 1.0709 33.0869C0.979314 33.0564 1.10378 33.0142 1.0709 33.1878C1.0709 33.2276 0.991056 33.3379 1.03333 33.3168C1.15074 33.2534 1.26816 33.0353 1.35975 32.9344C3.44743 30.4599 5.48579 27.9267 7.43257 25.3372C8.70068 23.6507 9.97818 22.0933 11.824 21.005C13.6343 19.9638 15.6769 19.3921 17.7653 19.342C21.9642 19.1989 26.0644 20.7329 29.7137 22.6867C38.0738 27.1644 44.6069 34.5623 49.3248 42.6755C49.9659 43.7779 50.5741 44.8991 51.1588 46.0367C51.4711 46.6512 52.3987 46.1094 52.0841 45.5043Z" fill="#151116"/>
<path d="M12.6201 32.0713C15.4381 29.4513 17.2064 24.9807 21.309 24.0824C21.9853 23.9346 21.6988 22.9096 21.0248 23.048C16.6686 24.0026 14.8534 28.5319 11.8663 31.3114C11.359 31.7805 12.1199 32.5404 12.6271 32.0713H12.6201Z" fill="#151116"/>
<path d="M20.0691 32.4017C23.2018 30.0561 26.1466 26.0382 30.4957 26.3032C31.1861 26.3455 31.1838 25.2712 30.4957 25.2313C25.8624 24.9545 22.8612 28.9842 19.5266 31.4822C18.9818 31.8927 19.5148 32.8239 20.0691 32.4087V32.4017Z" fill="#151116"/>
<path d="M29.8053 30.6188C31.0039 29.7624 32.403 29.2285 33.868 29.0684C34.0093 29.0643 34.1437 29.0064 34.2436 28.9065C34.3436 28.8067 34.4016 28.6724 34.4057 28.5313C34.4045 28.3892 34.3475 28.2533 34.2469 28.1528C34.1463 28.0523 34.0102 27.9954 33.868 27.9941C32.2126 28.1568 30.6269 28.7416 29.2629 29.6923C29.1432 29.7672 29.0566 29.8848 29.0208 30.0213C28.985 30.1577 29.0027 30.3026 29.0703 30.4265C29.1428 30.5488 29.2606 30.6376 29.3982 30.6736C29.5358 30.7096 29.6821 30.6899 29.8053 30.6188Z" fill="#151116"/>
<path d="M33.5979 31.8388C33.9361 31.6512 34.2828 31.4784 34.6382 31.3204C34.6523 31.3204 34.7979 31.2524 34.7228 31.2829C34.6476 31.3134 34.7932 31.2548 34.8073 31.2501L35.068 31.1469C35.2558 31.0765 35.4437 31.0085 35.6363 30.9475C35.7681 30.9048 35.8783 30.813 35.944 30.6911C36.0096 30.5692 36.0257 30.4267 35.9887 30.2933C35.9518 30.1599 35.8647 30.0459 35.7457 29.9751C35.6266 29.9043 35.4848 29.8821 35.3498 29.9131C34.5546 30.1717 33.7863 30.5063 33.0554 30.9123C32.9309 30.9842 32.84 31.1025 32.8028 31.2413C32.7656 31.3801 32.7851 31.5279 32.857 31.6523C32.9289 31.7768 33.0474 31.8675 33.1863 31.9047C33.3253 31.9419 33.4733 31.9224 33.5979 31.8505V31.8388Z" fill="#151116"/>
<path d="M72.9562 251C72.704 251.002 72.4555 250.941 72.2326 250.823C72.0097 250.705 71.8195 250.534 71.6787 250.325L64.6524 239.974C64.4692 239.707 64.8591 239.864 65.1221 239.681C65.3851 239.498 65.6293 239.503 65.8125 239.77L72.6438 249.666C72.6791 249.718 72.7268 249.76 72.7827 249.788C72.8385 249.816 72.9006 249.83 72.9632 249.828L91.9426 249.291C92.0107 249.28 92.0802 249.286 92.1459 249.306C92.2116 249.327 92.2718 249.362 92.3218 249.409C92.3718 249.457 92.4104 249.515 92.4346 249.579C92.4588 249.643 92.4681 249.712 92.4616 249.781C92.4733 250.104 92.6541 250.266 92.3301 250.278L73.0031 251H72.9562Z" fill="#151116"/>
<path d="M74.586 248.434C74.3514 248.434 74.1202 248.377 73.9121 248.269C73.704 248.161 73.5251 248.004 73.3907 247.812L68.7362 241.141C68.5507 240.874 68.8983 240.94 69.1636 240.754C69.429 240.569 69.476 240.264 69.6615 240.52L74.3582 247.13C74.3863 247.168 74.4235 247.2 74.4664 247.221C74.5094 247.242 74.5568 247.253 74.6048 247.251L84.5829 246.89C84.9069 246.869 84.867 247.05 84.8811 247.373C84.8849 247.45 84.8734 247.527 84.8473 247.6C84.8213 247.672 84.7811 247.739 84.7291 247.796C84.6772 247.853 84.6145 247.899 84.5447 247.931C84.4748 247.964 84.3992 247.982 84.3222 247.986L74.6588 248.422L74.586 248.434Z" fill="#151116"/>
<path d="M74.222 248.061C74.076 248.062 73.9351 248.007 73.8275 247.909C73.7123 247.804 73.6434 247.658 73.6359 247.503C73.6284 247.348 73.683 247.196 73.7876 247.081L76.5868 244.046C76.8052 243.811 77.0564 243.891 77.2913 244.109C77.5261 244.327 77.7915 244.32 77.5731 244.559L74.6564 247.869C74.6018 247.93 74.5348 247.978 74.4599 248.012C74.385 248.045 74.3039 248.062 74.222 248.061Z" fill="#151116"/>
</g>
<defs>
<clipPath id="clip0_1437_6722">
<rect width="320" height="251" fill="white"/>
</clipPath>
</defs>
</svg>
