<svg width="28" height="14" viewBox="0 0 28 14" fill="none" xmlns="http://www.w3.org/2000/svg">
<g clip-path="url(#clip0_434_904)">
<path d="M17.4487 12.071C17.1842 12.0216 16.921 11.9604 16.6616 11.9036C16.2885 11.8062 15.92 11.7053 15.5524 11.5966C15.3893 11.5465 15.2261 11.4964 15.0675 11.4428C14.9089 11.3892 14.66 11.3136 14.4828 11.238L13.8358 10.9864C13.6702 10.9201 13.5059 10.8419 13.3408 10.7716C13.1756 10.7013 13.0271 10.6329 12.8754 10.5561C12.7236 10.4794 12.5402 10.3831 12.3722 10.3005C12.1187 10.1526 11.8559 10.0115 11.6121 9.85265C11.4355 9.7332 11.2585 9.61768 11.0815 9.50217C10.9045 9.38666 10.8435 9.32797 10.7264 9.24307C10.6093 9.15817 10.4839 9.07235 10.3718 8.98003L9.87326 8.56922C9.6603 8.3978 9.45787 8.20759 9.25039 8.02481C7.97985 6.81742 6.72906 5.58428 5.54318 4.29847C5.24929 3.9823 4.95956 3.66659 4.67488 3.34345C4.39021 3.02032 4.12834 2.71968 3.85572 2.40188C3.5831 2.08408 3.28592 1.75955 2.98786 1.44292C2.89377 1.34062 2.79508 1.2418 2.69265 1.13857C2.88566 1.22393 3.09533 1.31113 3.27715 1.38326C3.82722 1.59617 4.38956 1.77451 4.95016 1.96863C5.05074 2.00358 5.16115 2.001 5.25885 1.96141C5.35655 1.92183 5.43417 1.84822 5.47588 1.7556C5.48339 1.72461 5.48693 1.69283 5.48641 1.66095C5.50009 1.57389 5.48275 1.48464 5.43713 1.40727C5.3915 1.3299 5.32018 1.26882 5.23441 1.23365C4.66877 1.04695 4.1005 0.883923 3.54495 0.682382C3.27277 0.588223 2.99774 0.481768 2.73477 0.380647C2.4718 0.279527 2.09632 0.165892 1.7704 0.0617622C1.74845 0.0573346 1.72612 0.0548517 1.70373 0.0543457L1.70373 0.0543457C1.65056 0.0466196 1.59636 0.0515694 1.54603 0.0687465C1.4745 0.0795916 1.40738 0.107898 1.35127 0.150893C1.30077 0.187571 1.25892 0.233826 1.22835 0.286761C1.19778 0.339697 1.17915 0.398175 1.17361 0.458535C1.17514 1.16542 1.1679 1.87532 1.19859 2.58545C1.22929 3.29557 1.30297 4.07437 1.37183 4.82068C1.39337 4.93572 1.46204 5.03854 1.56279 5.10662C1.66354 5.1747 1.78817 5.20249 1.90939 5.18392C2.02607 5.1652 2.13056 5.10558 2.20219 5.01686C2.24792 4.9576 2.27608 4.8877 2.28378 4.81432C2.29241 4.77411 2.29697 4.73317 2.29738 4.69205C2.2487 3.9919 2.19585 3.29129 2.17261 2.58998L2.18314 2.49532L2.18797 2.45194L2.17481 2.57026C2.16998 2.38606 2.17394 2.19884 2.17328 2.0151C2.6275 2.5208 3.06614 3.05271 3.51772 3.58207C4.0737 4.23483 4.63978 4.87275 5.2451 5.49907C5.85043 6.12538 6.56367 6.84356 7.24006 7.51371C7.53285 7.80181 7.83398 8.09085 8.13599 8.37199C8.31189 8.53529 8.48318 8.70208 8.66412 8.85796C8.84506 9.01384 9.001 9.16693 9.17865 9.31446C9.3563 9.46199 9.56598 9.62506 9.76819 9.77931C9.83794 9.83498 9.90856 9.88277 9.97918 9.93055L10.37 10.2096C10.5499 10.3374 10.7398 10.4504 10.9293 10.5673C11.1188 10.6842 11.2892 10.783 11.4721 10.8832C11.655 10.9834 11.8687 11.111 12.1057 11.2172C12.3428 11.3234 12.5058 11.4134 12.7034 11.4953C12.901 11.5771 13.171 11.691 13.4094 11.7854C13.498 11.8232 13.5921 11.8497 13.6853 11.884C13.7785 11.9183 13.9733 11.9879 14.1156 12.0357C14.3303 12.1154 14.5519 12.172 14.7679 12.24C14.9839 12.3079 15.1767 12.3573 15.3899 12.413C15.8325 12.5301 16.2847 12.6363 16.735 12.7223C17.1853 12.8083 17.6281 12.8855 18.0736 12.9391C18.3027 12.9646 18.5319 12.9901 18.757 13.0151L19.1763 13.0378C19.268 13.048 19.3638 13.0586 19.4597 13.0693L20.2203 13.0581C20.4863 13.0557 20.7509 13.0293 21.0187 13.0111C21.2864 12.993 21.4755 12.9621 21.7021 12.9354C21.9286 12.9087 22.0618 12.8876 22.2374 12.8632C23.1836 12.7262 24.129 12.5839 25.0735 12.4361C25.3328 12.381 25.5815 12.3448 25.8122 12.3186C25.8719 12.3091 25.9261 12.2807 25.9661 12.238C26.0061 12.1953 26.0294 12.1409 26.0324 12.0835L26.0395 12.0204C26.0338 11.9877 26.0214 11.9563 26.003 11.9281C25.9845 11.8998 25.9604 11.8752 25.932 11.8557C25.9035 11.8362 25.8714 11.8222 25.8374 11.8145C25.8033 11.8067 25.7681 11.8055 25.7337 11.8108C24.8275 11.9176 23.919 12.0441 23.0128 12.1509C22.5596 12.2043 22.1094 12.27 21.6543 12.3033C21.4286 12.3221 21.202 12.3488 20.9739 12.3514L20.3008 12.3723C20.019 12.3649 19.7358 12.3694 19.4599 12.3467L18.8515 12.279C18.7223 12.2646 18.5931 12.2502 18.464 12.2359C18.1148 12.189 17.7836 12.1322 17.4487 12.071Z" fill="#6E6870"/>
</g>
<defs>
<clipPath id="clip0_434_904">
<rect width="11" height="26" fill="white" transform="translate(27.0567 2.87451) rotate(96.3472)"/>
</clipPath>
</defs>
</svg>
