<svg width="16" height="16" viewBox="0 0 16 16" fill="none" xmlns="http://www.w3.org/2000/svg">
<g clip-path="url(#clip0_1437_6908)">
<path d="M6.21956 0C2.78545 0 0.000976562 2.78447 0.000976562 6.21861C0.000976562 9.65275 2.78545 12.4372 6.21959 12.4372C7.54015 12.4372 8.76482 12.0253 9.77152 11.3237L9.77225 11.323L14.3842 15.935C14.4698 16.0206 14.6059 16.0228 14.6937 15.935L15.9367 14.692C16.0223 14.6064 16.0179 14.4645 15.936 14.3826L11.3247 9.77127C12.0263 8.76385 12.4382 7.53914 12.4382 6.21861C12.4382 2.78447 9.6537 0 6.21956 0ZM6.21956 10.974C3.59311 10.974 1.46416 8.84507 1.46416 6.21861C1.46416 3.59216 3.59313 1.46321 6.21956 1.46321C8.84599 1.46321 10.975 3.59216 10.975 6.21861C10.975 8.84507 8.84602 10.974 6.21956 10.974Z" fill="#151116"/>
</g>
<defs>
<clipPath id="clip0_1437_6908">
<rect width="16" height="16" fill="white"/>
</clipPath>
</defs>
</svg>
