<svg width="8" height="14" viewBox="0 0 8 14" fill="none" xmlns="http://www.w3.org/2000/svg">
<path d="M2.46688 7.83197C2.41888 7.83197 1.36288 7.83197 0.882875 7.83197C0.626875 7.83197 0.546875 7.73597 0.546875 7.49597C0.546875 6.85597 0.546875 6.19997 0.546875 5.55997C0.546875 5.30397 0.642875 5.22397 0.882875 5.22397H2.46688C2.46688 5.17597 2.46688 4.24797 2.46688 3.81597C2.46688 3.17597 2.57887 2.56797 2.89887 2.00797C3.23487 1.43197 3.71487 1.04797 4.32288 0.823967C4.72288 0.679967 5.12288 0.615967 5.55487 0.615967H7.12287C7.34687 0.615967 7.44287 0.711967 7.44287 0.935967V2.75997C7.44287 2.98397 7.34687 3.07997 7.12287 3.07997C6.69087 3.07997 6.25887 3.07997 5.82687 3.09597C5.39488 3.09597 5.17088 3.30397 5.17088 3.75197C5.15487 4.23197 5.17088 4.69597 5.17088 5.19197H7.02688C7.28288 5.19197 7.37887 5.28797 7.37887 5.54397V7.47997C7.37887 7.73597 7.29887 7.81597 7.02688 7.81597C6.45087 7.81597 5.21887 7.81597 5.17088 7.81597V13.032C5.17088 13.304 5.09088 13.4 4.80288 13.4C4.13088 13.4 3.47487 13.4 2.80288 13.4C2.56288 13.4 2.46688 13.304 2.46688 13.064C2.46688 11.384 2.46688 7.87997 2.46688 7.83197Z" fill="white"/>
</svg>
