<svg width="16" height="16" viewBox="0 0 16 16" fill="none" xmlns="http://www.w3.org/2000/svg">
<path d="M8 2.77246C4.47095 2.77246 1.42938 4.85281 0.0321837 7.85491C-0.0107279 7.94588 -0.0107279 8.0523 0.0321837 8.14499C1.42938 11.1471 4.47097 13.2274 8 13.2274C11.529 13.2274 14.5706 11.1471 15.9678 8.14499C16.0107 8.05402 16.0107 7.94759 15.9678 7.85491C14.5706 4.85281 11.529 2.77246 8 2.77246ZM8 11.6071C6.00719 11.6071 4.39371 9.9919 4.39371 8.0008C4.39371 6.00799 6.0089 4.39452 8 4.39452C9.99281 4.39452 11.6063 6.00971 11.6063 8.0008C11.6063 9.9919 9.9911 11.6071 8 11.6071Z" fill="#FF522F"/>
<path d="M8.00005 10.3077C9.27507 10.3077 10.3087 9.27411 10.3087 7.99908C10.3087 6.72405 9.27507 5.69043 8.00005 5.69043C6.72502 5.69043 5.69141 6.72405 5.69141 7.99908C5.69141 9.27411 6.72502 10.3077 8.00005 10.3077Z" fill="#FF522F"/>
</svg>
