<svg width="10" height="10" viewBox="0 0 10 10" fill="none" xmlns="http://www.w3.org/2000/svg">
<path d="M8.53536 8.53547C10.4879 6.58288 10.4879 3.41712 8.53536 1.46453C6.58277 -0.488051 3.41701 -0.488052 1.46442 1.46453C-0.488162 3.41712 -0.488162 6.58288 1.46442 8.53547C3.41701 10.4881 6.58277 10.4881 8.53536 8.53547Z" fill="#FFBD00"/>
<path d="M4.85428 3.65435C4.93769 3.65516 5.02039 3.6391 5.09743 3.60713C5.17447 3.57516 5.24425 3.52795 5.30257 3.46832C5.36232 3.41081 5.40967 3.34167 5.44169 3.26518C5.47372 3.18868 5.48975 3.10643 5.4888 3.0235C5.4888 2.83966 5.42672 2.68791 5.30257 2.56827C5.1828 2.45146 5.02156 2.38698 4.85428 2.38899C4.77145 2.3877 4.68925 2.40359 4.61286 2.43564C4.53647 2.46769 4.46755 2.51521 4.41043 2.57521C4.35043 2.63326 4.30295 2.70298 4.27092 2.78008C4.23889 2.85718 4.22299 2.94003 4.22421 3.0235C4.22281 3.10649 4.23864 3.18887 4.27069 3.26543C4.30275 3.34199 4.35033 3.41108 4.41043 3.46832C4.46783 3.52795 4.53681 3.5752 4.61314 3.6072C4.68946 3.63919 4.77153 3.65524 4.85428 3.65435Z" fill="white"/>
<path d="M6.20681 6.682H5.78939C5.78939 6.682 5.58599 6.68509 5.57904 6.49636C5.55975 6.24799 5.54276 6.04382 5.54045 5.98515L5.51633 5.37823C5.51401 5.34144 5.51285 5.29313 5.51285 5.2333C5.51285 5.10015 5.51169 4.99562 5.50938 4.91971C5.50706 4.89205 5.5059 4.86098 5.5059 4.8265L5.51633 4.56791V3.96118C4.91848 4.24422 4.38862 4.4235 3.92675 4.49902L3.83355 4.92994C3.91536 4.94599 3.99854 4.95407 4.08191 4.95406C4.18812 4.95503 4.29351 4.93537 4.39222 4.89617L4.40592 5.76149C4.40592 5.97377 4.41171 6.24201 4.41731 6.51102C4.42155 6.68567 4.24691 6.68258 4.24691 6.68258H3.79321V7.61101H4.41538H4.41982H6.20681V6.682Z" fill="white"/>
</svg>
