<svg id="Layer_1" enable-background="new 0 0 512 512" height="512" viewBox="0 0 512 512" width="512" xmlns="http://www.w3.org/2000/svg"><path d="m256 0c-141.159 0-256 114.841-256 256s114.841 256 256 256 256-114.841 256-256-114.841-256-256-256zm0 488c-127.925 0-232-104.075-232-232s104.075-232 232-232 232 104.075 232 232-104.075 232-232 232zm0-386.5c-64.335 0-116.676 52.34-116.676 116.675 0 47.923 57.352 125.555 107.316 187.834 2.277 2.839 5.72 4.491 9.36 4.491s7.083-1.652 9.36-4.491l1.548-1.929c52.302-65.164 105.768-138.209 105.768-185.905 0-64.335-52.341-116.675-116.676-116.675zm.011 277.787c-30.959-39.027-92.687-120.202-92.687-161.112 0-51.101 41.574-92.675 92.676-92.675s92.676 41.574 92.676 92.675c0 41.846-61.251 121.677-92.665 161.112zm-.011-232.249c-39.226 0-71.138 31.912-71.138 71.138s31.913 71.138 71.138 71.138 71.138-31.912 71.138-71.138-31.912-71.138-71.138-71.138zm0 118.275c-25.992 0-47.138-21.146-47.138-47.138s21.146-47.138 47.138-47.138 47.138 21.146 47.138 47.138-21.146 47.138-47.138 47.138z"/></svg>