<?xml version="1.0"?>
<svg xmlns="http://www.w3.org/2000/svg" xmlns:xlink="http://www.w3.org/1999/xlink" xmlns:svgjs="http://svgjs.com/svgjs" version="1.1" width="512" height="512" x="0" y="0" viewBox="0 0 512 512" style="enable-background:new 0 0 512 512" xml:space="preserve" class=""><g><path xmlns="http://www.w3.org/2000/svg" d="m256 104a118.109 118.109 0 0 0 -84.114 34.712c-41.591 41.591-48.15 91.441-19.493 148.167 22.965 45.46 64 86.484 93.955 116.439l1.167 1.167a12 12 0 0 0 16.97 0l1.167-1.167c29.959-29.955 70.99-70.979 93.955-116.439 28.657-56.726 22.1-106.576-19.493-148.167a118.112 118.112 0 0 0 -84.114-34.712zm82.186 172.057c-19.486 38.568-54.317 74.967-82.186 102.962-27.869-28-62.7-64.394-82.186-102.962-23.789-47.089-18.869-86.464 15.042-120.374a95.269 95.269 0 0 1 134.288 0c33.911 33.91 38.831 73.285 15.042 120.374zm-82.186-102.173a55.695 55.695 0 1 0 55.694 55.7 55.758 55.758 0 0 0 -55.694-55.7zm0 87.389a31.695 31.695 0 1 1 31.694-31.694 31.73 31.73 0 0 1 -31.694 31.694zm0-261.273c-141.159 0-256 114.841-256 256s114.841 256 256 256 256-114.841 256-256-114.841-256-256-256zm0 488c-127.925 0-232-104.075-232-232s104.075-232 232-232 232 104.075 232 232-104.075 232-232 232z" fill="#bdbcba" data-original="#000000"/></g></svg>
