<?xml version="1.0"?>
<svg xmlns="http://www.w3.org/2000/svg" xmlns:xlink="http://www.w3.org/1999/xlink" xmlns:svgjs="http://svgjs.com/svgjs" version="1.1" width="512" height="512" x="0" y="0" viewBox="0 0 475 475" style="enable-background:new 0 0 512 512" xml:space="preserve" class=""><g><path xmlns="http://www.w3.org/2000/svg" d="m237.5 52.18c-102.19 0-185.32 83.13-185.32 185.32s83.13 185.32 185.32 185.32 185.32-83.13 185.32-185.32-83.13-185.32-185.32-185.32zm0 360.64c-96.67 0-175.32-78.65-175.32-175.32s78.65-175.32 175.32-175.32 175.32 78.65 175.32 175.32-78.65 175.32-175.32 175.32z" fill="#bdbcba" data-original="#000000" class=""/><path xmlns="http://www.w3.org/2000/svg" d="m299.45 275.69v-55.69a61 61 0 0 0 -43.36-58.31v-14.87a18.59 18.59 0 1 0 -37.17 0v14.91a61 61 0 0 0 -43.37 58.27v55.65a41.44 41.44 0 0 0 -25.71 38.35 5 5 0 0 0 5 5h48.24a34.78 34.78 0 0 0 68.84 0h48.24a5 5 0 0 0 5-5 41.44 41.44 0 0 0 -25.71-38.31zm-70.53-116.54v-12.33a8.59 8.59 0 1 1 17.17 0v12.33zm-43.37 60.85a51 51 0 0 1 50.89-50.89h2.12a51 51 0 0 1 50.89 50.89v53a40.94 40.94 0 0 0 -5.68-.4h-92.54a40.94 40.94 0 0 0 -5.68.4zm51.95 118.77a24.84 24.84 0 0 1 -24.28-19.77h48.56a24.84 24.84 0 0 1 -24.28 19.77zm29.78-29.77h-107a31.47 31.47 0 0 1 25.61-25.92h103.3a31.47 31.47 0 0 1 25.57 25.92z" fill="#bdbcba" data-original="#000000" class=""/></g></svg>
