<svg width="12" height="12" viewBox="0 0 12 12" fill="none" xmlns="http://www.w3.org/2000/svg">
<path fill-rule="evenodd" clip-rule="evenodd" d="M6.6 5.65359V3C6.6 2.6688 6.3312 2.4 6 2.4C5.6688 2.4 5.4 2.6688 5.4 3V5.9933C5.39894 6.09917 5.42595 6.2038 5.478 6.29588C5.53648 6.39524 5.61358 6.47094 5.7058 6.52296L8.29808 8.01962C8.5849 8.18521 8.95209 8.08683 9.11769 7.8C9.28329 7.51317 9.18491 7.14599 8.89808 6.98039L6.6 5.65359ZM6 0C9.31379 0 12 2.68621 12 6C12 9.31379 9.31379 12 6 12C2.68621 12 0 9.31379 0 6C0 2.68621 2.68621 0 6 0Z" fill="white"/>
</svg>
