<svg width="24" height="24" viewBox="0 0 24 24" fill="none" xmlns="http://www.w3.org/2000/svg">
<path d="M22.875 8.25C22.7755 8.25 22.6802 8.28951 22.6098 8.35983C22.5395 8.43016 22.5 8.52554 22.5 8.625V20.25H15C14.4384 20.2514 13.8829 20.3668 13.3672 20.5892C12.8515 20.8117 12.3864 21.1366 12 21.5441C11.6137 21.1365 11.1485 20.8116 10.6328 20.5891C10.1171 20.3667 9.56163 20.2513 9 20.25H1.5V8.625C1.5 8.52554 1.46049 8.43016 1.39017 8.35983C1.31984 8.28951 1.22446 8.25 1.125 8.25C1.02554 8.25 0.930161 8.28951 0.859835 8.35983C0.789509 8.43016 0.75 8.52554 0.75 8.625V20.625C0.75 20.7245 0.789509 20.8198 0.859835 20.8902C0.930161 20.9605 1.02554 21 1.125 21H9C9.52372 21.0013 10.04 21.1239 10.5085 21.3581C10.9769 21.5923 11.3847 21.9318 11.7 22.35C11.7349 22.3966 11.7802 22.4344 11.8323 22.4604C11.8844 22.4864 11.9418 22.5 12 22.5C12.0582 22.5 12.1156 22.4864 12.1677 22.4604C12.2198 22.4344 12.2651 22.3966 12.3 22.35C12.6153 21.9318 13.0231 21.5923 13.4915 21.358C13.96 21.1238 14.4763 21.0013 15 21H22.875C22.9745 21 23.0698 20.9605 23.1402 20.8902C23.2105 20.8198 23.25 20.7245 23.25 20.625V8.625C23.25 8.52554 23.2105 8.43016 23.1402 8.35983C23.0698 8.28951 22.9745 8.25 22.875 8.25Z" fill="white"/>
<path d="M4.5 13.5C4.40054 13.5 4.30516 13.5395 4.23484 13.6098C4.16451 13.6802 4.125 13.7755 4.125 13.875V16.875C4.125 16.9745 4.16451 17.0698 4.23484 17.1402C4.30516 17.2105 4.40054 17.25 4.5 17.25H5.25C5.54837 17.25 5.83452 17.1315 6.0455 16.9205C6.25647 16.7095 6.375 16.4234 6.375 16.125C6.375 15.8266 6.25647 15.5405 6.0455 15.3295C5.83452 15.1185 5.54837 15 5.25 15H4.875V13.875C4.875 13.7755 4.83549 13.6802 4.76516 13.6098C4.69484 13.5395 4.59946 13.5 4.5 13.5ZM5.625 16.125C5.625 16.2245 5.58549 16.3198 5.51516 16.3902C5.44484 16.4605 5.34946 16.5 5.25 16.5H4.875V15.75H5.25C5.34946 15.75 5.44484 15.7895 5.51516 15.8598C5.58549 15.9302 5.625 16.0255 5.625 16.125Z" fill="white"/>
<path d="M6.78953 8.83237L5.28953 11.8324C5.26752 11.8764 5.2544 11.9244 5.25093 11.9736C5.24746 12.0227 5.2537 12.072 5.2693 12.1188C5.2849 12.1655 5.30956 12.2087 5.34185 12.2459C5.37415 12.2831 5.41346 12.3136 5.45753 12.3356C5.50161 12.3576 5.54958 12.3707 5.59873 12.3742C5.64787 12.3777 5.69722 12.3714 5.74395 12.3558C5.79068 12.3402 5.83388 12.3156 5.87108 12.2833C5.90829 12.251 5.93877 12.2117 5.96078 12.1676L6.4194 11.25H7.8309L8.28952 12.1676C8.33398 12.2566 8.41198 12.3243 8.50636 12.3558C8.60073 12.3873 8.70376 12.3801 8.79277 12.3356C8.88179 12.2911 8.94949 12.2132 8.981 12.1188C9.01251 12.0244 9.00523 11.9214 8.96077 11.8324L7.46078 8.83237C7.42613 8.77425 7.37698 8.72613 7.31815 8.69271C7.25932 8.65929 7.19281 8.64172 7.12515 8.64172C7.05749 8.64172 6.99099 8.65929 6.93216 8.69271C6.87332 8.72613 6.82418 8.77425 6.78953 8.83237ZM7.4559 10.5H6.7944L7.12515 9.83849L7.4559 10.5Z" fill="white"/>
<path d="M8.85451 15.4369C8.89461 15.4369 8.93398 15.4477 8.96853 15.468C9.00308 15.4884 9.03155 15.5176 9.05101 15.5527C9.10219 15.6363 9.18407 15.6965 9.2791 15.7205C9.37414 15.7445 9.47478 15.7303 9.55948 15.681C9.64419 15.6317 9.70622 15.5511 9.7323 15.4567C9.75837 15.3622 9.74643 15.2613 9.69901 15.1755C9.59127 14.9891 9.42504 14.8435 9.22609 14.7613C9.02715 14.679 8.80663 14.6648 8.59875 14.7207C8.39087 14.7766 8.20725 14.8995 8.07639 15.0705C7.94553 15.2414 7.87474 15.4507 7.875 15.666V16.2709C7.87449 16.4862 7.9451 16.6957 8.07587 16.8668C8.20665 17.0379 8.39026 17.1611 8.59821 17.2171C8.80615 17.2732 9.02678 17.259 9.22583 17.1768C9.42489 17.0946 9.59123 16.9489 9.69901 16.7625C9.74643 16.6767 9.75837 16.5758 9.7323 16.4813C9.70622 16.3868 9.64419 16.3063 9.55948 16.257C9.47478 16.2077 9.37414 16.1935 9.2791 16.2174C9.18407 16.2414 9.10219 16.3016 9.05101 16.3852C9.03155 16.4203 9.00308 16.4495 8.96853 16.4699C8.93398 16.4903 8.89461 16.5011 8.85451 16.5011C8.8243 16.5011 8.7944 16.4951 8.76651 16.4836C8.73861 16.472 8.71328 16.455 8.69196 16.4336C8.67064 16.4122 8.65375 16.3868 8.64226 16.3589C8.63077 16.331 8.62491 16.3011 8.62501 16.2709V15.666C8.62511 15.6052 8.64933 15.5469 8.69236 15.5039C8.73539 15.461 8.7937 15.4369 8.85451 15.4369Z" fill="white"/>
<path d="M14.448 16.8308C14.5079 16.8628 14.5753 16.878 14.6432 16.8747C14.711 16.8714 14.7766 16.8497 14.8331 16.812L15.9581 16.062C15.9991 16.0347 16.0343 15.9995 16.0617 15.9586C16.0891 15.9177 16.1081 15.8718 16.1178 15.8235C16.1274 15.7752 16.1275 15.7254 16.1179 15.6771C16.1083 15.6288 16.0893 15.5829 16.062 15.5419C16.0347 15.5009 15.9995 15.4657 15.9586 15.4383C15.9177 15.4109 15.8717 15.3919 15.8234 15.3822C15.7751 15.3726 15.7254 15.3725 15.6771 15.3821C15.6288 15.3917 15.5828 15.4107 15.5419 15.438L15 15.7995V13.5C15 13.4005 14.9605 13.3052 14.8902 13.2348C14.8198 13.1645 14.7245 13.125 14.625 13.125H13.5C13.4005 13.125 13.3052 13.1645 13.2348 13.2348C13.1645 13.3052 13.125 13.4005 13.125 13.5C13.125 13.5995 13.1645 13.6948 13.2348 13.7652C13.3052 13.8355 13.4005 13.875 13.5 13.875H14.25V16.5C14.25 16.5679 14.2684 16.6345 14.3032 16.6928C14.3381 16.751 14.3881 16.7987 14.448 16.8308Z" fill="white"/>
<path d="M14.6248 12.75C14.6989 12.75 14.7714 12.728 14.8331 12.6868C14.8947 12.6456 14.9428 12.587 14.9712 12.5185C14.9995 12.45 15.007 12.3746 14.9925 12.3019C14.978 12.2292 14.9423 12.1623 14.8899 12.1099L14.1399 11.3599C14.0692 11.2916 13.9745 11.2538 13.8761 11.2547C13.7778 11.2555 13.6838 11.2949 13.6142 11.3645C13.5447 11.434 13.5053 11.5281 13.5044 11.6264C13.5036 11.7247 13.5414 11.8194 13.6097 11.8902L14.3597 12.6402C14.43 12.7105 14.5253 12.75 14.6248 12.75Z" fill="white"/>
<path d="M19.875 10.5C19.9745 10.5 20.0698 10.4605 20.1402 10.3902C20.2105 10.3198 20.25 10.2245 20.25 10.125C20.25 10.0255 20.2105 9.93016 20.1402 9.85983C20.0698 9.78951 19.9745 9.75 19.875 9.75H16.5C16.4005 9.75 16.3052 9.78951 16.2348 9.85983C16.1645 9.93016 16.125 10.0255 16.125 10.125C16.125 10.2245 16.1645 10.3198 16.2348 10.3902C16.3052 10.4605 16.4005 10.5 16.5 10.5H17.5751L17.4814 11.25H16.5C16.4005 11.25 16.3052 11.2895 16.2348 11.3598C16.1645 11.4302 16.125 11.5255 16.125 11.625C16.125 11.7245 16.1645 11.8198 16.2348 11.8902C16.3052 11.9605 16.4005 12 16.5 12H17.3876L17.253 13.0785C17.253 13.0941 17.2541 13.1096 17.2564 13.125H16.5C16.4005 13.125 16.3052 13.1645 16.2348 13.2348C16.1645 13.3052 16.125 13.4005 16.125 13.5C16.125 13.5995 16.1645 13.6948 16.2348 13.7652C16.3052 13.8355 16.4005 13.875 16.5 13.875H19.875C19.9745 13.875 20.0698 13.8355 20.1402 13.7652C20.2105 13.6948 20.25 13.5995 20.25 13.5C20.25 13.4005 20.2105 13.3052 20.1402 13.2348C20.0698 13.1645 19.9745 13.125 19.875 13.125H19.5V11.625C19.5 11.5255 19.4605 11.4302 19.3902 11.3598C19.3198 11.2895 19.2245 11.25 19.125 11.25H18.2374L18.3311 10.5H19.875ZM18.75 12V13.125H18.003L18.1436 12H18.75Z" fill="white"/>
<path d="M19.875 17.625C19.9745 17.625 20.0698 17.5855 20.1402 17.5152C20.2105 17.4448 20.25 17.3495 20.25 17.25V15C20.25 14.9005 20.2105 14.8052 20.1402 14.7348C20.0698 14.6645 19.9745 14.625 19.875 14.625H16.875C16.7755 14.625 16.6802 14.6645 16.6098 14.7348C16.5395 14.8052 16.5 14.9005 16.5 15V17.25C16.5 17.3495 16.5395 17.4448 16.6098 17.5152C16.6802 17.5855 16.7755 17.625 16.875 17.625C16.9745 17.625 17.0698 17.5855 17.1402 17.5152C17.2105 17.4448 17.25 17.3495 17.25 17.25V16.875H19.5V17.25C19.5 17.3495 19.5395 17.4448 19.6098 17.5152C19.6802 17.5855 19.7755 17.625 19.875 17.625ZM17.25 16.125V15.375H19.5V16.125H17.25Z" fill="white"/>
<path d="M2.625 15C2.72446 15 2.81984 14.9605 2.89016 14.8902C2.96049 14.8198 3 14.7245 3 14.625V7.5H6.53437C6.63383 7.5 6.72921 7.46049 6.79954 7.39017C6.86987 7.31984 6.90937 7.22446 6.90937 7.125C6.90937 7.02554 6.86987 6.93016 6.79954 6.85983C6.72921 6.78951 6.63383 6.75 6.53437 6.75H2.625C2.52554 6.75 2.43016 6.78951 2.35984 6.85983C2.28951 6.93016 2.25 7.02554 2.25 7.125V14.625C2.25 14.7245 2.28951 14.8198 2.35984 14.8902C2.43016 14.9605 2.52554 15 2.625 15Z" fill="white"/>
<path d="M2.625 19.5H8.823C9.86771 19.5017 10.8978 19.7456 11.8324 20.2125C11.8372 20.2148 11.8433 20.2125 11.8485 20.2162C11.8962 20.2378 11.9477 20.2492 12 20.25C12.0519 20.2486 12.103 20.2365 12.15 20.2144C12.1556 20.2121 12.1616 20.2144 12.1672 20.2106C13.1021 19.7443 14.1323 19.5011 15.177 19.5H21.375C21.4745 19.5 21.5698 19.4605 21.6402 19.3902C21.7105 19.3198 21.75 19.2245 21.75 19.125V7.125C21.75 7.02554 21.7105 6.93016 21.6402 6.85983C21.5698 6.78951 21.4745 6.75 21.375 6.75H17.4656C17.3662 6.75 17.2708 6.78951 17.2005 6.85983C17.1301 6.93016 17.0906 7.02554 17.0906 7.125C17.0906 7.22446 17.1301 7.31984 17.2005 7.39017C17.2708 7.46049 17.3662 7.5 17.4656 7.5H21V18.75H15.177C14.2166 18.7521 13.2654 18.9382 12.375 19.2983V11.625C12.375 11.5255 12.3355 11.4302 12.2652 11.3598C12.1948 11.2895 12.0995 11.25 12 11.25C11.9005 11.25 11.8052 11.2895 11.7348 11.3598C11.6645 11.4302 11.625 11.5255 11.625 11.625V19.2949C10.7343 18.9361 9.78321 18.7511 8.823 18.75H3V16.125C3 16.0255 2.96049 15.9302 2.89016 15.8598C2.81984 15.7895 2.72446 15.75 2.625 15.75C2.52554 15.75 2.43016 15.7895 2.35984 15.8598C2.28951 15.9302 2.25 16.0255 2.25 16.125V19.125C2.25 19.2245 2.28951 19.3198 2.35984 19.3902C2.43016 19.4605 2.52554 19.5 2.625 19.5Z" fill="white"/>
<path d="M11.9998 10.5C12.6545 10.5035 13.302 10.3633 13.8966 10.0893C14.4913 9.81536 15.0185 9.4143 15.4413 8.91442C15.8641 8.41454 16.1721 7.828 16.3436 7.19615C16.5151 6.56431 16.5459 5.90254 16.4338 5.2575C16.4271 5.20776 16.4104 5.15987 16.3848 5.11669C16.3592 5.0735 16.3252 5.0359 16.2849 5.00609C16.2445 4.97629 16.1985 4.9549 16.1497 4.94319C16.1009 4.93149 16.0502 4.9297 16.0007 4.93793C15.9512 4.94617 15.9038 4.96426 15.8614 4.99114C15.819 5.01802 15.7825 5.05314 15.7539 5.09441C15.7253 5.13568 15.7053 5.18227 15.6951 5.23141C15.6849 5.28056 15.6846 5.33125 15.6943 5.3805C15.7827 5.88678 15.7654 6.40588 15.6435 6.90516C15.5217 7.40443 15.2978 7.8731 14.986 8.28168C14.6743 8.69026 14.2813 9.02993 13.832 9.27933C13.3826 9.52873 12.8865 9.68246 12.3748 9.73087V9.20062L13.3329 8.56312C13.4014 8.5175 13.4529 8.45064 13.4796 8.37285C13.5063 8.29506 13.5067 8.21065 13.4807 8.13262L13.1702 7.2L14.5427 5.48437C14.5777 5.4407 14.6025 5.38974 14.6152 5.33525C14.6279 5.28075 14.6283 5.2241 14.6163 5.16944C14.6043 5.11478 14.5802 5.06351 14.5458 5.01937C14.5114 4.97523 14.4675 4.93936 14.4174 4.91437L13.3018 4.35675C13.2129 4.31199 13.1098 4.30441 13.0152 4.33567C12.9207 4.36693 12.8424 4.43447 12.7976 4.52344C12.7529 4.6124 12.7453 4.7155 12.7766 4.81005C12.8078 4.90461 12.8754 4.98287 12.9643 5.02762L13.6652 5.37825L12.4551 6.89062C12.4159 6.93951 12.3897 6.99741 12.3787 7.05905C12.3677 7.12068 12.3723 7.1841 12.3921 7.2435L12.6767 8.097L11.7898 8.688C11.7388 8.72247 11.6971 8.76896 11.6683 8.82337C11.6395 8.87779 11.6246 8.93845 11.6248 9V9.73087C11.0067 9.66989 10.4137 9.45511 9.89982 9.10612L10.2519 8.97712C10.342 8.94433 10.4161 8.87831 10.4589 8.79262L11.2089 7.29262C11.2403 7.23046 11.2536 7.16081 11.2476 7.09147C11.2416 7.02212 11.2164 6.95583 11.1748 6.9L10.2448 5.66025L11.1399 4.76512C11.1763 4.72883 11.2048 4.68546 11.2237 4.63769C11.2426 4.58993 11.2514 4.5388 11.2497 4.48747C11.2481 4.43613 11.2358 4.3857 11.2139 4.33928C11.1919 4.29286 11.1606 4.25145 11.1219 4.21762L9.74382 3.01162C10.0624 2.7702 10.4175 2.58119 10.7957 2.45175L11.2689 3.8685C11.2911 3.93513 11.3315 3.99421 11.3856 4.03899C11.4397 4.08378 11.5053 4.11247 11.5749 4.12181C11.6445 4.13115 11.7153 4.12076 11.7793 4.09182C11.8433 4.06288 11.8979 4.01656 11.9368 3.95812L12.9868 2.38575C13.9278 2.64562 14.7314 3.26 15.2289 4.09987C15.2795 4.18555 15.362 4.24766 15.4583 4.27252C15.5546 4.29738 15.6568 4.28296 15.7425 4.23244C15.8282 4.18191 15.8903 4.09942 15.9152 4.00311C15.94 3.9068 15.9256 3.80455 15.8751 3.71887C15.4753 3.03915 14.904 2.4764 14.2183 2.08699C13.5326 1.69758 12.7567 1.49519 11.9681 1.50009C11.1796 1.50498 10.4062 1.717 9.72542 2.1149C9.04462 2.51279 8.48033 3.0826 8.08908 3.76724C7.69783 4.45187 7.49335 5.2273 7.49612 6.01584C7.4989 6.80438 7.70883 7.57835 8.10489 8.26021C8.50096 8.94208 9.06924 9.5079 9.75282 9.90099C10.4364 10.2941 11.2113 10.5007 11.9998 10.5ZM12.1674 2.26125L11.7373 2.90475L11.5296 2.28262C11.6855 2.26184 11.8425 2.25095 11.9998 2.25C12.0561 2.25 12.1123 2.25862 12.1674 2.26125ZM9.19032 3.525L10.3262 4.51875L9.4847 5.36025C9.42097 5.42405 9.38237 5.50868 9.37596 5.59862C9.36956 5.68857 9.39578 5.77781 9.44982 5.85L10.4357 7.16437L9.85595 8.325L9.25295 8.5455C8.61912 7.86678 8.2614 6.97595 8.24982 6.04737C8.23823 5.11879 8.57362 4.21931 9.19032 3.525Z" fill="white"/>
</svg>
