<svg width="24" height="24" viewBox="0 0 24 24" fill="none" xmlns="http://www.w3.org/2000/svg">
<path d="M17.8891 5.06521C18.8088 5.06521 19.5538 4.32513 19.5538 3.40373V1.66478C19.5538 0.742557 18.8096 0 17.8891 0C16.9685 0 16.2251 0.741733 16.2251 1.66478V3.40455C16.2259 4.32513 16.9693 5.06521 17.8891 5.06521Z" fill="white"/>
<path d="M23.803 2.87968H20.452V3.72608C20.452 5.12301 19.3172 6.26116 17.9178 6.26116C16.5167 6.26116 15.3843 5.12301 15.3843 3.72608V2.87968H8.6222V3.72608C8.6222 5.12301 7.4857 6.26116 6.08712 6.26116C4.68854 6.26116 3.55286 5.12383 3.55286 3.72608V2.87968L0.171387 2.83765V24.0001H1.86254H22.1399L23.8285 23.9952L23.803 2.87968ZM22.1382 22.3147H1.86254V8.79541H22.1399V22.3147H22.1382Z" fill="white"/>
<path d="M6.06059 5.06521C6.98034 5.06521 7.72619 4.32513 7.72619 3.40373V1.66478C7.72619 0.741733 6.98034 0 6.06059 0C5.14084 0 4.39746 0.741733 4.39746 1.66478V3.40455C4.39746 4.32513 5.14002 5.06521 6.06059 5.06521Z" fill="white"/>
<path d="M11.2898 10.6091H8.62695V12.9596H11.2898V10.6091Z" fill="white"/>
<path d="M15.5979 10.6091H12.9326V12.9596H15.5979V10.6091Z" fill="white"/>
<path d="M19.5881 10.6091H16.9253V12.9596H19.5881V10.6091Z" fill="white"/>
<path d="M11.2898 14.5125H8.62695V16.8613H11.2898V14.5125Z" fill="white"/>
<path d="M15.5979 14.5125H12.9326V16.8613H15.5979V14.5125Z" fill="white"/>
<path d="M19.5881 14.5125H16.9253V16.8613H19.5881V14.5125Z" fill="white"/>
<path d="M11.2898 18.4929H8.62695V20.8417H11.2898V18.4929Z" fill="white"/>
<path d="M7.05863 14.5125H4.39746V16.8613H7.05863V14.5125Z" fill="white"/>
<path d="M7.05863 18.4929H4.39746V20.8417H7.05863V18.4929Z" fill="white"/>
<path d="M15.5979 18.4929H12.9326V20.8417H15.5979V18.4929Z" fill="white"/>
<path d="M19.5881 18.4929H16.9253V20.8417H19.5881V18.4929Z" fill="white"/>
</svg>
