<svg width="24" height="24" viewBox="0 0 24 24" fill="none" xmlns="http://www.w3.org/2000/svg">
<path d="M23.1934 5.04002H13.1546C12.8444 4.7352 12.4366 4.56799 12 4.56799C11.5629 4.56799 11.1546 4.73557 10.8443 5.04106C10.8353 5.04035 10.8261 5.04002 10.8169 5.04002H0.806577C0.361827 5.04002 0 5.40185 0 5.8466V5.85368C0 6.79188 0.763264 7.5551 1.70142 7.5551H1.82676C1.82231 7.58927 1.82001 7.62414 1.82001 7.65958V7.66666C1.82001 8.60486 2.58328 9.36808 3.52143 9.36808H3.64654C3.64223 9.40169 3.64002 9.43591 3.64002 9.47064V9.47772C3.64002 10.4159 4.40329 11.1791 5.34144 11.1791H9.4745C9.66865 11.1791 9.82606 11.0217 9.82606 10.8276C9.82606 10.6334 9.66865 10.476 9.4745 10.476H5.34144C4.79094 10.476 4.34315 10.0282 4.34315 9.47772V9.47064C4.34315 9.41819 4.38234 9.37478 4.43301 9.36808H4.90162C4.9101 9.36808 4.91849 9.3678 4.92683 9.36719H5.90263C6.09679 9.36719 6.25419 9.20978 6.25419 9.01563C6.25419 8.82147 6.09679 8.66407 5.90263 8.66407H4.44669C4.4339 8.66407 4.4212 8.66435 4.40859 8.66496H3.52148C2.97103 8.66496 2.52318 8.21711 2.52318 7.66666V7.65958C2.52318 7.60254 2.56959 7.55613 2.62664 7.55613H8.99684C9.191 7.55613 9.3484 7.39872 9.3484 7.20457C9.3484 7.01041 9.191 6.85301 8.99684 6.85301H3.10846C3.0996 6.85235 3.09065 6.85202 3.08165 6.85202H1.70142C1.15092 6.85202 0.703124 6.40418 0.703124 5.85373V5.84665C0.703124 5.7896 0.74953 5.74319 0.806577 5.74319H10.4183C10.3643 5.92244 10.3409 6.11187 10.3503 6.30541L10.4649 8.66411H7.13136C6.93721 8.66411 6.7798 8.82152 6.7798 9.01567C6.7798 9.20983 6.93721 9.36724 7.13136 9.36724H10.4991L10.7764 15.0744H9.90692C8.96037 15.0744 8.19031 15.8469 8.19031 16.7964C8.19031 17.2805 8.39525 17.7451 8.75253 18.0708C8.89601 18.2017 9.11834 18.1914 9.24922 18.048C9.38004 17.9045 9.36978 17.6821 9.22634 17.5513C9.0148 17.3584 8.89344 17.0832 8.89344 16.7964C8.89344 16.2346 9.34808 15.7776 9.90692 15.7776H10.8105L10.9095 17.8153H10.8169C9.87036 17.8153 9.1003 18.5877 9.1003 19.5372C9.1003 20.2657 9.56004 20.9182 10.2443 21.161C10.4272 21.2258 10.6283 21.1302 10.6932 20.9472C10.7581 20.7642 10.6624 20.5632 10.4794 20.4983C10.0751 20.3548 9.80337 19.9686 9.80337 19.5372C9.80337 18.9755 10.258 18.5184 10.8169 18.5184H10.9437L11.1716 23.2093C11.1932 23.6526 11.5571 23.9999 12 23.9999C12.4429 23.9999 12.8068 23.6526 12.8283 23.2092L13.0562 18.5183H14.093C15.0396 18.5183 15.8096 17.7459 15.8096 16.7964C15.8096 16.6936 15.8005 16.5907 15.7825 16.4905C15.7483 16.2993 15.5658 16.1723 15.3745 16.2065C15.1833 16.2408 15.0562 16.4235 15.0905 16.6147C15.1011 16.674 15.1065 16.7351 15.1065 16.7964C15.1065 17.3582 14.6519 17.8152 14.093 17.8152H13.0904L13.1893 15.7775H14.9576C15.9041 15.7775 16.6742 15.0051 16.6742 14.0556C16.6742 13.1061 15.9041 12.3336 14.9576 12.3336C14.7633 12.3336 14.606 12.491 14.606 12.6852C14.606 12.8793 14.7633 13.0367 14.9576 13.0367C15.5164 13.0367 15.971 13.4938 15.971 14.0556C15.971 14.6174 15.5164 15.0744 14.9576 15.0744H13.2236L13.5009 9.36719H17.153C17.3472 9.36719 17.5045 9.20978 17.5045 9.01563C17.5045 8.82147 17.3472 8.66407 17.153 8.66407H13.535L13.6496 6.30537C13.659 6.11177 13.6356 5.9224 13.5816 5.7431H23.1933C23.2504 5.7431 23.2968 5.78951 23.2968 5.84655V5.85363C23.2968 6.40413 22.8489 6.85193 22.2984 6.85193H21.2822C21.2732 6.85193 21.2642 6.85226 21.2554 6.85291H14.9121C14.7179 6.85291 14.5605 7.01032 14.5605 7.20447C14.5605 7.39863 14.7179 7.55604 14.9121 7.55604H21.3733C21.4304 7.55604 21.4768 7.60244 21.4768 7.65949V7.66657C21.4768 8.21707 21.0289 8.66486 20.4784 8.66486H19.5914C19.5787 8.66425 19.566 8.66397 19.5533 8.66397H18.4953C18.3011 8.66397 18.1438 8.82138 18.1438 9.01553C18.1438 9.20969 18.3011 9.3671 18.4953 9.3671H18.527C18.5354 9.3677 18.5438 9.36799 18.5522 9.36799H19.5669C19.6175 9.37469 19.6568 9.4181 19.6568 9.47055V9.47763C19.6568 10.0281 19.2089 10.4759 18.6584 10.4759H14.4571C14.2629 10.4759 14.1056 10.6333 14.1056 10.8275C14.1056 11.0216 14.2629 11.179 14.4571 11.179H18.6584C19.5966 11.179 20.3599 10.4158 20.3599 9.47763V9.47055C20.3599 9.43581 20.3577 9.4016 20.3534 9.36799H20.4785C21.4167 9.36799 22.1799 8.60472 22.1799 7.66657V7.65949C22.1799 7.6241 22.1776 7.58922 22.1732 7.555H22.2985C23.2367 7.555 24 6.79174 24 5.85359V5.84651C24 5.40185 23.6381 5.04002 23.1934 5.04002ZM12.126 23.1751C12.1227 23.2434 12.0673 23.2968 12 23.2968C11.9326 23.2968 11.8773 23.2433 11.8739 23.175L11.6477 18.5183H12.3523L12.126 23.1751ZM12.3864 17.8152H11.6135L11.5145 15.7775H12.4854L12.3864 17.8152ZM12.5196 15.0744H11.4803L11.0526 6.27129C11.0397 6.00705 11.1329 5.75627 11.3149 5.56521C11.4956 5.3756 11.7388 5.27121 12 5.27121C12.2611 5.27121 12.5044 5.37565 12.685 5.56521C12.867 5.75632 12.9602 6.00705 12.9474 6.27129L12.5196 15.0744Z" fill="#000"/>
<path d="M12.0001 3.97687C13.093 3.97687 13.9821 3.08488 13.9821 1.98843C13.9821 0.891983 13.093 0 12.0001 0C10.9072 0 10.0181 0.891983 10.0181 1.98843C10.0181 3.08488 10.9072 3.97687 12.0001 3.97687ZM12.0001 0.703124C12.7053 0.703124 13.279 1.27969 13.279 1.98843C13.279 2.69718 12.7053 3.27374 12.0001 3.27374C11.2949 3.27374 10.7212 2.69718 10.7212 1.98843C10.7212 1.27969 11.2949 0.703124 12.0001 0.703124Z" fill="white"/>
<path d="M14.3836 18.7951C14.1981 18.8524 14.0941 19.0492 14.1515 19.2347C14.1816 19.3321 14.1968 19.4339 14.1968 19.5373C14.1968 19.9687 13.9251 20.3549 13.5208 20.4984C13.3377 20.5633 13.242 20.7643 13.307 20.9472C13.358 21.0914 13.4936 21.1813 13.6383 21.1813C13.6773 21.1813 13.717 21.1748 13.7558 21.161C14.4401 20.9182 14.8999 20.2657 14.8999 19.5372C14.8999 19.3635 14.8741 19.1919 14.8232 19.0272C14.7659 18.8417 14.5691 18.7377 14.3836 18.7951Z" fill="white"/>
<path d="M8.33331 14.7836C8.13695 14.5904 8.02881 14.3318 8.02881 14.0556C8.02881 13.4938 8.48345 13.0367 9.04229 13.0367C9.23645 13.0367 9.39385 12.8793 9.39385 12.6852C9.39385 12.491 9.23645 12.3336 9.04229 12.3336C8.09574 12.3336 7.32568 13.1061 7.32568 14.0556C7.32568 14.5217 7.50836 14.9582 7.84009 15.2847C7.90857 15.3521 7.99768 15.3857 8.0867 15.3857C8.17759 15.3857 8.26848 15.3507 8.33729 15.2808C8.47351 15.1424 8.47173 14.9198 8.33331 14.7836Z" fill="white"/>
</svg>
