<svg width="16" height="16" viewBox="0 0 16 16" fill="none" xmlns="http://www.w3.org/2000/svg">
<path d="M8 0C3.58177 0 0 3.58177 0 8C0 12.4182 3.58177 16 8 16C12.4182 16 16 12.4182 16 8C15.9951 3.58385 12.4161 0.00494793 8 0ZM8 15.4667C3.8763 15.4667 0.533333 12.1237 0.533333 8C0.533333 3.8763 3.8763 0.533333 8 0.533333C12.1237 0.533333 15.4667 3.8763 15.4667 8C15.462 12.1217 12.1217 15.462 8 15.4667Z" fill="#151116"/>
<path d="M11.7333 4.79688H4.26667C4.1194 4.79688 4 4.91628 4 5.06354V10.9302C4 11.0775 4.1194 11.1969 4.26667 11.1969H11.7333C11.8806 11.1969 12 11.0775 12 10.9302V5.06354C12 4.91628 11.8806 4.79688 11.7333 4.79688ZM11.0133 5.33021L8 7.91237L4.98672 5.33021H11.0133ZM4.53333 10.6635V5.64323L7.82643 8.46589C7.92617 8.5513 8.07331 8.5513 8.17305 8.46589L11.4667 5.64323V10.6635H4.53333Z" fill="#151116"/>
</svg>
