<svg width="24" height="24" viewBox="0 0 24 24" fill="none" xmlns="http://www.w3.org/2000/svg">
<path d="M23.3626 22.2975H22.6498V18.1175H23.3626C23.5567 18.1175 23.7141 17.9601 23.7141 17.7659C23.7141 17.5718 23.5567 17.4143 23.3626 17.4143H16.3278V16.4811C16.3278 15.8443 15.8097 15.3261 15.1728 15.3261H14.5426V14.6009C14.5426 13.9025 13.9843 13.3324 13.2906 13.3127V7.64062C13.2906 7.44647 13.1331 7.28906 12.939 7.28906C12.7448 7.28906 12.5874 7.44647 12.5874 7.64062V13.3118H11.4125V5.18545H12.5874V6C12.5874 6.19416 12.7448 6.35156 12.939 6.35156C13.1331 6.35156 13.2906 6.19416 13.2906 6V5.06827C13.2906 4.74516 13.0277 4.48233 12.7046 4.48233H12.3515V3.28997C12.9872 3.15267 13.4887 2.65116 13.626 2.01544H17.9347V2.65664L14.4972 9.18816C14.3422 9.2048 14.2019 9.29409 14.123 9.43073C14.0353 9.58252 14.0353 9.77109 14.123 9.92292L14.9673 11.3853C15.0549 11.5372 15.2183 11.6315 15.3936 11.6315H18.703C18.8972 11.6315 19.0546 11.4741 19.0546 11.2799C19.0546 11.0858 18.8972 10.9283 18.703 10.9283H15.5154L14.9146 9.88772H21.6581L21.0573 10.9283H20.3436C20.1495 10.9283 19.9921 11.0858 19.9921 11.2799C19.9921 11.4741 20.1495 11.6315 20.3436 11.6315H21.179C21.3543 11.6315 21.5176 11.5372 21.6053 11.3854L22.4497 9.92283C22.5373 9.77105 22.5373 9.58242 22.4496 9.43064C22.3708 9.294 22.2304 9.20466 22.0754 9.18806L18.6379 2.65664V2.01539H19.9539C20.148 2.01539 20.3054 1.85798 20.3054 1.66383C20.3054 1.46967 20.148 1.31227 19.9539 1.31227H13.626C13.4642 0.563156 12.7967 0 11.9999 0C11.2031 0 10.5356 0.563156 10.3738 1.31227H4.04591C3.85175 1.31227 3.69435 1.46967 3.69435 1.66383C3.69435 1.85798 3.85175 2.01539 4.04591 2.01539H5.36188V2.65659L1.92439 9.18816C1.76938 9.2048 1.62908 9.29409 1.55014 9.43073C1.46249 9.58252 1.46249 9.77109 1.5501 9.92292V9.92297L2.3945 11.3855C2.48216 11.5373 2.64547 11.6316 2.82074 11.6316H8.60619C8.78146 11.6316 8.94477 11.5373 9.03243 11.3855L9.87679 9.92297C9.96444 9.77119 9.96444 9.58256 9.87679 9.43078C9.79794 9.29414 9.6576 9.2048 9.50254 9.18816L6.065 2.65664V2.01539H10.3738C10.5111 2.65111 11.0126 3.15262 11.6483 3.28992V4.48228H11.2952C10.9721 4.48228 10.7092 4.74511 10.7092 5.06822V13.3127C10.0155 13.3324 9.45716 13.9024 9.45716 14.6008V15.3261H8.82702C8.19018 15.3261 7.67202 15.8442 7.67202 16.4811V17.4143H3.07879C1.53866 17.4143 0.285645 18.6673 0.285645 20.2074C0.285645 21.7476 1.53861 23.0005 3.07879 23.0005H5.05021V23.5075C5.05021 23.6911 5.15127 23.8582 5.31393 23.9435C5.47658 24.0287 5.67144 24.0168 5.82247 23.9122L6.68188 23.3175L7.54124 23.9122C7.62533 23.9704 7.72302 23.9999 7.82118 23.9999C7.89932 23.9999 7.97769 23.9812 8.04979 23.9434C8.21244 23.8582 8.3135 23.6911 8.3135 23.5074V23.0005H23.3626C23.5567 23.0005 23.7141 22.8431 23.7141 22.6489C23.7141 22.4548 23.5567 22.2975 23.3626 22.2975V22.2975ZM17.9348 9.18464H15.2937L17.9348 4.1663V9.18464ZM18.6379 4.1663L21.279 9.18464H18.6379V4.1663ZM5.36188 4.1663V9.18464H2.72075L5.36188 4.1663ZM8.48436 10.9284H2.94252L2.34172 9.88777H9.08521L8.48436 10.9284ZM8.70618 9.18464H6.06505V4.1663L8.70618 9.18464ZM11.0392 1.66383C11.0392 1.13409 11.4702 0.703125 11.9999 0.703125C12.5296 0.703125 12.9606 1.13409 12.9606 1.66383C12.9606 2.19356 12.5296 2.62453 11.9999 2.62453C11.4702 2.62453 11.0392 2.19356 11.0392 1.66383ZM10.1603 14.6008C10.1603 14.2777 10.4231 14.0149 10.7462 14.0149H13.2535C13.5766 14.0149 13.8395 14.2777 13.8395 14.6008V15.3261H10.1603V14.6008ZM3.07879 22.2975C1.92636 22.2975 0.98877 21.3599 0.98877 20.2074C0.98877 19.055 1.92632 18.1175 3.07879 18.1175H3.56816C3.39318 18.3743 3.29071 18.6844 3.29071 19.018V21.3969C3.29071 21.7305 3.39318 22.0406 3.56821 22.2975H3.07879ZM7.61033 23.1051L6.88189 22.601C6.76152 22.5177 6.6021 22.5176 6.48177 22.601L5.75329 23.1051V19.6825H7.61033V23.1051ZM21.9467 18.9795H14.3476C14.1534 18.9795 13.996 19.1369 13.996 19.331C13.996 19.5252 14.1534 19.6826 14.3476 19.6826H21.9468V20.7324H14.3476C14.1534 20.7324 13.996 20.8898 13.996 21.084C13.996 21.2781 14.1534 21.4355 14.3476 21.4355H21.9468V22.2975H8.31346V19.6826H11.2799C11.4741 19.6826 11.6315 19.5252 11.6315 19.331C11.6315 19.1369 11.4741 18.9795 11.2799 18.9795H4.8943C4.70014 18.9795 4.54274 19.1369 4.54274 19.331C4.54274 19.5252 4.70014 19.6826 4.8943 19.6826H5.05021V22.2975H4.8943C4.39775 22.2975 3.99379 21.8935 3.99379 21.397V19.018C3.99379 18.5215 4.39775 18.1175 4.8943 18.1175H10.5468C10.7409 18.1175 10.8983 17.9601 10.8983 17.766C10.8983 17.5718 10.7409 17.4144 10.5468 17.4144H8.37514V16.4812C8.37514 16.232 8.57783 16.0293 8.82702 16.0293H15.1728C15.4219 16.0293 15.6246 16.232 15.6246 16.4812V17.4144H12.1874C11.9932 17.4144 11.8358 17.5718 11.8358 17.766C11.8358 17.9601 11.9932 18.1175 12.1874 18.1175H21.9467V18.9795Z" fill="white"/>
</svg>
