<svg width="40" height="40" viewBox="0 0 40 40" fill="none" xmlns="http://www.w3.org/2000/svg">
<g clip-path="url(#clip0_128_1807)">
<path d="M2.067 40.0001C1.5401 40.0001 1.0132 39.7997 0.612876 39.3964C-0.190783 38.5927 -0.190783 37.2898 0.612876 36.4861L36.4962 0.602744C37.2999 -0.200915 38.6028 -0.200915 39.4065 0.602744C40.2101 1.4064 40.2101 2.70933 39.4065 3.5135L3.52363 39.3964C3.12029 39.7972 2.59339 40.0001 2.067 40.0001Z" fill="#48525E"/>
<path d="M37.9529 40.0001C37.426 40.0001 36.8996 39.7997 36.4987 39.3964L0.612876 3.5135C-0.190783 2.70933 -0.190783 1.4064 0.612876 0.602744C1.41653 -0.200915 2.71947 -0.200915 3.52363 0.602744L39.4065 36.4861C40.2101 37.2898 40.2101 38.5927 39.4065 39.3964C39.0031 39.7972 38.4767 40.0001 37.9529 40.0001Z" fill="#48525E"/>
</g>
<defs>
<clipPath id="clip0_128_1807">
<rect width="40" height="40" fill="white"/>
</clipPath>
</defs>
</svg>
