<svg width="16" height="16" viewBox="0 0 16 16" fill="none" xmlns="http://www.w3.org/2000/svg">
<path d="M12 6.5H11C10.9996 6.1023 10.8414 5.721 10.5602 5.43978C10.279 5.15856 9.8977 5.0004 9.5 5V4C10.1628 4.00079 10.7982 4.26444 11.2669 4.73311C11.7356 5.20178 11.9992 5.8372 12 6.5Z" fill="white"/>
<path d="M13.9995 6.5H12.9995C12.9985 5.57207 12.6294 4.68245 11.9732 4.0263C11.3171 3.37015 10.4275 3.00106 9.49952 3V2C10.6926 2.00133 11.8364 2.47586 12.68 3.31949C13.5237 4.16311 13.9982 5.30694 13.9995 6.5ZM10.166 10.741L11.286 9.621C11.4359 9.47105 11.6266 9.36838 11.8343 9.32572C12.042 9.28306 12.2576 9.30228 12.4545 9.381L13.8185 9.927C14.0196 10.0074 14.1919 10.1463 14.3133 10.3256C14.4347 10.5049 14.4995 10.7165 14.4995 10.933V13.4135C14.4999 13.5609 14.4701 13.7069 14.4121 13.8424C14.3541 13.978 14.269 14.1002 14.1621 14.2018C14.0552 14.3033 13.9287 14.3819 13.7904 14.4329C13.652 14.4838 13.5047 14.506 13.3575 14.498C3.79652 13.903 1.86552 5.805 1.50702 2.704C1.48966 2.5524 1.50459 2.39884 1.55083 2.25342C1.59707 2.108 1.67357 1.97402 1.77531 1.86029C1.87704 1.74656 2.0017 1.65566 2.14109 1.59356C2.28047 1.53146 2.43143 1.49958 2.58402 1.5H5.02052C5.23706 1.5 5.44863 1.56487 5.62794 1.68625C5.80725 1.80764 5.94608 1.97996 6.02652 2.181L6.57202 3.545C6.65074 3.74189 6.66997 3.95755 6.6273 4.16526C6.58464 4.37296 6.48197 4.56359 6.33202 4.7135L5.21202 5.8335C5.21202 5.8335 5.83302 10.1995 10.166 10.741Z" fill="white"/>
</svg>
