<?xml version="1.0"?>
<svg xmlns="http://www.w3.org/2000/svg" xmlns:xlink="http://www.w3.org/1999/xlink" xmlns:svgjs="http://svgjs.com/svgjs" version="1.1" width="512" height="512" x="0" y="0" viewBox="0 0 512 512" style="enable-background:new 0 0 512 512" xml:space="preserve" class=""><g><path xmlns="http://www.w3.org/2000/svg" d="m259.757812 16.808594c-1.035156-1.035156-2.398437-1.554688-3.757812-1.554688-1.363281 0-2.722656.519532-3.757812 1.554688l-235.417969 235.417968c-2.070313 2.074219-2.070313 5.441407 0 7.515626l235.417969 235.417968c2.074218 2.070313 5.445312 2.070313 7.515624 0l235.417969-235.417968c2.070313-2.074219 2.070313-5.441407 0-7.515626zm0 0" fill="#ffffff" data-original="#fffbfd" class=""/><path xmlns="http://www.w3.org/2000/svg" d="m495.175781 252.226562-235.417969-235.417968c-1.035156-1.035156-2.398437-1.554688-3.757812-1.554688v481.457032c1.359375 0 2.722656-.515626 3.757812-1.550782l235.417969-235.417968c2.070313-2.074219 2.070313-5.441407 0-7.515626zm0 0" fill="#ffffff" data-original="#deecf1" class=""/><path xmlns="http://www.w3.org/2000/svg" d="m501.769531 231.292969-221.078125-221.082031c-13.613281-13.613282-35.769531-13.613282-49.382812 0l-221.078125 221.082031c-6.597657 6.59375-10.230469 15.363281-10.230469 24.691406s3.632812 18.097656 10.230469 24.691406l221.078125 221.078125c6.804687 6.808594 15.75 10.214844 24.691406 10.214844s17.886719-3.40625 24.691406-10.214844l221.078125-221.078125c6.597657-6.59375 10.230469-15.363281 10.230469-24.691406s-3.632812-18.097656-10.230469-24.691406zm-21.164062 28.21875-221.078125 221.078125c-1.945313 1.945312-5.109375 1.945312-7.054688 0l-221.078125-221.078125c-1.945312-1.945313-1.945312-5.109375 0-7.054688l221.078125-221.078125c.972656-.972656 2.25-1.460937 3.527344-1.460937s2.554688.488281 3.527344 1.460937l221.078125 221.078125c1.945312 1.945313 1.945312 5.109375 0 7.054688zm0 0" fill="#e0e0e0" data-original="#575f64" class=""/><path xmlns="http://www.w3.org/2000/svg" d="m501.769531 231.292969-221.078125-221.082031c-6.804687-6.808594-15.75-10.210938-24.691406-10.210938v29.917969c1.277344 0 2.554688.488281 3.527344 1.460937l221.078125 221.078125c1.945312 1.945313 1.945312 5.109375 0 7.054688l-221.078125 221.078125c-.972656.972656-2.25 1.460937-3.527344 1.460937v29.917969c8.941406 0 17.886719-3.40625 24.691406-10.214844l221.078125-221.078125c6.597657-6.59375 10.230469-15.363281 10.230469-24.691406s-3.632812-18.097656-10.230469-24.691406zm0 0" fill="#e0e0e0" data-original="#32393f" class=""/><path xmlns="http://www.w3.org/2000/svg" d="m256 435.828125-179.84375-179.84375 179.84375-179.84375 179.84375 179.84375zm0 0" fill="#ffffff" data-original="#fed843" class=""/><path xmlns="http://www.w3.org/2000/svg" d="m256 76.140625v359.6875l179.84375-179.84375zm0 0" fill="#ffffff" data-original="#fdbf00" class=""/></g></svg>
