<svg width="12" height="12" viewBox="0 0 12 12" fill="none" xmlns="http://www.w3.org/2000/svg">
<path d="M6.10694 0.119751C2.91852 0.119751 0.333717 2.68415 0.333717 5.84857C0.333717 6.93097 0.636117 7.94257 1.16172 8.80657L0.120117 11.8798L3.31692 10.8646C4.14372 11.3182 5.09532 11.5774 6.10694 11.5774C9.29534 11.5774 11.8801 9.01177 11.8801 5.84857C11.8801 2.68415 9.29534 0.119751 6.10694 0.119751ZM8.97734 8.02417C8.84174 8.36137 8.22734 8.66857 7.95614 8.68177C7.68494 8.69617 7.67774 8.89177 6.20174 8.25097C4.72572 7.61017 3.83772 6.05017 3.76812 5.94937C3.69852 5.84977 3.19692 5.13455 3.22332 4.41455C3.25092 3.69455 3.64452 3.35495 3.78492 3.21455C3.92532 3.07295 4.08612 3.04775 4.18452 3.04655C4.30092 3.04415 4.37652 3.04295 4.46172 3.04655C4.54812 3.05015 4.67652 3.02855 4.78812 3.32615C4.89972 3.62375 5.16732 4.35335 5.20092 4.42895C5.23452 4.50335 5.25612 4.58975 5.20332 4.68575C5.15052 4.78175 5.12292 4.84175 5.04732 4.92455C4.97052 5.00735 4.88532 5.10935 4.81692 5.17295C4.74012 5.24255 4.65972 5.31935 4.74132 5.46935C4.82172 5.61935 5.10012 6.10897 5.52252 6.51217C6.06614 7.03057 6.53534 7.20337 6.68054 7.28137C6.82574 7.36057 6.91214 7.35097 7.00094 7.25737C7.08974 7.16257 7.38494 6.84457 7.48934 6.70177C7.59374 6.55897 7.69094 6.58657 7.82414 6.64057C7.95734 6.69457 8.66774 7.07497 8.81294 7.15417C8.95814 7.23217 9.05414 7.27297 9.08894 7.33537C9.12374 7.39417 9.11294 7.68697 8.97734 8.02417Z" fill="white"/>
</svg>
