<?xml version="1.0"?>
<svg xmlns="http://www.w3.org/2000/svg" xmlns:xlink="http://www.w3.org/1999/xlink" xmlns:svgjs="http://svgjs.com/svgjs" version="1.1" width="512" height="512" x="0" y="0" viewBox="0 0 512 512" style="enable-background:new 0 0 512 512" xml:space="preserve" class=""><g><path xmlns="http://www.w3.org/2000/svg" d="m256 0c-141.159 0-256 114.841-256 256s114.841 256 256 256 256-114.841 256-256-114.841-256-256-256zm0 488c-127.925 0-232-104.075-232-232s104.075-232 232-232 232 104.075 232 232-104.075 232-232 232zm140.912-196.725-38.186-10.232a28.266 28.266 0 0 0 -30.313 10.667c-.92 1.257-1.831 2.535-2.742 3.813-4.7 6.6-9.557 13.418-13.87 13.639a12.051 12.051 0 0 0 -2.525.4c-2.211.167-11.7-2.312-30.292-15.55a335.237 335.237 0 0 1 -46.779-41.2c-25.78-27.306-31.351-42.258-31.44-46.31l23.724-25.228a27.91 27.91 0 0 0 6.756-26.852l-10.545-39.361a28.425 28.425 0 0 0 -29.86-20.987c-7 .587-31.549 3.115-53.821 11.009-35.014 12.408-42.7 30.785-42.977 44.018-1.334 63.081 29.225 130.443 83.841 184.815 53.15 52.911 120.33 84.11 180.648 84.11 1.478 0 2.961-.019 4.43-.056 13.209-.34 31.555-8.081 43.937-43.032 7.885-22.256 10.413-46.811 11-53.807a28.424 28.424 0 0 0 -20.986-29.856zm-2.931 27.85c-3.017 35.97-15.13 74.428-31.636 74.853-55.012 1.412-117.635-27.4-167.529-77.071-49.991-49.766-77.976-110.744-76.779-167.3.349-16.488 38.8-28.6 74.809-31.618.139-.011.277-.017.412-.017a4.324 4.324 0 0 1 4.256 3.3l10.548 39.363a4.059 4.059 0 0 1 -1.056 4.2l-24.922 26.5q-.381.4-.723.844c-12.376 15.877 3.541 39.366 8.772 47.085 13.382 19.747 36.8 44.194 61.118 63.8 12.1 9.757 23.641 17.638 33.37 22.791 12.412 6.574 21.9 8.879 29.692 7.184 15.109-1.411 23.847-13.68 30.907-23.591.848-1.191 1.7-2.383 2.554-3.554a4.21 4.21 0 0 1 4.739-1.667l38.187 10.231a4.337 4.337 0 0 1 3.281 4.667z" fill="#bdbcba" data-original="#000000" class=""/></g></svg>
