<svg width="14" height="13" viewBox="0 0 14 13" fill="none" xmlns="http://www.w3.org/2000/svg">
<path d="M12.3475 0H1.6525C1.38099 0.000213806 1.11538 0.07923 0.887907 0.227459C0.660433 0.375688 0.480874 0.586756 0.371022 0.835048C0.26117 1.08334 0.225749 1.35818 0.269056 1.62621C0.312364 1.89424 0.432538 2.14394 0.614995 2.345L5.25 7.4425V12.25C5.25004 12.344 5.27656 12.436 5.32653 12.5156C5.37649 12.5952 5.44788 12.6591 5.5325 12.7C5.60013 12.7333 5.6746 12.7505 5.75 12.75C5.86364 12.7499 5.97386 12.7111 6.0625 12.64L7 11.89L8.5625 10.64C8.62097 10.5932 8.66817 10.5338 8.70063 10.4663C8.73308 10.3988 8.74995 10.3249 8.75 10.25V7.4425L13.385 2.345C13.5675 2.14394 13.6876 1.89424 13.7309 1.62621C13.7743 1.35818 13.7388 1.08334 13.629 0.835048C13.5191 0.586756 13.3396 0.375688 13.1121 0.227459C12.8846 0.07923 12.619 0.000213806 12.3475 0Z" fill="#243344"/>
</svg>
