<svg width="16" height="16" viewBox="0 0 16 16" fill="none" xmlns="http://www.w3.org/2000/svg">
<path d="M8 0C3.58177 0 0 3.58177 0 8C0 12.4182 3.58177 16 8 16C12.4182 16 16 12.4182 16 8C15.9951 3.58385 12.4161 0.00494793 8 0ZM8 15.4667C3.8763 15.4667 0.533333 12.1237 0.533333 8C0.533333 3.8763 3.8763 0.533333 8 0.533333C12.1237 0.533333 15.4667 3.8763 15.4667 8C15.462 12.1217 12.1217 15.462 8 15.4667Z" fill="#151116"/>
<path d="M8 3.7334C6.23347 3.73535 4.80196 5.16686 4.8 6.9334C4.8 9.1515 7.68854 12.0657 7.81146 12.1886C7.91563 12.2926 8.08438 12.2926 8.18854 12.1886C8.31146 12.0657 11.2 9.1515 11.2 6.9334C11.198 5.16686 9.76654 3.73535 8 3.7334ZM8 11.6143C7.36289 10.9334 5.33334 8.6278 5.33334 6.9334C5.33334 5.46061 6.52722 4.26673 8 4.26673C9.47279 4.26673 10.6667 5.46061 10.6667 6.9334C10.6667 8.62624 8.63685 10.9334 8 11.6143Z" fill="#151116"/>
<path d="M8 5.3335C7.41094 5.3335 6.93333 5.8111 6.93333 6.40016C6.93333 6.98923 7.41094 7.46683 8 7.46683C8.58906 7.46683 9.06667 6.98923 9.06667 6.40016C9.06667 5.8111 8.58906 5.3335 8 5.3335ZM8 6.9335C7.70547 6.9335 7.46667 6.69469 7.46667 6.40016C7.46667 6.10563 7.70547 5.86683 8 5.86683C8.29453 5.86683 8.53333 6.10563 8.53333 6.40016C8.53333 6.69469 8.29453 6.9335 8 6.9335Z" fill="#151116"/>
</svg>
