<svg width="12" height="12" viewBox="0 0 12 12" fill="none" xmlns="http://www.w3.org/2000/svg">
<path d="M11.3204 6.75715C11.3528 6.51835 11.3708 6.27595 11.3708 6.02875C11.3708 3.06238 8.95282 0.657577 5.97083 0.657577C5.67443 0.657577 5.38403 0.681577 5.10083 0.728377C4.59443 0.39718 3.99083 0.203979 3.34163 0.203979C1.56083 0.203979 0.119629 1.64758 0.119629 3.42718C0.119629 4.07518 0.310429 4.67638 0.63803 5.18158C0.593629 5.45758 0.570829 5.74078 0.570829 6.02875C0.570829 8.99635 2.98763 11.4012 5.97083 11.4012C6.30802 11.4012 6.63562 11.3688 6.95362 11.3112C7.44802 11.6184 8.03122 11.7972 8.65642 11.7972C10.4372 11.796 11.8796 10.3524 11.8796 8.57275C11.8796 7.89955 11.6732 7.27435 11.3204 6.75715ZM6.47602 9.98755C4.76003 10.0776 3.95723 9.69715 3.22163 9.00715C2.39963 8.23675 2.72963 7.35715 3.39923 7.31155C4.06763 7.26715 4.46963 8.06995 4.82723 8.29315C5.18363 8.51515 6.54082 9.02275 7.25722 8.20315C8.03722 7.31155 6.73882 6.84955 5.78603 6.71035C4.42643 6.50875 2.70923 5.77318 2.84243 4.32358C2.97563 2.87518 4.07363 2.13238 5.22803 2.02798C6.69922 1.89478 7.65802 2.25118 8.41522 2.89798C9.29122 3.64558 8.81722 4.48078 8.25922 4.54798C7.70362 4.61518 7.07842 3.31918 5.85203 3.29998C4.58843 3.27958 3.73403 4.61518 5.29403 4.99438C6.85522 5.37358 8.52682 5.52958 9.12922 6.95635C9.73162 8.38195 8.19322 9.89755 6.47602 9.98755Z" fill="white"/>
</svg>
