<svg width="24" height="24" viewBox="0 0 24 24" fill="none" xmlns="http://www.w3.org/2000/svg">
<g clip-path="url(#clip0_703_564)">
<path d="M23.4677 4.04717L12.2717 0.0471672C12.0949 -0.0152341 11.9021 -0.0152341 11.7253 0.0471672L0.532137 4.04717C0.214889 4.16152 0.00341797 4.46254 0.00341797 4.79977C0.00341797 5.137 0.214889 5.43801 0.532137 5.55237L6.00014 7.50597V9.99997C6.00014 11.5552 11.3861 11.6 12.0001 11.6C12.6141 11.6 18.0001 11.5552 18.0001 9.99997V7.50597L19.2001 7.07997V7.99997C19.2001 8.4418 19.5583 8.79997 20.0001 8.79997H20.8001C21.242 8.79997 21.6001 8.4418 21.6001 7.99997V6.79997C21.5989 6.61474 21.5543 6.43238 21.4697 6.26757L23.4697 5.55237C23.787 5.43801 23.9985 5.137 23.9985 4.79977C23.9985 4.46254 23.787 4.16152 23.4697 4.04717H23.4677ZM17.2001 9.11997C15.6765 8.42637 12.4661 8.39997 12.0001 8.39997C11.5341 8.39997 8.32374 8.42637 6.80014 9.11997V5.63517C7.04014 5.32717 8.92654 4.79997 12.0001 4.79997C15.0737 4.79997 16.9601 5.32717 17.2001 5.63517V9.11997ZM12.0001 10.8C9.04014 10.8 7.18134 10.3112 6.83374 9.99997C7.18134 9.68877 9.04094 9.19997 12.0001 9.19997C14.9593 9.19997 16.8189 9.68877 17.1665 9.99997C16.8189 10.3112 14.9601 10.8 12.0001 10.8ZM19.3877 6.16197L18.0001 6.65677V5.59997C18.0001 4.04477 12.6141 3.99997 12.0001 3.99997C11.3861 3.99997 6.00014 4.04477 6.00014 5.59997V6.65637L0.800137 4.79997L12.0057 0.799967L20.0001 3.65677V5.67357C19.7472 5.76345 19.5316 5.93538 19.3877 6.16197ZM20.8001 7.99997H20.0001V6.79997C20.0001 6.57905 20.1792 6.39997 20.4001 6.39997C20.6211 6.39997 20.8001 6.57905 20.8001 6.79997V7.99997ZM20.8001 5.65757V3.94277L23.2001 4.79997L20.8001 5.65757Z" fill="white"/>
<path d="M22.8 12.3999C22.776 12.3998 22.752 12.402 22.7284 12.4063C19.1793 12.9581 15.5916 13.2235 12 13.1999C8.40837 13.2235 4.82067 12.9581 1.2716 12.4063C1.24794 12.4023 1.224 12.4001 1.2 12.3999C0.92 12.3999 0 12.7171 0 16.7999C0 20.8827 0.92 21.1999 1.2 21.1999C1.22402 21.1994 1.24796 21.197 1.2716 21.1927C3.99868 20.7607 6.75137 20.5098 9.5116 20.4415L8.7308 22.3143C8.61084 22.6142 8.68377 22.9568 8.91546 23.1818C9.14714 23.4069 9.49175 23.4698 9.788 23.3411L10.094 23.2103L10.2264 23.5147C10.3515 23.8099 10.6414 24.0011 10.962 23.9999H10.972C11.295 23.9974 11.5845 23.8003 11.7052 23.5007L12.4 21.8375L13.0924 23.4943C13.2121 23.7967 13.5028 23.9965 13.828 23.9999H13.84C14.1584 24.0012 14.4468 23.8123 14.5728 23.5199L14.7064 23.2131L15.0076 23.3423C15.3051 23.4736 15.6526 23.4111 15.8856 23.1842C16.1187 22.9573 16.1905 22.6116 16.0672 22.3107L15.3016 20.4747C17.7902 20.5628 20.2712 20.8033 22.7304 21.1947C22.7534 21.1985 22.7767 21.2002 22.8 21.1999C23.08 21.1999 24 20.8827 24 16.7999C24 12.7171 23.08 12.3999 22.8 12.3999ZM13.28 13.9879C13.4461 14.5987 13.5429 15.2262 13.5684 15.8587C12.6614 15.437 11.5977 15.5358 10.784 16.1175C10.7635 15.3992 10.6715 14.6847 10.5092 13.9847C10.9937 13.9948 11.4907 13.9999 12 13.9999C12.4372 13.9999 12.8616 13.9951 13.28 13.9879ZM12.4 20.3999C11.2954 20.3999 10.4 19.5045 10.4 18.3999C10.4 17.2953 11.2954 16.3999 12.4 16.3999C13.5046 16.3999 14.4 17.2953 14.4 18.3999C14.3987 19.5039 13.504 20.3986 12.4 20.3999ZM1.2 13.3999C1.50649 14.5061 1.64139 15.6528 1.6 16.7999C1.64139 17.947 1.50649 19.0937 1.2 20.1999C0.893514 19.0937 0.75861 17.947 0.8 16.7999C0.75861 15.6528 0.893514 14.5061 1.2 13.3999ZM2.008 20.2679C2.2268 19.6335 2.4 18.5719 2.4 16.7999C2.4 15.0279 2.2268 13.9663 2.0076 13.3311C4.54944 13.6822 7.10861 13.8935 9.6736 13.9643C9.91352 14.8898 10.0234 15.8441 10 16.7999C10 16.8579 10 16.9131 9.9976 16.9687C9.51759 17.7653 9.46922 18.7496 9.8688 19.5895L9.8512 19.6319C7.22689 19.6962 4.60831 19.9088 2.008 20.2687V20.2679ZM10.9628 23.1999L10.6708 22.5279C10.583 22.3261 10.3487 22.2332 10.1464 22.3199L9.4732 22.6175L10.4112 20.3687C10.7963 20.7589 11.2876 21.0274 11.824 21.1407L10.9628 23.1999ZM14.6536 22.3199C14.4513 22.2332 14.217 22.3261 14.1292 22.5279L13.8332 23.1931L12.9756 21.1399C13.5124 21.0265 14.0041 20.7579 14.3896 20.3675L15.3256 22.6075L14.6536 22.3199ZM22.72 20.3799C20.1501 19.9844 17.5588 19.744 14.96 19.6599L14.9316 19.5911C15.4346 18.5311 15.219 17.2694 14.3924 16.4367C14.3893 15.6072 14.2935 14.7806 14.1068 13.9723C16.9911 13.9077 19.8682 13.6563 22.72 13.2195C22.9056 13.5347 23.2 14.7815 23.2 16.7999C23.2 18.8183 22.9036 20.0647 22.72 20.3799Z" fill="#000"/>
</g>
<defs>
<clipPath id="clip0_703_564">
<rect width="24" height="24" fill="white"/>
</clipPath>
</defs>
</svg>
