<svg width="16" height="16" viewBox="0 0 16 16" fill="none" xmlns="http://www.w3.org/2000/svg">
<path d="M8 0C3.58177 0 0 3.58177 0 8C0 12.4182 3.58177 16 8 16C12.4182 16 16 12.4182 16 8C15.9951 3.58385 12.4161 0.00494793 8 0ZM8 15.4667C3.8763 15.4667 0.533333 12.1237 0.533333 8C0.533333 3.8763 3.8763 0.533333 8 0.533333C12.1237 0.533333 15.4667 3.8763 15.4667 8C15.462 12.1217 12.1217 15.462 8 15.4667Z" fill="#151116"/>
<path d="M11.5059 8.97556L9.24245 8.57556C9.12787 8.55537 9.01354 8.61162 8.95977 8.71475L8.41094 9.76644C7.43984 9.33636 6.6638 8.55993 6.23411 7.58858L7.28477 7.03975C7.38789 6.98597 7.44414 6.87165 7.42396 6.75707L7.02396 4.49391C7.01146 4.42269 6.97057 4.35967 6.91068 4.31917C6.33841 3.93324 5.59987 3.89443 4.99036 4.21839C4.38086 4.54248 4 5.17647 4 5.8667C4.00378 9.25251 6.74753 11.9963 10.1333 12C10.8237 11.9999 11.4577 11.6188 11.7816 11.0092C12.1055 10.3994 12.0664 9.66071 11.6799 9.08858C11.6396 9.02894 11.5768 8.98806 11.5059 8.97556ZM10.1333 11.4667C7.04206 11.4632 4.53685 8.95798 4.53333 5.8667C4.5332 5.393 4.78451 4.95485 5.19336 4.71553C5.60221 4.47633 6.10742 4.47204 6.52031 4.70433L6.8651 6.65785L5.77175 7.22855C5.65195 7.29105 5.59779 7.43311 5.64557 7.55954C6.13307 8.84912 7.15078 9.86748 8.44024 10.3555C8.56667 10.4033 8.70872 10.3491 8.77122 10.2293L9.34219 9.13597L11.2957 9.4809C11.5275 9.89366 11.5228 10.3983 11.2837 10.8069C11.0445 11.2154 10.6068 11.4666 10.1333 11.4667Z" fill="#151116"/>
</svg>
