<svg width="12" height="12" viewBox="0 0 12 12" fill="none" xmlns="http://www.w3.org/2000/svg">
<path d="M5.99986 5.28571L11.096 2.10812C11.0406 2.09934 10.9844 2.09363 10.9267 2.09363H1.073C1.01536 2.09363 0.959036 2.09956 0.903809 2.10812L5.99986 5.28571Z" fill="white"/>
<path d="M6.32082 6.51431C6.31402 6.51871 6.30655 6.52156 6.29952 6.52573C6.29217 6.5298 6.28426 6.53375 6.2769 6.53748C6.23683 6.55812 6.19555 6.5747 6.15338 6.58568C6.14899 6.58689 6.14482 6.58755 6.14065 6.58843C6.0942 6.5993 6.04754 6.60599 6.00077 6.60599C6.00066 6.60599 6.00044 6.60599 6.00033 6.60599C6.00022 6.60599 6 6.60599 5.99978 6.60599C5.95301 6.60599 5.90623 6.59941 5.86001 6.58843C5.85573 6.58744 5.85134 6.58678 5.84705 6.58568C5.80489 6.57459 5.76394 6.55801 5.72364 6.53748C5.71607 6.53375 5.70838 6.5298 5.70092 6.52573C5.69378 6.52167 5.68642 6.51882 5.6794 6.51431L0.0167987 2.9834C0.00658774 3.04302 0 3.10406 0 3.16687V8.83331C0 9.42598 0.480356 9.90645 1.07314 9.90645H10.9269C11.5195 9.90645 12 9.42598 12 8.83331V3.16687C12 3.10406 11.9935 3.04313 11.9831 2.9834L6.32082 6.51431Z" fill="white"/>
</svg>
