<svg width="60" height="60" viewBox="0 0 60 60" fill="none" xmlns="http://www.w3.org/2000/svg">
<mask id="path-1-inside-1_258_10179" fill="white">
<path fill-rule="evenodd" clip-rule="evenodd" d="M31.2387 0.380075C30.8383 -0.12669 30.0697 -0.126693 29.6694 0.380072L9.21721 26.267C8.69915 26.9227 9.16619 27.8869 10.0019 27.8869H21.4541V58.387C21.4541 58.9392 21.9018 59.387 22.4541 59.387H38.4541C39.0064 59.387 39.4541 58.9392 39.4541 58.387V27.8869H50.9062C51.7419 27.8869 52.2089 26.9227 51.6909 26.267L31.2387 0.380075Z"/>
</mask>
<path d="M29.6694 0.380072L30.2971 0.876013L30.2971 0.876012L29.6694 0.380072ZM31.2387 0.380075L31.8664 -0.115867L31.8664 -0.115867L31.2387 0.380075ZM9.21721 26.267L9.84493 26.7629L9.84493 26.7629L9.21721 26.267ZM21.4541 27.8869H22.2541V27.0869H21.4541V27.8869ZM39.4541 27.8869V27.0869H38.6541V27.8869H39.4541ZM51.6909 26.267L52.3186 25.771L52.3186 25.771L51.6909 26.267ZM30.2971 0.876012C30.3772 0.774665 30.5309 0.774659 30.611 0.876016L31.8664 -0.115867C31.1458 -1.02804 29.7623 -1.02805 29.0416 -0.115868L30.2971 0.876012ZM9.84493 26.7629L30.2971 0.876013L29.0416 -0.11587L8.58948 25.771L9.84493 26.7629ZM10.0019 27.0869C9.83473 27.0869 9.74132 26.8941 9.84493 26.7629L8.58948 25.771C7.65698 26.9513 8.49765 28.6869 10.0019 28.6869V27.0869ZM21.4541 27.0869H10.0019V28.6869H21.4541V27.0869ZM22.2541 58.387V27.8869H20.6541V58.387H22.2541ZM22.4541 58.587C22.3436 58.587 22.2541 58.4974 22.2541 58.387H20.6541C20.6541 59.3811 21.46 60.187 22.4541 60.187V58.587ZM38.4541 58.587H22.4541V60.187H38.4541V58.587ZM38.6541 58.387C38.6541 58.4974 38.5646 58.587 38.4541 58.587V60.187C39.4482 60.187 40.2541 59.3811 40.2541 58.387H38.6541ZM38.6541 27.8869V58.387H40.2541V27.8869H38.6541ZM50.9062 27.0869H39.4541V28.6869H50.9062V27.0869ZM51.0631 26.7629C51.1667 26.8941 51.0733 27.0869 50.9062 27.0869V28.6869C52.4104 28.6869 53.2511 26.9513 52.3186 25.771L51.0631 26.7629ZM30.611 0.876016L51.0631 26.7629L52.3186 25.771L31.8664 -0.115867L30.611 0.876016Z" fill="#151116" mask="url(#path-1-inside-1_258_10179)"/>
</svg>
