<svg id="Capa_1" enable-background="new 0 0 506.927 506.927" height="512" viewBox="0 0 506.927 506.927" width="512" xmlns="http://www.w3.org/2000/svg"><g id="XMLID_1222_"><path id="XMLID_1223_" d="m126.963 125.974h160v35.071h-160z"/><path id="XMLID_1227_" d="m19.463 38.592h-22v30h22v27.28h-22v30h22v27.281h-22v30h22v27.28h-22v30h22v27.281h-22v30h22v27.28h-22v30h22v27.281h-22v30h22v27.28h-22v30h22v24.6h375v-480.462h-375zm77.5 152.453v-95.071h220v95.071zm171.184 47.879v30h-122.366v-30z"/><path id="XMLID_1235_" d="m426.464 94.693h83v300h-83z"/><path id="XMLID_1237_" d="m432.693 424.693 35.271 70.541 35.27-70.541z"/><path id="XMLID_1239_" d="m509.464 64.693v-11.5c0-22.883-18.617-41.5-41.5-41.5s-41.5 18.617-41.5 41.5v11.5z"/></g></svg>