<?xml version="1.0"?>
<svg xmlns="http://www.w3.org/2000/svg" xmlns:xlink="http://www.w3.org/1999/xlink" xmlns:svgjs="http://svgjs.com/svgjs" version="1.1" width="512" height="512" x="0" y="0" viewBox="0 0 512 512" style="enable-background:new 0 0 512 512" xml:space="preserve" class=""><g>
<g xmlns="http://www.w3.org/2000/svg">
	<g>
		<path d="M437,0H75C33.647,0,0,34.647,0,76v361c0,41.353,33.647,75,75,75c122.091,0,228.977,0,361,0c41.353,0,76-33.647,76-75V76    C512,34.647,478.353,0,437,0z M416.34,259.638l-7.5,30c-1.67,6.678-7.668,11.362-14.551,11.362H316v136c0,8.284-6.716,15-15,15    h-30c-8.284,0-15-6.716-15-15V301h-60c-8.284,0-15-6.716-15-15v-30c0-8.286,6.716-15,15-15h60v-60c0-49.706,40.294-90,90-90h45    c8.284,0,15,6.714,15,15v30c0,8.284-6.716,15-15,15h-45c-16.569,0-30,13.431-30,30v60h85.787    C411.546,241,418.708,250.17,416.34,259.638z" fill="#818181" data-original="#000000" class=""/>
	</g>
</g>
<g xmlns="http://www.w3.org/2000/svg">
</g>
<g xmlns="http://www.w3.org/2000/svg">
</g>
<g xmlns="http://www.w3.org/2000/svg">
</g>
<g xmlns="http://www.w3.org/2000/svg">
</g>
<g xmlns="http://www.w3.org/2000/svg">
</g>
<g xmlns="http://www.w3.org/2000/svg">
</g>
<g xmlns="http://www.w3.org/2000/svg">
</g>
<g xmlns="http://www.w3.org/2000/svg">
</g>
<g xmlns="http://www.w3.org/2000/svg">
</g>
<g xmlns="http://www.w3.org/2000/svg">
</g>
<g xmlns="http://www.w3.org/2000/svg">
</g>
<g xmlns="http://www.w3.org/2000/svg">
</g>
<g xmlns="http://www.w3.org/2000/svg">
</g>
<g xmlns="http://www.w3.org/2000/svg">
</g>
<g xmlns="http://www.w3.org/2000/svg">
</g>
</g></svg>
