<svg width="31" height="31" viewBox="0 0 31 31" fill="none" xmlns="http://www.w3.org/2000/svg">
<path d="M27.1058 0C28.1808 0 29.0981 0.38258 29.8556 1.14002C30.6174 1.90187 31 2.81919 31 3.89416V27.1003C31 27.656 30.8931 28.1665 30.6869 28.6362C30.4774 29.1091 30.2018 29.5127 29.8556 29.8589C29.5138 30.2007 29.0981 30.4763 28.6163 30.6869C28.1345 30.8964 27.6284 31 27.1058 31H3.83352C3.31092 31 2.81697 30.8975 2.3517 30.6869C1.88643 30.4774 1.48291 30.2007 1.14113 29.8589C0.799342 29.5127 0.519291 29.1102 0.313116 28.6362C0.103635 28.1665 0 27.656 0 27.1003V3.89526C0 3.37266 0.102532 2.86659 0.313116 2.38479C0.519291 1.89967 0.79824 1.48291 1.14113 1.14112C1.48291 0.799338 1.88974 0.523705 2.36383 0.313121C2.83351 0.103639 3.32305 0 3.83352 0H27.1058ZM24.1885 9.33076C24.1885 8.09372 23.1852 7.09041 21.9482 7.09041H8.31863C7.08158 7.09041 6.07828 8.09372 6.07828 9.33076V22.9603C6.07828 24.1974 7.08158 25.2007 8.31863 25.2007H21.9482C23.1852 25.2007 24.1885 24.1974 24.1885 22.9603V9.33076ZM15.1566 12.3407C17.2404 12.3407 18.9294 14.0298 18.9294 16.1136C18.9294 18.1974 17.2404 19.8864 15.1566 19.8864C13.0728 19.8864 11.3837 18.1974 11.3837 16.1136C11.3837 14.0298 13.0728 12.3407 15.1566 12.3407ZM22.6792 11.6174C22.6792 12.0342 22.3418 12.3716 21.925 12.3716H19.6615C19.2448 12.3716 18.9074 12.0331 18.9074 11.6174V9.35391C18.9074 8.93715 19.2459 8.59978 19.6615 8.59978H21.925C22.3418 8.59978 22.6792 8.93715 22.6792 9.35391V11.6174ZM21.9713 23.6913H8.3892C7.97355 23.6913 7.58765 23.3054 7.58765 22.8897V14.6362H10.0904C9.94819 15.108 9.87432 15.6097 9.87432 16.1257C9.87432 17.5369 10.4234 18.8567 11.4212 19.8545C12.419 20.8523 13.7453 21.3991 15.1566 21.3991C16.5667 21.3991 17.8942 20.8479 18.8908 19.8512C19.8886 18.8534 20.4377 17.538 20.4377 16.1268C20.4377 15.6108 20.3638 15.108 20.2227 14.6362H22.6781V22.8897C22.6792 23.3054 22.387 23.6913 21.9713 23.6913Z" fill="#818181"/>
</svg>