<?xml version="1.0"?>
<svg xmlns="http://www.w3.org/2000/svg" xmlns:xlink="http://www.w3.org/1999/xlink" xmlns:svgjs="http://svgjs.com/svgjs" version="1.1" width="512" height="512" x="0" y="0" viewBox="0 0 512 512" style="enable-background:new 0 0 512 512" xml:space="preserve" class=""><g><g xmlns="http://www.w3.org/2000/svg" id="Star"><g><path d="m397.929 498.915-141.929-88.814-141.929 88.813c-5.156 3.267-11.807 3.018-16.772-.586-4.951-3.589-7.222-9.829-5.728-15.762l40.605-162.437-126.812-107.518c-4.688-3.926-6.519-10.313-4.629-16.128 1.89-5.83 7.134-9.917 13.228-10.342l165.514-11.558 62.607-155.288c4.6-11.338 23.232-11.338 27.832 0l62.607 155.288 165.514 11.558c6.094.425 11.338 4.512 13.228 10.342 1.89 5.815.059 12.202-4.629 16.128l-126.813 107.52 40.605 162.437c1.494 5.933-.776 12.173-5.728 15.762-5.067 3.68-11.699 3.763-16.771.585z" fill="#51c694" data-original="#000000" class=""/></g></g></g></svg>
