<svg width="13" height="46" viewBox="0 0 13 46" fill="none" xmlns="http://www.w3.org/2000/svg">
<path d="M0.203125 0H12.7969L10.6979 29.6921H2.30208L0.203125 0ZM6.5 46C4.64931 46 3.09201 45.4369 1.82813 44.3107C0.609375 43.1412 0 41.7335 0 40.0876C0 38.4416 0.609375 37.0772 1.82813 35.9944C3.04688 34.8682 4.60417 34.3051 6.5 34.3051C8.39583 34.3051 9.95312 34.8682 11.1719 35.9944C12.3906 37.0772 13 38.4416 13 40.0876C13 41.7335 12.3681 43.1412 11.1042 44.3107C9.88542 45.4369 8.35069 46 6.5 46Z" fill="#FFBD00"/>
</svg>
