<svg width="60" height="43" viewBox="0 0 60 43" fill="none" xmlns="http://www.w3.org/2000/svg">
<path d="M59.6199 20.6694L59.124 21.2971L59.124 21.2971L59.6199 20.6694ZM59.6199 22.2387L60.1159 22.8664L59.6199 22.2387ZM33.733 0.217207L33.2371 0.844927L33.733 0.217207ZM32.1131 12.4541L32.1131 13.2541L32.9131 13.2541L32.9131 12.4541L32.1131 12.4541ZM32.1131 30.4541L32.9131 30.4541L32.9131 29.6541L32.1131 29.6541L32.1131 30.4541ZM33.733 42.6909L34.229 43.3186L33.733 42.6909ZM59.124 21.2971C59.2253 21.3772 59.2253 21.5309 59.124 21.611L60.1159 22.8664C61.028 22.1458 61.028 20.7623 60.1159 20.0416L59.124 21.2971ZM33.2371 0.844927L59.124 21.2971L60.1159 20.0416L34.229 -0.410522L33.2371 0.844927ZM32.9131 1.0019C32.9131 0.834727 33.1059 0.741317 33.2371 0.844927L34.229 -0.410522C33.0487 -1.34302 31.3131 -0.502353 31.3131 1.0019L32.9131 1.0019ZM32.9131 12.4541L32.9131 1.0019L31.3131 1.0019L31.3131 12.4541L32.9131 12.4541ZM1.613 13.2541L32.1131 13.2541L32.1131 11.6541L1.613 11.6541L1.613 13.2541ZM1.413 13.4541C1.413 13.3436 1.5026 13.2541 1.613 13.2541L1.613 11.6541C0.6189 11.6541 -0.187001 12.46 -0.187001 13.4541L1.413 13.4541ZM1.413 29.4541L1.413 13.4541L-0.187001 13.4541L-0.187002 29.4541L1.413 29.4541ZM1.613 29.6541C1.5026 29.6541 1.413 29.5646 1.413 29.4541L-0.187002 29.4541C-0.187002 30.4482 0.618899 31.2541 1.613 31.2541L1.613 29.6541ZM32.1131 29.6541L1.613 29.6541L1.613 31.2541L32.1131 31.2541L32.1131 29.6541ZM32.9131 41.9062L32.9131 30.4541L31.3131 30.4541L31.3131 41.9062L32.9131 41.9062ZM33.2371 42.0631C33.1059 42.1667 32.9131 42.0733 32.9131 41.9062L31.3131 41.9062C31.3131 43.4104 33.0487 44.2511 34.229 43.3186L33.2371 42.0631ZM59.124 21.611L33.2371 42.0631L34.229 43.3186L60.1159 22.8664L59.124 21.611Z" fill="#151116"/>
</svg>
