<svg width="32" height="32" viewBox="0 0 32 32" fill="none" xmlns="http://www.w3.org/2000/svg">
<path d="M16.2848 0.318848C7.7823 0.318848 0.8895 7.15724 0.8895 15.5957C0.8895 18.4821 1.6959 21.1797 3.0975 23.4837L0.319901 31.6789L8.8447 28.9717C11.0495 30.1813 13.5871 30.8725 16.2848 30.8725C24.7872 30.8725 31.68 24.0309 31.68 15.5957C31.68 7.15724 24.7872 0.318848 16.2848 0.318848ZM23.9392 21.3973C23.5776 22.2965 21.9392 23.1157 21.216 23.1509C20.4928 23.1893 20.4736 23.7109 16.5376 22.0021C12.6015 20.2933 10.2335 16.1333 10.0479 15.8645C9.8623 15.5989 8.5247 13.6916 8.5951 11.7716C8.6687 9.85164 9.7183 8.94604 10.0927 8.57164C10.4671 8.19404 10.8959 8.12684 11.1583 8.12364C11.4687 8.11724 11.6703 8.11404 11.8975 8.12364C12.1279 8.13324 12.4703 8.07564 12.7679 8.86924C13.0655 9.66284 13.7791 11.6084 13.8687 11.81C13.9583 12.0084 14.0159 12.2388 13.8751 12.4948C13.7343 12.7508 13.6607 12.9108 13.4591 13.1316C13.2543 13.3524 13.0271 13.6244 12.8447 13.794C12.6399 13.9796 12.4255 14.1844 12.6431 14.5844C12.8575 14.9844 13.5999 16.2901 14.7263 17.3653C16.176 18.7477 17.4272 19.2085 17.8144 19.4165C18.2016 19.6277 18.432 19.6021 18.6688 19.3525C18.9056 19.0997 19.6928 18.2517 19.9712 17.8709C20.2496 17.4901 20.5088 17.5637 20.864 17.7077C21.2192 17.8517 23.1136 18.8661 23.5008 19.0773C23.888 19.2853 24.144 19.3941 24.2368 19.5605C24.3296 19.7173 24.3008 20.4981 23.9392 21.3973Z" fill="white"/>
</svg>