<svg width="32" height="32" viewBox="0 0 32 32" fill="none" xmlns="http://www.w3.org/2000/svg">
<path d="M30.1876 18.0186C30.274 17.3818 30.322 16.7354 30.322 16.0762C30.322 8.16585 23.874 1.75305 15.922 1.75305C15.1316 1.75305 14.3572 1.81705 13.602 1.94185C12.2516 1.05866 10.642 0.543457 8.91079 0.543457C4.16199 0.543457 0.318787 4.39305 0.318787 9.13865C0.318787 10.8667 0.827587 12.4699 1.70119 13.8171C1.58279 14.5531 1.52199 15.3083 1.52199 16.0762C1.52199 23.9898 7.96679 30.4026 15.922 30.4026C16.8212 30.4026 17.6948 30.3162 18.5428 30.1626C19.8612 30.9818 21.4164 31.4586 23.0836 31.4586C27.8324 31.4554 31.6788 27.6058 31.6788 22.8602C31.6788 21.065 31.1284 19.3978 30.1876 18.0186ZM17.2692 26.633C12.6932 26.873 10.5524 25.8586 8.59079 24.0186C6.39879 21.9642 7.27879 19.6186 9.06439 19.497C10.8468 19.3786 11.9188 21.5194 12.8724 22.1146C13.8228 22.7066 17.442 24.0602 19.3524 21.8746C21.4324 19.497 17.97 18.265 15.4292 17.8938C11.8036 17.3562 7.22439 15.3947 7.57959 11.5291C7.93479 7.66665 10.8628 5.68585 13.9412 5.40745C17.8644 5.05225 20.4212 6.00265 22.4404 7.72745C24.7764 9.72105 23.5124 11.9483 22.0244 12.1275C20.5428 12.3067 18.8756 8.85065 15.6052 8.79945C12.2356 8.74505 9.95719 12.3067 14.1172 13.3179C18.2804 14.3291 22.738 14.7451 24.3444 18.5498C25.9508 22.3514 21.8484 26.393 17.2692 26.633Z" fill="white"/>
</svg>