<svg width="47" height="37" viewBox="0 0 47 37" fill="none" xmlns="http://www.w3.org/2000/svg">
<g clip-path="url(#clip0_2389_1505)">
<path d="M45.8023 36.2401V36.3336H45.8889C45.9079 36.3336 45.9243 36.3292 45.9362 36.3217C45.9471 36.3146 45.9532 36.3021 45.9532 36.2865C45.9532 36.2713 45.9471 36.2594 45.9362 36.252C45.9243 36.2438 45.9079 36.2401 45.8889 36.2401H45.8023ZM45.8895 36.1751C45.9342 36.1751 45.9689 36.1849 45.9934 36.2049C46.018 36.2249 46.0299 36.252 46.0299 36.2865C46.0299 36.3156 46.0207 36.339 46.0006 36.3583C45.9815 36.3762 45.9543 36.3881 45.9178 36.3925L46.0326 36.5239H45.9434L45.8371 36.3935H45.8023V36.5239H45.7278V36.1751H45.8895ZM45.8671 36.6448C45.9079 36.6448 45.9461 36.6364 45.9805 36.6211C46.0163 36.6055 46.0469 36.5849 46.0735 36.5585C46.0997 36.5324 46.1208 36.5016 46.1361 36.465C46.1508 36.4298 46.159 36.3918 46.159 36.3508C46.159 36.3102 46.1508 36.2719 46.1361 36.2367C46.1208 36.2011 46.0997 36.1696 46.0735 36.1432C46.0469 36.1168 46.0163 36.0962 45.9805 36.0806C45.9461 36.066 45.9079 36.0589 45.8671 36.0589C45.8262 36.0589 45.787 36.066 45.7516 36.0806C45.7151 36.0962 45.6831 36.1168 45.6569 36.1432C45.6303 36.1696 45.6096 36.2011 45.5949 36.2367C45.5796 36.2719 45.5724 36.3102 45.5724 36.3508C45.5724 36.3918 45.5796 36.4298 45.5949 36.465C45.6096 36.5016 45.6303 36.5324 45.6569 36.5585C45.6831 36.5849 45.7151 36.6055 45.7516 36.6211C45.787 36.6364 45.8262 36.6448 45.8671 36.6448ZM45.8671 35.9746C45.9205 35.9746 45.9696 35.9844 46.0169 36.0044C46.0633 36.0237 46.1035 36.0508 46.1389 36.0853C46.1736 36.1188 46.2009 36.1588 46.2206 36.2049C46.2407 36.2503 46.2506 36.2994 46.2506 36.3508C46.2506 36.4027 46.2407 36.4514 46.2206 36.4968C46.2009 36.5422 46.1736 36.5822 46.1389 36.6167C46.1035 36.6502 46.0633 36.6773 46.0169 36.6973C45.9696 36.7173 45.9205 36.7271 45.8671 36.7271C45.8122 36.7271 45.7625 36.7173 45.7151 36.6973C45.6678 36.6773 45.6269 36.6502 45.5922 36.6167C45.5578 36.5822 45.5305 36.5422 45.5104 36.4968C45.4903 36.4514 45.4805 36.4027 45.4805 36.3508C45.4805 36.2994 45.4903 36.2503 45.5104 36.2049C45.5305 36.1588 45.5578 36.1188 45.5922 36.0853C45.6269 36.0508 45.6678 36.0237 45.7151 36.0044C45.7625 35.9844 45.8122 35.9746 45.8671 35.9746ZM10.4326 34.6298C10.4326 33.9643 10.87 33.4175 11.5849 33.4175C12.2679 33.4175 12.729 33.9407 12.729 34.6298C12.729 35.3189 12.2679 35.8421 11.5849 35.8421C10.87 35.8421 10.4326 35.2955 10.4326 34.6298ZM13.5075 34.6298V32.7365H12.6817V33.1962C12.4198 32.8553 12.0223 32.6413 11.4821 32.6413C10.4171 32.6413 9.58219 33.4737 9.58219 34.6298C9.58219 35.7869 10.4171 36.6184 11.4821 36.6184C12.0223 36.6184 12.4198 36.4044 12.6817 36.0633V36.5232H13.5075V34.6298ZM41.4142 34.6298C41.4142 33.9643 41.8516 33.4175 42.5665 33.4175C43.2505 33.4175 43.7106 33.9407 43.7106 34.6298C43.7106 35.3189 43.2505 35.8421 42.5665 35.8421C41.8516 35.8421 41.4142 35.2955 41.4142 34.6298ZM44.49 34.6298V31.2158H43.6633V33.1962C43.4014 32.8553 43.0039 32.6413 42.4636 32.6413C41.3985 32.6413 40.5637 33.4737 40.5637 34.6298C40.5637 35.7869 41.3985 36.6184 42.4636 36.6184C43.0039 36.6184 43.4014 36.4044 43.6633 36.0633V36.5232H44.49V34.6298ZM23.7583 33.3785C24.2903 33.3785 24.6323 33.7113 24.7197 34.2971H22.7488C22.837 33.7502 23.1699 33.3785 23.7583 33.3785ZM23.7747 32.6413C22.6615 32.6413 21.883 33.4492 21.883 34.6298C21.883 35.834 22.6933 36.6184 23.8302 36.6184C24.4022 36.6184 24.9261 36.4762 25.3872 36.088L24.9825 35.4777C24.6642 35.7307 24.2585 35.874 23.8775 35.874C23.3454 35.874 22.8607 35.6281 22.7415 34.9463H25.5618C25.57 34.8437 25.5782 34.7404 25.5782 34.6298C25.57 33.4492 24.8388 32.6413 23.7747 32.6413ZM33.7463 34.6298C33.7463 33.9643 34.1837 33.4175 34.8986 33.4175C35.5815 33.4175 36.0427 33.9407 36.0427 34.6298C36.0427 35.3189 35.5815 35.8421 34.8986 35.8421C34.1837 35.8421 33.7463 35.2955 33.7463 34.6298ZM36.8214 34.6298V32.7365H35.9954V33.1962C35.7324 32.8553 35.336 32.6413 34.7957 32.6413C33.7308 32.6413 32.8959 33.4737 32.8959 34.6298C32.8959 35.7869 33.7308 36.6184 34.7957 36.6184C35.336 36.6184 35.7324 36.4044 35.9954 36.0633V36.5232H36.8214V34.6298ZM29.0825 34.6298C29.0825 35.7788 29.8846 36.6184 31.1088 36.6184C31.6808 36.6184 32.0619 36.4914 32.4748 36.1669L32.0783 35.5011C31.7681 35.7233 31.4425 35.8421 31.0842 35.8421C30.4248 35.834 29.9401 35.3588 29.9401 34.6298C29.9401 33.9008 30.4248 33.4256 31.0842 33.4175C31.4425 33.4175 31.7681 33.5363 32.0783 33.7584L32.4748 33.0929C32.0619 32.7682 31.6808 32.6413 31.1088 32.6413C29.8846 32.6413 29.0825 33.481 29.0825 34.6298ZM39.7299 32.6413C39.2534 32.6413 38.9431 32.8634 38.7285 33.1962V32.7365H37.91V36.5232H38.7366V34.4004C38.7366 33.7738 39.0068 33.4256 39.547 33.4256C39.7142 33.4256 39.8889 33.4492 40.0637 33.5209L40.3181 32.7447C40.1355 32.673 39.8971 32.6413 39.7299 32.6413ZM17.592 33.0375C17.1946 32.7764 16.6471 32.6413 16.0432 32.6413C15.0809 32.6413 14.4616 33.101 14.4616 33.8536C14.4616 34.4711 14.9227 34.8518 15.7721 34.9707L16.1623 35.0262C16.6152 35.0896 16.829 35.2085 16.829 35.4225C16.829 35.7151 16.527 35.8821 15.9632 35.8821C15.3911 35.8821 14.9782 35.6999 14.6998 35.4858L14.3106 36.127C14.7635 36.4596 15.3356 36.6184 15.9549 36.6184C17.0518 36.6184 17.6875 36.1033 17.6875 35.3825C17.6875 34.717 17.1873 34.3687 16.3606 34.2499L15.9713 34.1937C15.6139 34.1465 15.3274 34.0758 15.3274 33.8219C15.3274 33.5444 15.5975 33.3785 16.0505 33.3785C16.5352 33.3785 17.0045 33.5608 17.2346 33.7031L17.592 33.0375ZM28.2475 32.6413C27.7709 32.6413 27.4608 32.8634 27.2471 33.1962V32.7365H26.4286V36.5232H27.2544V34.4004C27.2544 33.7738 27.5245 33.4256 28.0647 33.4256C28.2321 33.4256 28.4067 33.4492 28.5813 33.5209L28.836 32.7447C28.6532 32.673 28.4149 32.6413 28.2475 32.6413ZM21.1999 32.7365H19.8494V31.5876H19.0144V32.7365H18.2441V33.4891H19.0144V35.2166C19.0144 36.0951 19.3564 36.6184 20.3332 36.6184C20.6916 36.6184 21.1045 36.5077 21.3664 36.3254L21.1281 35.62C20.8816 35.7625 20.6115 35.834 20.3969 35.834C19.984 35.834 19.8494 35.58 19.8494 35.2003V33.4891H21.1999V32.7365ZM8.85188 36.5232V34.1465C8.85188 33.2515 8.27982 32.6494 7.3576 32.6413C6.87284 32.6331 6.37262 32.7836 6.02246 33.315C5.76053 32.8952 5.34764 32.6413 4.7674 32.6413C4.36177 32.6413 3.96522 32.7601 3.65509 33.2035V32.7365H2.82837V36.5232H3.66237V34.424C3.66237 33.7666 4.02796 33.4175 4.59277 33.4175C5.14119 33.4175 5.41859 33.7738 5.41859 34.4158V36.5232H6.25347V34.424C6.25347 33.7666 6.63455 33.4175 7.18297 33.4175C7.74686 33.4175 8.01696 33.7738 8.01696 34.4158V36.5232H8.85188Z" fill="#231F20"/>
<path d="M46.3115 23.9301V23.377H46.1671L45.9995 23.7569L45.8333 23.377H45.6879V23.9301H45.7904V23.513L45.9471 23.873H46.0533L46.2097 23.5121V23.9301H46.3115ZM45.3939 23.9301V23.4712H45.5796V23.3779H45.1064V23.4712H45.2921V23.9301H45.3939Z" fill="#F79410"/>
<path d="M29.8683 26.3097H17.3523V3.8833H29.8683V26.3097Z" fill="#FF5F00"/>
<path d="M18.1535 15.0947C18.1535 10.5454 20.2899 6.49305 23.6168 3.88152C21.1839 1.97185 18.1135 0.832031 14.7766 0.832031C6.87681 0.832031 0.473145 7.21757 0.473145 15.0947C0.473145 22.9719 6.87681 29.3574 14.7766 29.3574C18.1135 29.3574 21.1839 28.2176 23.6168 26.308C20.2899 23.6964 18.1535 19.644 18.1535 15.0947Z" fill="#EB001B"/>
<path d="M46.7483 15.0947C46.7483 22.9719 40.3447 29.3574 32.4448 29.3574C29.1079 29.3574 26.0375 28.2176 23.6038 26.308C26.9316 23.6964 29.068 19.644 29.068 15.0947C29.068 10.5454 26.9316 6.49305 23.6038 3.88152C26.0375 1.97185 29.1079 0.832031 32.4448 0.832031C40.3447 0.832031 46.7483 7.21757 46.7483 15.0947Z" fill="#F79E1B"/>
</g>
<defs>
<clipPath id="clip0_2389_1505">
<rect width="46.3235" height="35.9007" fill="white" transform="translate(0.456055 0.84375)"/>
</clipPath>
</defs>
</svg>
