<svg width="69" height="23" viewBox="0 0 69 23" fill="none" xmlns="http://www.w3.org/2000/svg">
<g clip-path="url(#clip0_2389_1486)">
<path d="M30.1643 21.8085H24.6763L28.1089 0.597656H33.5967L30.1643 21.8085Z" fill="#00579F"/>
<path d="M50.0592 1.11641C48.9766 0.68724 47.2598 0.213379 45.1369 0.213379C39.7171 0.213379 35.9008 3.10152 35.8771 7.23069C35.8324 10.2772 38.6097 11.9693 40.6872 12.9851C42.8105 14.0231 43.532 14.7006 43.532 15.6258C43.5106 17.0468 41.8163 17.7018 40.2364 17.7018C38.0454 17.7018 36.8713 17.3641 35.0872 16.5735L34.3644 16.2346L33.5964 20.996C34.8836 21.582 37.2551 22.1021 39.7171 22.1248C45.4757 22.1248 49.2245 19.2814 49.2689 14.8811C49.2909 12.4665 47.8242 10.6164 44.6624 9.10452C42.7427 8.13403 41.5673 7.4796 41.5673 6.48663C41.59 5.58387 42.5615 4.65924 44.7284 4.65924C46.5126 4.61398 47.8235 5.04254 48.8163 5.47141L49.3129 5.69666L50.0592 1.11641Z" fill="#00579F"/>
<path d="M57.3532 14.2943C57.8051 13.0757 59.5442 8.35965 59.5442 8.35965C59.5215 8.40494 59.9954 7.11861 60.2664 6.32895L60.6498 8.15661C60.6498 8.15661 61.6891 13.2338 61.915 14.2943C61.0573 14.2943 58.4371 14.2943 57.3532 14.2943ZM64.1277 0.597656H59.8826C58.5733 0.597656 57.5788 0.98094 57.0141 2.35753L48.8623 21.8082H54.6206C54.6206 21.8082 55.5687 19.1903 55.7726 18.6265C56.4044 18.6265 62.0061 18.6265 62.8188 18.6265C62.9763 19.3712 63.4735 21.8082 63.4735 21.8082H68.555L64.1277 0.597656Z" fill="#00579F"/>
<path d="M20.0926 0.597656L14.7179 15.0615L14.1306 12.128C13.137 8.74322 10.0206 5.06573 6.54297 3.23717L11.466 21.7861H17.2694L25.8957 0.597656H20.0926Z" fill="#00579F"/>
<path d="M9.72698 0.597656H0.897217L0.806885 1.02623C7.69467 2.7864 12.2563 7.02924 14.1305 12.1289L12.211 2.38062C11.895 1.02593 10.9238 0.642341 9.72698 0.597656Z" fill="#FAA61A"/>
</g>
<defs>
<clipPath id="clip0_2389_1486">
<rect width="67.7482" height="22.0037" fill="white" transform="translate(0.806885 0.213379)"/>
</clipPath>
</defs>
</svg>
