<svg width="85" height="36" viewBox="0 0 85 36" fill="none" xmlns="http://www.w3.org/2000/svg">
<g clip-path="url(#clip0_2389_1495)">
<path d="M11.167 26.7822C11.167 27.0556 11.0657 27.2722 10.8631 27.432C10.6621 27.5918 10.3942 27.6717 10.0596 27.6717C9.65745 27.6717 9.3491 27.6277 9.13452 27.5395V27.311C9.37159 27.4111 9.67395 27.4611 10.0416 27.4611C10.3117 27.4611 10.5255 27.3999 10.6831 27.2774C10.8421 27.1534 10.9216 26.9914 10.9216 26.7912C10.9216 26.6672 10.8954 26.5649 10.8429 26.4842C10.7903 26.4021 10.7048 26.3274 10.5863 26.2602C10.4677 26.193 10.2937 26.1205 10.0641 26.0429C9.72798 25.9278 9.49539 25.8038 9.36635 25.6709C9.2388 25.5365 9.17502 25.358 9.17502 25.1354C9.17502 24.8904 9.27107 24.691 9.46312 24.5372C9.6567 24.3819 9.90502 24.3042 10.2081 24.3042C10.5173 24.3042 10.8076 24.3624 11.0792 24.4789L10.9959 24.6761C10.7228 24.5626 10.4617 24.5058 10.2127 24.5058C9.96956 24.5058 9.77599 24.5618 9.63194 24.6739C9.48788 24.7859 9.41587 24.9383 9.41587 25.131C9.41587 25.2519 9.43761 25.3513 9.48113 25.4289C9.52614 25.5066 9.59891 25.5768 9.69947 25.6395C9.79999 25.7008 9.97255 25.7747 10.2172 25.8614C10.4737 25.9495 10.6666 26.0354 10.7956 26.119C10.9246 26.2012 11.0184 26.2953 11.077 26.4013C11.137 26.5059 11.167 26.6329 11.167 26.7822ZM12.029 27.6269H11.8062V25.1914H12.029V27.6269ZM11.7747 24.5148C11.7747 24.3714 11.822 24.2997 11.9165 24.2997C11.963 24.2997 11.999 24.3184 12.0245 24.3557C12.0515 24.3931 12.0651 24.4461 12.0651 24.5148C12.0651 24.582 12.0515 24.635 12.0245 24.6739C11.999 24.7127 11.963 24.7321 11.9165 24.7321C11.822 24.7321 11.7747 24.6597 11.7747 24.5148ZM13.8387 27.6717C13.4831 27.6717 13.2055 27.5627 13.0059 27.3446C12.8078 27.1265 12.7088 26.8211 12.7088 26.4282C12.7088 26.0399 12.8048 25.7292 12.9969 25.4961C13.189 25.2616 13.4478 25.1444 13.7734 25.1444C14.0615 25.1444 14.2889 25.2445 14.4554 25.4446C14.622 25.6448 14.7052 25.9166 14.7052 26.2602V26.4394H12.9429C12.9459 26.774 13.0239 27.0294 13.177 27.2057C13.3315 27.382 13.5521 27.4701 13.8387 27.4701C13.9782 27.4701 14.1005 27.4604 14.2056 27.4409C14.3121 27.4215 14.4464 27.3797 14.6085 27.3155V27.5171C14.4704 27.5769 14.3429 27.6172 14.2258 27.6381C14.1088 27.6605 13.9798 27.6717 13.8387 27.6717ZM13.7734 25.3415C13.5378 25.3415 13.3488 25.4192 13.2062 25.5746C13.0637 25.7284 12.9804 25.951 12.9564 26.2423H14.4689C14.4689 25.96 14.4074 25.7396 14.2844 25.5813C14.1613 25.4215 13.991 25.3415 13.7734 25.3415ZM18.284 27.6269V26.0473C18.284 25.8024 18.2322 25.6246 18.1287 25.5141C18.0252 25.402 17.8646 25.346 17.6471 25.346C17.3544 25.346 17.1399 25.42 17.0033 25.5679C16.8683 25.7142 16.8008 25.9525 16.8008 26.2826V27.6269H16.5779V24.1406H16.8008V25.2497L16.7895 25.5611H16.8052C16.8968 25.4148 17.0123 25.3087 17.1519 25.243C17.2914 25.1772 17.4647 25.1444 17.6718 25.1444C18.227 25.1444 18.5046 25.4409 18.5046 26.0339V27.6269H18.284ZM20.7824 27.6269L20.7261 27.2415H20.7082C20.5851 27.3984 20.4583 27.5097 20.3278 27.5754C20.1987 27.6396 20.0457 27.6717 19.8686 27.6717C19.6285 27.6717 19.4417 27.6105 19.3081 27.488C19.1746 27.3655 19.1078 27.196 19.1078 26.9794C19.1078 26.7419 19.2069 26.5574 19.4049 26.426C19.6045 26.2945 19.8926 26.2251 20.2692 26.2176L20.7352 26.2042V26.0429C20.7352 25.8113 20.6879 25.6366 20.5933 25.5186C20.4988 25.4006 20.3465 25.3415 20.1364 25.3415C19.9099 25.3415 19.675 25.4043 19.4319 25.5298L19.3487 25.3371C19.6173 25.2116 19.8828 25.1489 20.1454 25.1489C20.414 25.1489 20.6144 25.2183 20.7464 25.3572C20.88 25.4961 20.9467 25.7127 20.9467 26.007V27.6269H20.7824ZM19.8821 27.4701C20.1432 27.4701 20.3488 27.3961 20.4988 27.2483C20.6504 27.0989 20.7261 26.892 20.7261 26.6276V26.3879L20.2985 26.4058C19.9549 26.4222 19.7095 26.476 19.5625 26.5671C19.4169 26.6567 19.3442 26.7972 19.3442 26.9884C19.3442 27.1407 19.3907 27.2595 19.4837 27.3446C19.5782 27.4283 19.711 27.4701 19.8821 27.4701ZM22.7744 25.1444C23.1165 25.1444 23.3738 25.2519 23.5464 25.467C23.7205 25.6806 23.8075 25.9936 23.8075 26.4058C23.8075 26.8106 23.716 27.1228 23.5329 27.3424C23.3513 27.562 23.0955 27.6717 22.7654 27.6717C22.5913 27.6717 22.4345 27.6359 22.295 27.5642C22.1554 27.4925 22.0451 27.3909 21.9641 27.2595H21.9438L21.8808 27.6269H21.7413V24.1406H21.9641V25.0167C21.9641 25.1481 21.9611 25.2691 21.9551 25.3797L21.9483 25.5701H21.9641C22.0571 25.4237 22.1689 25.3162 22.2995 25.2474C22.4315 25.1787 22.5898 25.1444 22.7744 25.1444ZM22.7699 25.346C22.4818 25.346 22.2754 25.4282 22.1509 25.5925C22.0264 25.7568 21.9641 26.0279 21.9641 26.4058V26.4439C21.9641 26.8114 22.0286 27.075 22.1577 27.2348C22.2882 27.3946 22.4908 27.4746 22.7654 27.4746C23.0325 27.4746 23.2336 27.382 23.3686 27.1967C23.5036 27.01 23.5712 26.7449 23.5712 26.4013C23.5712 25.6978 23.3041 25.346 22.7699 25.346ZM25.4754 27.6717C25.1197 27.6717 24.8421 27.5627 24.6426 27.3446C24.4445 27.1265 24.3454 26.8211 24.3454 26.4282C24.3454 26.0399 24.4415 25.7292 24.6335 25.4961C24.8256 25.2616 25.0845 25.1444 25.4101 25.1444C25.6982 25.1444 25.9255 25.2445 26.0921 25.4446C26.2586 25.6448 26.3419 25.9166 26.3419 26.2602V26.4394H24.5795C24.5825 26.774 24.6606 27.0294 24.8136 27.2057C24.9682 27.382 25.1887 27.4701 25.4754 27.4701C25.6149 27.4701 25.7372 27.4604 25.8422 27.4409C25.9488 27.4215 26.0831 27.3797 26.2451 27.3155V27.5171C26.1071 27.5769 25.9795 27.6172 25.8625 27.6381C25.7454 27.6605 25.6164 27.6717 25.4754 27.6717ZM25.4101 25.3415C25.1745 25.3415 24.9854 25.4192 24.8429 25.5746C24.7003 25.7284 24.617 25.951 24.593 26.2423H26.1056C26.1056 25.96 26.0441 25.7396 25.921 25.5813C25.798 25.4215 25.6276 25.3415 25.4101 25.3415ZM28.7232 27.6269V26.0473C28.7232 25.8024 28.6715 25.6246 28.568 25.5141C28.4644 25.402 28.3039 25.346 28.0863 25.346C27.7937 25.346 27.5791 25.42 27.4426 25.5679C27.3075 25.7142 27.24 25.9525 27.24 26.2826V27.6269H27.0171V25.1914H27.2062L27.249 25.5253H27.2625C27.4215 25.2714 27.7044 25.1444 28.111 25.1444C28.6662 25.1444 28.9438 25.4409 28.9438 26.0339V27.6269H28.7232ZM32.4191 27.6269L32.3628 27.2415H32.3448C32.2218 27.3984 32.095 27.5097 31.9644 27.5754C31.8354 27.6396 31.6823 27.6717 31.5052 27.6717C31.2652 27.6717 31.0783 27.6105 30.9448 27.488C30.8113 27.3655 30.7445 27.196 30.7445 26.9794C30.7445 26.7419 30.8435 26.5574 31.0416 26.426C31.2412 26.2945 31.5293 26.2251 31.9059 26.2176L32.3718 26.2042V26.0429C32.3718 25.8113 32.3245 25.6366 32.23 25.5186C32.1355 25.4006 31.9832 25.3415 31.7731 25.3415C31.5465 25.3415 31.3117 25.4043 31.0686 25.5298L30.9853 25.3371C31.2539 25.2116 31.5195 25.1489 31.7821 25.1489C32.0507 25.1489 32.251 25.2183 32.3831 25.3572C32.5166 25.4961 32.5834 25.7127 32.5834 26.007V27.6269H32.4191ZM31.5188 27.4701C31.7798 27.4701 31.9854 27.3961 32.1355 27.2483C32.287 27.0989 32.3628 26.892 32.3628 26.6276V26.3879L31.9351 26.4058C31.5915 26.4222 31.3462 26.476 31.1991 26.5671C31.0536 26.6567 30.9808 26.7972 30.9808 26.9884C30.9808 27.1407 31.0273 27.2595 31.1204 27.3446C31.2149 27.4283 31.3477 27.4701 31.5188 27.4701ZM33.5715 25.1914V26.7688C33.5715 27.0137 33.6232 27.1922 33.7269 27.3043C33.8303 27.4148 33.9909 27.4701 34.2086 27.4701C34.4997 27.4701 34.7133 27.3969 34.85 27.2505C34.9879 27.1041 35.0571 26.8659 35.0571 26.5358V25.1914H35.2777V27.6269H35.0884L35.0479 27.2908H35.0344C34.8753 27.5448 34.5925 27.6717 34.1859 27.6717C33.6291 27.6717 33.3509 27.3752 33.3509 26.7822V25.1914H33.5715ZM37.0738 27.6717C36.7241 27.6717 36.4502 27.562 36.2523 27.3424C36.0541 27.1228 35.955 26.8166 35.955 26.4237C35.955 26.0204 36.0577 25.7068 36.2635 25.4827C36.469 25.2572 36.7505 25.1444 37.1074 25.1444C37.3191 25.1444 37.5216 25.181 37.7152 25.2542L37.6543 25.4513C37.4429 25.3811 37.2592 25.346 37.1031 25.346C36.8028 25.346 36.5756 25.4387 36.4209 25.6239C36.2665 25.8076 36.1891 26.0727 36.1891 26.4193C36.1891 26.7479 36.2665 27.0055 36.4209 27.1922C36.5756 27.3775 36.7916 27.4701 37.0692 27.4701C37.2915 27.4701 37.4976 27.4305 37.6882 27.3513V27.5575C37.5321 27.6336 37.3273 27.6717 37.0738 27.6717ZM39.9953 27.6269V26.0473C39.9953 25.8024 39.9437 25.6246 39.8399 25.5141C39.7365 25.402 39.5759 25.346 39.3582 25.346C39.0658 25.346 38.8512 25.42 38.7145 25.5679C38.5795 25.7142 38.512 25.9525 38.512 26.2826V27.6269H38.2891V24.1406H38.512V25.2497L38.5008 25.5611H38.5166C38.6082 25.4148 38.7237 25.3087 38.863 25.243C39.0026 25.1772 39.1761 25.1444 39.3829 25.1444C39.9384 25.1444 40.2159 25.4409 40.2159 26.0339V27.6269H39.9953ZM43.1013 25.1444C43.2784 25.1444 43.4315 25.1765 43.5606 25.2407C43.6896 25.305 43.8052 25.4148 43.9073 25.5701H43.9208C43.9116 25.3819 43.9073 25.1974 43.9073 25.0167V24.1406H44.1279V27.6269H43.9814L43.9251 27.255H43.9073C43.7213 27.5328 43.4539 27.6717 43.1059 27.6717C42.7684 27.6717 42.5102 27.5672 42.3318 27.3581C42.153 27.1489 42.0638 26.8442 42.0638 26.4439C42.0638 26.0227 42.1523 25.7008 42.3295 25.4782C42.5063 25.2557 42.7638 25.1444 43.1013 25.1444ZM43.1013 25.346C42.8342 25.346 42.6334 25.4394 42.4981 25.6261C42.3647 25.8128 42.2979 26.0839 42.2979 26.4394C42.2979 27.1295 42.5672 27.4746 43.1059 27.4746C43.3821 27.4746 43.5846 27.3946 43.7137 27.2348C43.8428 27.075 43.9073 26.8114 43.9073 26.4439V26.4058C43.9073 26.0294 43.8434 25.759 43.716 25.5947C43.5899 25.4289 43.3851 25.346 43.1013 25.346ZM45.9398 27.6717C45.5839 27.6717 45.3063 27.5627 45.1068 27.3446C44.9089 27.1265 44.8098 26.8211 44.8098 26.4282C44.8098 26.0399 44.9059 25.7292 45.0979 25.4961C45.2898 25.2616 45.5486 25.1444 45.8743 25.1444C46.1624 25.1444 46.3899 25.2445 46.5565 25.4446C46.7228 25.6448 46.8061 25.9166 46.8061 26.2602V26.4394H45.0439C45.0469 26.774 45.1249 27.0294 45.278 27.2057C45.4324 27.382 45.653 27.4701 45.9398 27.4701C46.0791 27.4701 46.2016 27.4604 46.3066 27.4409C46.413 27.4215 46.5473 27.3797 46.7093 27.3155V27.5171C46.5713 27.5769 46.4439 27.6172 46.3267 27.6381C46.2098 27.6605 46.0807 27.6717 45.9398 27.6717ZM45.8743 25.3415C45.6389 25.3415 45.4499 25.4192 45.3073 25.5746C45.1647 25.7284 45.0814 25.951 45.0574 26.2423H46.57C46.57 25.96 46.5084 25.7396 46.3853 25.5813C46.2622 25.4215 46.0919 25.3415 45.8743 25.3415ZM49.1876 27.6269V26.0473C49.1876 25.8024 49.1359 25.6246 49.0322 25.5141C48.9288 25.402 48.7682 25.346 48.5505 25.346C48.2581 25.346 48.0435 25.42 47.9068 25.5679C47.7718 25.7142 47.7043 25.9525 47.7043 26.2826V27.6269H47.4814V25.1914H47.6704L47.7132 25.5253H47.7267C47.8857 25.2714 48.1686 25.1444 48.5752 25.1444C49.1307 25.1444 49.4082 25.4409 49.4082 26.0339V27.6269H49.1876ZM52.9195 27.6269H51.1727V27.4858L52.6245 25.3886H51.2784V25.1914H52.9149V25.3326L51.4543 27.4297H52.9195V27.6269ZM53.7163 25.1914V26.7688C53.7163 27.0137 53.768 27.1922 53.8714 27.3043C53.9751 27.4148 54.1354 27.4701 54.3531 27.4701C54.6441 27.4701 54.8582 27.3969 54.9945 27.2505C55.1328 27.1041 55.2016 26.8659 55.2016 26.5358V25.1914H55.4222V27.6269H55.2332L55.1927 27.2908H55.1792C55.0202 27.5448 54.7373 27.6717 54.3307 27.6717C53.7739 27.6717 53.4957 27.3752 53.4957 26.7822V25.1914H53.7163ZM57.7586 26.9928C57.7586 27.2109 57.6753 27.379 57.5087 27.497C57.3421 27.6135 57.106 27.6717 56.7998 27.6717C56.4725 27.6717 56.2131 27.6217 56.0211 27.5216V27.2819C56.2671 27.4044 56.5265 27.4656 56.7998 27.4656C57.0415 27.4656 57.2246 27.426 57.349 27.3468C57.4751 27.2662 57.538 27.1594 57.538 27.0265C57.538 26.904 57.4876 26.8009 57.3872 26.7173C57.2881 26.6336 57.1248 26.5515 56.8966 26.4708C56.652 26.3827 56.4801 26.3072 56.381 26.2445C56.2822 26.1803 56.2071 26.1086 56.1561 26.0294C56.1064 25.9488 56.0817 25.8509 56.0817 25.7359C56.0817 25.5537 56.1584 25.4095 56.3115 25.3035C56.4659 25.1974 56.6813 25.1444 56.9572 25.1444C57.2216 25.1444 57.4722 25.1937 57.7092 25.2923L57.6259 25.4939C57.3859 25.3953 57.163 25.346 56.9572 25.346C56.7577 25.346 56.5996 25.3789 56.4824 25.4446C56.3655 25.5103 56.3069 25.6015 56.3069 25.718C56.3069 25.8449 56.352 25.9465 56.4419 26.0227C56.5334 26.0989 56.7112 26.184 56.9753 26.2781C57.1959 26.3573 57.3566 26.429 57.457 26.4932C57.5574 26.5559 57.6325 26.6276 57.6822 26.7083C57.7333 26.789 57.7586 26.8838 57.7586 26.9928ZM59.8744 27.6269L59.8181 27.2415H59.8C59.6772 27.3984 59.5501 27.5097 59.4197 27.5754C59.2907 27.6396 59.1376 27.6717 58.9604 27.6717C58.7204 27.6717 58.5337 27.6105 58.4 27.488C58.2667 27.3655 58.1998 27.196 58.1998 26.9794C58.1998 26.7419 58.2989 26.5574 58.4968 26.426C58.6963 26.2945 58.9844 26.2251 59.3611 26.2176L59.827 26.2042V26.0429C59.827 25.8113 59.7799 25.6366 59.6854 25.5186C59.5906 25.4006 59.4385 25.3415 59.2284 25.3415C59.0019 25.3415 58.7671 25.4043 58.5238 25.5298L58.4405 25.3371C58.7092 25.2116 58.9749 25.1489 59.2373 25.1489C59.506 25.1489 59.7062 25.2183 59.8382 25.3572C59.9719 25.4961 60.0387 25.7127 60.0387 26.007V27.6269H59.8744ZM58.9739 27.4701C59.235 27.4701 59.4408 27.3961 59.5906 27.2483C59.7424 27.0989 59.8181 26.892 59.8181 26.6276V26.3879L59.3904 26.4058C59.0467 26.4222 58.8014 26.476 58.6545 26.5671C58.509 26.6567 58.4362 26.7972 58.4362 26.9884C58.4362 27.1407 58.4827 27.2595 58.5755 27.3446C58.6703 27.4283 58.803 27.4701 58.9739 27.4701ZM58.614 24.5148C58.614 24.4461 58.6252 24.3968 58.6476 24.3669C58.6717 24.3371 58.7079 24.3221 58.7556 24.3221C58.8518 24.3221 58.8998 24.3863 58.8998 24.5148C58.8998 24.6432 58.8518 24.7075 58.7556 24.7075C58.6611 24.7075 58.614 24.6432 58.614 24.5148ZM59.4714 24.5148C59.4714 24.4461 59.4826 24.3968 59.5053 24.3669C59.5294 24.3371 59.5653 24.3221 59.6133 24.3221C59.7095 24.3221 59.7572 24.3863 59.7572 24.5148C59.7572 24.6432 59.7095 24.7075 59.6133 24.7075C59.5188 24.7075 59.4714 24.6432 59.4714 24.5148ZM61.4793 27.4746C61.6202 27.4746 61.7433 27.4626 61.8484 27.4387V27.618C61.7404 27.6538 61.6159 27.6717 61.4746 27.6717C61.2587 27.6717 61.099 27.6142 60.9952 27.4992C60.8932 27.3842 60.8421 27.2035 60.8421 26.957V25.3841H60.48V25.2542L60.8421 25.1533L60.9547 24.6022H61.0697V25.1914H61.7874V25.3841H61.0697V26.9256C61.0697 27.1123 61.1026 27.2505 61.1684 27.3401C61.2346 27.4297 61.338 27.4746 61.4793 27.4746ZM63.8987 27.6269H62.1523V27.4858L63.604 25.3886H62.258V25.1914H63.8944V25.3326L62.4335 27.4297H63.8987V27.6269ZM64.7248 27.6269H64.5019V24.1406H64.7248V27.6269ZM65.7692 27.6269H65.5463V25.1914H65.7692V27.6269ZM65.515 24.5148C65.515 24.3714 65.5621 24.2997 65.6566 24.2997C65.7033 24.2997 65.7392 24.3184 65.7646 24.3557C65.7916 24.3931 65.8054 24.4461 65.8054 24.5148C65.8054 24.582 65.7916 24.635 65.7646 24.6739C65.7392 24.7127 65.7033 24.7321 65.6566 24.7321C65.5621 24.7321 65.515 24.6597 65.515 24.5148ZM67.5676 27.6717C67.2179 27.6717 66.944 27.562 66.7461 27.3424C66.5479 27.1228 66.4491 26.8166 66.4491 26.4237C66.4491 26.0204 66.5518 25.7068 66.7573 25.4827C66.9628 25.2572 67.2443 25.1444 67.6015 25.1444C67.8129 25.1444 68.0154 25.181 68.209 25.2542L68.1484 25.4513C67.9367 25.3811 67.753 25.346 67.5969 25.346C67.2966 25.346 67.0694 25.4387 66.915 25.6239C66.7603 25.8076 66.6832 26.0727 66.6832 26.4193C66.6832 26.7479 66.7603 27.0055 66.915 27.1922C67.0694 27.3775 67.2854 27.4701 67.563 27.4701C67.7853 27.4701 67.9914 27.4305 68.182 27.3513V27.5575C68.0259 27.6336 67.8211 27.6717 67.5676 27.6717ZM70.4891 27.6269V26.0473C70.4891 25.8024 70.4374 25.6246 70.3337 25.5141C70.2303 25.402 70.0697 25.346 69.8523 25.346C69.5596 25.346 69.345 25.42 69.2083 25.5679C69.0733 25.7142 69.0058 25.9525 69.0058 26.2826V27.6269H68.7829V24.1406H69.0058V25.2497L68.9946 25.5611H69.0104C69.102 25.4148 69.2175 25.3087 69.3571 25.243C69.4964 25.1772 69.6699 25.1444 69.877 25.1444C70.4322 25.1444 70.7097 25.4409 70.7097 26.0339V27.6269H70.4891ZM72.4901 27.6717C72.1345 27.6717 71.8569 27.5627 71.6574 27.3446C71.4591 27.1265 71.3604 26.8211 71.3604 26.4282C71.3604 26.0399 71.4562 25.7292 71.6485 25.4961C71.8404 25.2616 72.0992 25.1444 72.4249 25.1444C72.713 25.1444 72.9402 25.2445 73.1068 25.4446C73.2734 25.6448 73.3567 25.9166 73.3567 26.2602V26.4394H71.5945C71.5974 26.774 71.6755 27.0294 71.8282 27.2057C71.983 27.382 72.2036 27.4701 72.4901 27.4701C72.6297 27.4701 72.7518 27.4604 72.8568 27.4409C72.9635 27.4215 73.0979 27.3797 73.2599 27.3155V27.5171C73.1219 27.5769 72.9942 27.6172 72.8773 27.6381C72.7604 27.6605 72.6313 27.6717 72.4901 27.6717ZM72.4249 25.3415C72.1891 25.3415 72.0001 25.4192 71.8575 25.5746C71.715 25.7284 71.6317 25.951 71.608 26.2423H73.1203C73.1203 25.96 73.0587 25.7396 72.9359 25.5813C72.8127 25.4215 72.6425 25.3415 72.4249 25.3415ZM75.7379 27.6269V26.0473C75.7379 25.8024 75.6862 25.6246 75.5828 25.5141C75.4791 25.402 75.3187 25.346 75.1011 25.346C74.8084 25.346 74.594 25.42 74.4574 25.5679C74.3224 25.7142 74.2549 25.9525 74.2549 26.2826V27.6269H74.032V25.1914H74.221L74.2638 25.5253H74.2773C74.4363 25.2714 74.7191 25.1444 75.1258 25.1444C75.6809 25.1444 75.9585 25.4409 75.9585 26.0339V27.6269H75.7379ZM24.0979 31.5197C24.0979 31.8364 23.9898 32.0791 23.7737 32.2479C23.5577 32.4167 23.2516 32.5011 22.8554 32.5011H22.3467V33.8544H22.1172V30.5787H22.9229C23.7062 30.5787 24.0979 30.8924 24.0979 31.5197ZM22.3467 32.3039H22.7991C23.1698 32.3039 23.4376 32.2434 23.6027 32.1224C23.7677 31.9999 23.8503 31.802 23.8503 31.5287C23.8503 31.2762 23.7722 31.0895 23.6162 30.9685C23.4601 30.8461 23.2185 30.7848 22.8914 30.7848H22.3467V32.3039ZM26.2429 33.8544L26.1866 33.4689H26.1686C26.0455 33.6259 25.9188 33.737 25.7882 33.8029C25.6591 33.8672 25.5061 33.8993 25.329 33.8993C25.089 33.8993 24.9021 33.838 24.7686 33.7154C24.635 33.5928 24.5683 33.4234 24.5683 33.2067C24.5683 32.9694 24.6673 32.7849 24.8654 32.6534C25.065 32.522 25.3531 32.4525 25.7297 32.4451L26.1956 32.4316V32.2703C26.1956 32.0388 26.1483 31.864 26.0538 31.746C25.9593 31.628 25.807 31.569 25.5969 31.569C25.3703 31.569 25.1355 31.6318 24.8924 31.7572L24.8091 31.5645C25.0777 31.4391 25.3433 31.3763 25.6059 31.3763C25.8745 31.3763 26.0748 31.4458 26.2069 31.5847C26.3404 31.7236 26.4072 31.9402 26.4072 32.2345V33.8544H26.2429ZM25.3426 33.6974C25.6036 33.6974 25.8092 33.6236 25.9593 33.4758C26.1108 33.3264 26.1866 33.1195 26.1866 32.8551V32.6153L25.7589 32.6333C25.4153 32.6497 25.17 32.7035 25.0229 32.7946C24.8774 32.8842 24.8046 33.0246 24.8046 33.2159C24.8046 33.3683 24.8511 33.487 24.9442 33.5722C25.0387 33.6558 25.1715 33.6974 25.3426 33.6974ZM26.7921 31.4189H27.0217L27.5393 32.7856C27.6969 33.2054 27.7967 33.4883 27.8387 33.6348H27.8522C27.9152 33.4421 28.018 33.1546 28.1605 32.7722L28.6782 31.4189H28.9078L27.8117 34.2487C27.7231 34.4788 27.6489 34.6341 27.5888 34.7147C27.5288 34.7954 27.4583 34.856 27.3773 34.8963C27.2977 34.9366 27.201 34.9566 27.0869 34.9566C27.0014 34.9566 26.9061 34.9409 26.8011 34.9098V34.717C26.8881 34.741 26.9819 34.7528 27.0824 34.7528C27.159 34.7528 27.2265 34.7351 27.285 34.699C27.3435 34.6633 27.396 34.6072 27.4426 34.5309C27.4906 34.4565 27.5453 34.3368 27.6069 34.1726C27.6699 34.0097 27.7104 33.9035 27.7284 33.8544L26.7921 31.4189ZM31.3544 31.5197C31.3544 31.8364 31.2464 32.0791 31.0303 32.2479C30.8142 32.4167 30.5081 32.5011 30.112 32.5011H29.6033V33.8544H29.3737V30.5787H30.1795C30.9628 30.5787 31.3544 30.8924 31.3544 31.5197ZM29.6033 32.3039H30.0557C30.4264 32.3039 30.6942 32.2434 30.8593 32.1224C31.0243 31.9999 31.1069 31.802 31.1069 31.5287C31.1069 31.2762 31.0288 31.0895 30.8728 30.9685C30.7167 30.8461 30.4751 30.7848 30.148 30.7848H29.6033V32.3039ZM33.4995 33.8544L33.4432 33.4689H33.4252C33.3021 33.6259 33.1753 33.737 33.0448 33.8029C32.9158 33.8672 32.7627 33.8993 32.5856 33.8993C32.3455 33.8993 32.1587 33.838 32.0252 33.7154C31.8917 33.5928 31.8249 33.4234 31.8249 33.2067C31.8249 32.9694 31.9239 32.7849 32.122 32.6534C32.3215 32.522 32.6096 32.4525 32.9863 32.4451L33.4522 32.4316V32.2703C33.4522 32.0388 33.4049 31.864 33.3104 31.746C33.2159 31.628 33.0636 31.569 32.8535 31.569C32.6269 31.569 32.3921 31.6318 32.149 31.7572L32.0657 31.5645C32.3343 31.4391 32.5999 31.3763 32.8625 31.3763C33.1311 31.3763 33.3314 31.4458 33.4634 31.5847C33.5972 31.7236 33.6637 31.9402 33.6637 32.2345V33.8544H33.4995ZM32.5991 33.6974C32.8602 33.6974 33.0658 33.6236 33.2159 33.4758C33.3674 33.3264 33.4432 33.1195 33.4432 32.8551V32.6153L33.0155 32.6333C32.6719 32.6497 32.4266 32.7035 32.2795 32.7946C32.134 32.8842 32.0612 33.0246 32.0612 33.2159C32.0612 33.3683 32.1077 33.487 32.2008 33.5722C32.2953 33.6558 32.4281 33.6974 32.5991 33.6974ZM34.6811 33.8544H34.4582V30.3681H34.6811V33.8544ZM35.3001 32.7072V32.5235H36.3692V32.7072H35.3001ZM39.2571 33.8544H38.9756L37.7129 32.1247L37.274 32.51V33.8544H37.0445V30.5787H37.274V32.2815L37.6388 31.9186L38.9285 30.5787H39.2209L37.8729 31.9634L39.2571 33.8544ZM41.152 33.8544L41.0961 33.4689H41.078C40.9548 33.6259 40.828 33.737 40.6977 33.8029C40.5686 33.8672 40.4155 33.8993 40.2383 33.8993C39.9983 33.8993 39.8116 33.838 39.6779 33.7154C39.5443 33.5928 39.4777 33.4234 39.4777 33.2067C39.4777 32.9694 39.5765 32.7849 39.7747 32.6534C39.9743 32.522 40.2624 32.4525 40.639 32.4451L41.1049 32.4316V32.2703C41.1049 32.0388 41.0575 31.864 40.963 31.746C40.8685 31.628 40.7164 31.569 40.5064 31.569C40.2795 31.569 40.0447 31.6318 39.8017 31.7572L39.7184 31.5645C39.9871 31.4391 40.2525 31.3763 40.5152 31.3763C40.7839 31.3763 40.9841 31.4458 41.1161 31.5847C41.2498 31.7236 41.3163 31.9402 41.3163 32.2345V33.8544H41.152ZM40.2518 33.6974C40.5129 33.6974 40.7184 33.6236 40.8685 33.4758C41.02 33.3264 41.0961 33.1195 41.0961 32.8551V32.6153L40.6684 32.6333C40.3246 32.6497 40.0793 32.7035 39.9321 32.7946C39.7866 32.8842 39.7138 33.0246 39.7138 33.2159C39.7138 33.3683 39.7606 33.487 39.8534 33.5722C39.9479 33.6558 40.0809 33.6974 40.2518 33.6974ZM39.8916 30.7423C39.8916 30.6735 39.9032 30.6243 39.9255 30.5944C39.9496 30.5645 39.9855 30.5496 40.0335 30.5496C40.1297 30.5496 40.1777 30.6138 40.1777 30.7423C40.1777 30.8707 40.1297 30.9349 40.0335 30.9349C39.939 30.9349 39.8916 30.8707 39.8916 30.7423ZM40.7493 30.7423C40.7493 30.6735 40.7605 30.6243 40.7829 30.5944C40.807 30.5645 40.8432 30.5496 40.8913 30.5496C40.9871 30.5496 41.0351 30.6138 41.0351 30.7423C41.0351 30.8707 40.9871 30.9349 40.8913 30.9349C40.7964 30.9349 40.7493 30.8707 40.7493 30.7423ZM42.3044 31.4189V32.9962C42.3044 33.2411 42.3565 33.4198 42.4599 33.5319C42.5636 33.6423 42.7239 33.6974 42.9416 33.6974C43.2326 33.6974 43.4467 33.6243 43.583 33.4781C43.7213 33.3316 43.7901 33.0933 43.7901 32.7632V31.4189H44.0107V33.8544H43.8217L43.7812 33.5184H43.7677C43.6087 33.7721 43.3258 33.8993 42.9192 33.8993C42.3624 33.8993 42.0842 33.6027 42.0842 33.0097V31.4189H42.3044ZM45.7393 31.6116H45.1631V33.8544H44.9402V31.6116H44.4858V31.4816L44.9402 31.3987V31.2105C44.9402 30.9118 44.9952 30.693 45.1045 30.5541C45.2158 30.4136 45.3965 30.3434 45.6471 30.3434C45.7821 30.3434 45.9171 30.3636 46.0521 30.4039L46.0004 30.5966C45.8805 30.5593 45.761 30.5406 45.6425 30.5406C45.4686 30.5406 45.3448 30.5921 45.2711 30.6952C45.199 30.7968 45.1631 30.9626 45.1631 31.1926V31.4189H45.7393V31.6116ZM47.2002 33.8993C46.8446 33.8993 46.5667 33.7901 46.3672 33.5722C46.1693 33.3539 46.0702 33.0485 46.0702 32.6557C46.0702 32.2673 46.1663 31.9566 46.3583 31.7236C46.5503 31.4891 46.8091 31.3718 47.1347 31.3718C47.4228 31.3718 47.6503 31.4719 47.8169 31.6721C47.9835 31.8722 48.0665 32.1441 48.0665 32.4876V32.6669H46.3043C46.3073 33.0015 46.3853 33.2569 46.5384 33.4332C46.6928 33.6095 46.9134 33.6974 47.2002 33.6974C47.3395 33.6974 47.462 33.6879 47.567 33.6685C47.6734 33.6489 47.8077 33.6072 47.97 33.543V33.7446C47.8317 33.8042 47.7043 33.8445 47.5871 33.8655C47.4702 33.8881 47.3411 33.8993 47.2002 33.8993ZM47.1347 31.569C46.8993 31.569 46.7103 31.6467 46.5677 31.802C46.4251 31.9559 46.3418 32.1784 46.3178 32.4697H47.8304C47.8304 32.1874 47.7689 31.9671 47.6457 31.8088C47.5226 31.6489 47.3523 31.569 47.1347 31.569ZM49.7052 31.3718C49.8086 31.3718 49.9199 31.3823 50.0384 31.4032L49.9956 31.6161C49.8936 31.5907 49.7879 31.578 49.6782 31.578C49.4698 31.578 49.2986 31.6661 49.1649 31.8423C49.0316 32.0186 48.9647 32.2412 48.9647 32.51V33.8544H48.7418V31.4189H48.9308L48.9535 31.8581H48.9693C49.0698 31.6788 49.1771 31.5533 49.291 31.4816C49.4053 31.4084 49.5432 31.3718 49.7052 31.3718ZM52.0552 33.2202C52.0552 33.4384 51.9719 33.6063 51.8053 33.7246C51.6386 33.8409 51.4022 33.8993 51.0964 33.8993C50.7691 33.8993 50.5096 33.8491 50.3173 33.7492V33.5092C50.5636 33.6318 50.8231 33.6931 51.0964 33.6931C51.3377 33.6931 51.5208 33.6535 51.6456 33.5745C51.7713 33.4935 51.8346 33.387 51.8346 33.2539C51.8346 33.1314 51.7842 33.0284 51.6838 32.9447C51.5847 32.8611 51.421 32.7789 51.1932 32.6983C50.9485 32.6101 50.7766 32.5347 50.6775 32.4719C50.5784 32.4077 50.5037 32.336 50.4527 32.2569C50.4029 32.1762 50.3782 32.0784 50.3782 31.9634C50.3782 31.7811 50.4546 31.637 50.6077 31.5309C50.7625 31.4249 50.9778 31.3718 51.2537 31.3718C51.5178 31.3718 51.7684 31.4211 52.0054 31.5197L51.9221 31.7214C51.6821 31.6228 51.4595 31.5735 51.2537 31.5735C51.0542 31.5735 50.8958 31.6064 50.7789 31.6721C50.6617 31.7378 50.6035 31.8289 50.6035 31.9454C50.6035 32.0724 50.6482 32.1739 50.7384 32.2501C50.83 32.3263 51.0078 32.4115 51.2719 32.5056C51.4925 32.5847 51.6528 32.6564 51.7536 32.7207C51.854 32.7834 51.9291 32.8551 51.9784 32.9358C52.0295 33.0164 52.0552 33.1112 52.0552 33.2202ZM53.6623 33.8993C53.3126 33.8993 53.0387 33.7895 52.8405 33.5699C52.6426 33.3503 52.5435 33.0441 52.5435 32.6512C52.5435 32.2479 52.6462 31.9342 52.852 31.7102C53.0574 31.4846 53.339 31.3718 53.6959 31.3718C53.9076 31.3718 54.1101 31.4084 54.3037 31.4816L54.2428 31.6788C54.0314 31.6086 53.8473 31.5735 53.6913 31.5735C53.3913 31.5735 53.1641 31.6661 53.0094 31.8513C52.8549 32.035 52.7776 32.3002 52.7776 32.6467C52.7776 32.9753 52.8549 33.2329 53.0094 33.4198C53.1641 33.6049 53.3801 33.6974 53.6577 33.6974C53.8796 33.6974 54.086 33.658 54.2767 33.5787V33.7849C54.1206 33.8613 53.9158 33.8993 53.6623 33.8993ZM56.5838 33.8544V32.2748C56.5838 32.0298 56.5318 31.8521 56.4284 31.7415C56.325 31.6295 56.1643 31.5735 55.9467 31.5735C55.654 31.5735 55.4396 31.6474 55.303 31.7953C55.168 31.9417 55.1005 32.1799 55.1005 32.51V33.8544H54.8776V30.3681H55.1005V31.4772L55.0893 31.7886H55.1048C55.1963 31.6422 55.3119 31.5362 55.4515 31.4704C55.5911 31.4047 55.7643 31.3718 55.9714 31.3718C56.5265 31.3718 56.8044 31.6683 56.8044 32.2613V33.8544H56.5838ZM57.7902 31.4189V32.9962C57.7902 33.2411 57.8419 33.4198 57.9453 33.5319C58.049 33.6423 58.2094 33.6974 58.427 33.6974C58.7181 33.6974 58.9321 33.6243 59.0687 33.4781C59.2067 33.3316 59.2755 33.0933 59.2755 32.7632V31.4189H59.4961V33.8544H59.3071L59.2666 33.5184H59.2531C59.0941 33.7721 58.8113 33.8993 58.4046 33.8993C57.8478 33.8993 57.5696 33.6027 57.5696 33.0097V31.4189H57.7902ZM60.9617 33.702C61.1026 33.702 61.2257 33.6902 61.3308 33.6662V33.8455C61.2228 33.8813 61.098 33.8993 60.957 33.8993C60.7411 33.8993 60.581 33.8416 60.4776 33.7265C60.3756 33.6115 60.3245 33.4309 60.3245 33.1845V31.6116H59.962V31.4816L60.3245 31.3808L60.4371 30.8296H60.5517V31.4189H61.2698V31.6116H60.5517V33.1531C60.5517 33.3398 60.585 33.4781 60.6508 33.5676C60.717 33.6571 60.8204 33.702 60.9617 33.702ZM63.3811 33.8544H61.6347V33.7131L63.0864 31.6161H61.7404V31.4189H63.3768V31.56L61.9159 33.6571H63.3811V33.8544Z" fill="#878787"/>
<path d="M32.8446 4.57861H28.6134C28.4733 4.57852 28.3378 4.62824 28.2313 4.71876C28.1248 4.80932 28.0542 4.93476 28.0324 5.07248L26.3211 15.8716C26.3132 15.9218 26.3164 15.973 26.3303 16.0218C26.3443 16.0705 26.3686 16.1158 26.4018 16.1542C26.435 16.1928 26.4761 16.2237 26.5224 16.2448C26.5688 16.266 26.6191 16.2769 26.6701 16.2768H28.6901C28.8302 16.2769 28.9658 16.2271 29.0724 16.1364C29.1789 16.0458 29.2494 15.9202 29.2711 15.7824L29.7326 12.8697C29.7542 12.7319 29.8246 12.6064 29.931 12.5158C30.0374 12.4251 30.1729 12.3753 30.3129 12.3752H31.6524C34.4396 12.3752 36.0483 11.0327 36.4681 8.37251C36.6575 7.20866 36.4764 6.29421 35.9288 5.6538C35.3276 4.95056 34.2608 4.57861 32.8446 4.57861ZM33.3327 8.52276C33.1013 10.0339 31.9413 10.0339 30.8196 10.0339H30.1811L30.6291 7.21175C30.6422 7.12918 30.6845 7.05396 30.7483 6.99968C30.8122 6.94537 30.8934 6.91555 30.9774 6.91555H31.27C32.0341 6.91555 32.7549 6.91555 33.1274 7.34908C33.3494 7.60768 33.4175 7.99195 33.3327 8.52276ZM45.4925 8.47412H43.4662C43.3823 8.47412 43.3009 8.50394 43.2371 8.55825C43.1735 8.61256 43.131 8.68775 43.1179 8.77031L43.0283 9.33439L42.8867 9.12993C42.4478 8.49627 41.4699 8.28444 40.4933 8.28444C38.2544 8.28444 36.342 9.97234 35.9696 12.3401C35.776 13.5211 36.0513 14.6505 36.7243 15.4381C37.342 16.1623 38.2254 16.464 39.2764 16.464C41.0807 16.464 42.081 15.3094 42.081 15.3094L41.9908 15.8698C41.9826 15.9199 41.9855 15.9711 41.9994 16.02C42.0132 16.0688 42.0372 16.1142 42.0705 16.1528C42.1034 16.1914 42.1446 16.2224 42.1907 16.2438C42.2371 16.2651 42.2875 16.2761 42.3385 16.2762H44.1636C44.3039 16.2763 44.4392 16.2265 44.5459 16.1358C44.6522 16.0451 44.7227 15.9196 44.7444 15.7817L45.8395 8.87929C45.8478 8.82931 45.8448 8.77818 45.831 8.72944C45.8172 8.68067 45.7931 8.63547 45.7602 8.59696C45.7269 8.55842 45.6861 8.52751 45.6397 8.50627C45.5936 8.48506 45.5432 8.47412 45.4925 8.47412ZM42.6681 12.3992C42.4725 13.5513 41.5539 14.3248 40.3821 14.3248C39.7937 14.3248 39.3235 14.1369 39.0215 13.781C38.7222 13.4276 38.6083 12.9245 38.7035 12.3641C38.8862 11.2218 39.8203 10.4231 40.9741 10.4231C41.5496 10.4231 42.0172 10.6134 42.3253 10.9724C42.6342 11.3351 42.7567 11.8413 42.6681 12.3992ZM56.2837 8.47412H54.2475C54.1517 8.47428 54.0569 8.49775 53.9723 8.54249C53.8873 8.58723 53.8149 8.65189 53.7606 8.73092L50.9523 12.8481L49.762 8.89162C49.7255 8.77094 49.6511 8.6652 49.5493 8.59001C49.4476 8.51482 49.3244 8.47418 49.198 8.47412H47.1971C47.1408 8.47395 47.0855 8.48716 47.0354 8.51263C46.9854 8.5381 46.9422 8.57507 46.9096 8.62049C46.8767 8.66592 46.8553 8.71846 46.8471 8.77376C46.8388 8.82905 46.8441 8.88552 46.8622 8.93842L49.1051 15.4892L46.9966 18.4518C46.959 18.5044 46.937 18.5661 46.9324 18.6304C46.9277 18.6947 46.9409 18.7589 46.9709 18.8162C47.0005 18.8734 47.0453 18.9214 47.1006 18.9549C47.1559 18.9884 47.2195 19.0061 47.2843 19.006H49.3179C49.4127 19.0062 49.5065 18.9834 49.5905 18.9396C49.6748 18.8958 49.7469 18.8324 49.8012 18.7548L56.5731 9.02525C56.61 8.97261 56.6314 8.91099 56.6357 8.84704C56.6396 8.78306 56.6258 8.71925 56.5962 8.66248C56.5662 8.60568 56.5214 8.55812 56.4664 8.52492C56.4111 8.49172 56.3482 8.47415 56.2837 8.47412Z" fill="#253B80"/>
<path d="M63.0248 4.57875H58.7929C58.6529 4.57881 58.5176 4.6286 58.4112 4.71913C58.3049 4.80966 58.2344 4.93499 58.2127 5.07262L56.5015 15.8718C56.4933 15.9218 56.4966 15.973 56.5104 16.0217C56.5239 16.0704 56.5483 16.1156 56.5815 16.1541C56.6145 16.1927 56.6556 16.2236 56.7017 16.2448C56.7478 16.266 56.7982 16.277 56.8492 16.277H59.0207C59.1185 16.2768 59.2133 16.2419 59.2877 16.1785C59.3621 16.115 59.4115 16.0272 59.4267 15.9309L59.9123 12.8698C59.9337 12.7321 60.0042 12.6066 60.1106 12.5159C60.2169 12.4252 60.3526 12.3754 60.4925 12.3753H61.8313C64.6191 12.3753 66.2272 11.0329 66.648 8.37264C66.838 7.2088 66.6553 6.29435 66.1077 5.65393C65.5071 4.95069 64.441 4.57875 63.0248 4.57875ZM63.5131 8.52292C63.2823 10.0341 62.1223 10.0341 60.9999 10.0341H60.3621L60.8106 7.21188C60.8234 7.12932 60.8655 7.05406 60.9294 6.99972C60.993 6.94541 61.0743 6.91558 61.1583 6.91568H61.451C62.2142 6.91568 62.9356 6.91568 63.3083 7.34921C63.5303 7.60785 63.5977 7.99208 63.5131 8.52292ZM75.6721 8.47425H73.6471C73.5631 8.47402 73.4818 8.50378 73.4179 8.55816C73.3544 8.6125 73.3122 8.68782 73.2994 8.77045L73.2098 9.33452L73.0673 9.13007C72.6287 8.49644 71.6511 8.28461 70.6749 8.28461C68.4359 8.28461 66.5242 9.97248 66.1518 12.3402C65.9585 13.5213 66.2328 14.6507 66.9058 15.4383C67.5245 16.1624 68.4069 16.4642 69.4579 16.4642C71.2619 16.4642 72.2626 15.3096 72.2626 15.3096L72.1723 15.8699C72.1641 15.9201 72.1671 15.9715 72.1809 16.0204C72.1947 16.0694 72.2191 16.1147 72.2524 16.1534C72.2856 16.192 72.3268 16.223 72.3732 16.2443C72.4196 16.2655 72.47 16.2765 72.521 16.2764H74.3458C74.4857 16.2763 74.6211 16.2264 74.7274 16.1358C74.8341 16.0451 74.9042 15.9196 74.926 15.7819L76.0217 8.87946C76.0293 8.82931 76.0263 8.77808 76.0122 8.72928C75.9984 8.68051 75.9737 8.63531 75.9404 8.5968C75.9075 8.55832 75.8663 8.52745 75.8199 8.50627C75.7735 8.48513 75.7231 8.47419 75.6721 8.47425ZM72.8477 12.3993C72.6534 13.5515 71.7334 14.3249 70.5616 14.3249C69.9745 14.3249 69.503 14.1371 69.2011 13.7812C68.9018 13.4277 68.7892 12.9246 68.8834 12.3642C69.0671 11.2219 69.9999 10.4232 71.1539 10.4232C71.7292 10.4232 72.197 10.6135 72.5049 10.9725C72.8151 11.3352 72.9376 11.8414 72.8477 12.3993ZM78.0608 4.87495L76.3243 15.8718C76.3164 15.9218 76.3194 15.973 76.3332 16.0217C76.347 16.0704 76.3711 16.1156 76.4043 16.1541C76.4373 16.1927 76.4784 16.2236 76.5245 16.2448C76.5706 16.266 76.621 16.277 76.672 16.277H78.4178C78.7082 16.277 78.9541 16.0676 78.9989 15.7825L80.7114 4.98396C80.7193 4.93388 80.7163 4.88271 80.7025 4.83394C80.6887 4.78517 80.6643 4.73994 80.6314 4.70136C80.5985 4.66282 80.5573 4.63184 80.5112 4.61057C80.4648 4.5893 80.4147 4.57822 80.3637 4.57812H78.4085C78.3246 4.57842 78.2436 4.60848 78.1797 4.66285C78.1162 4.71723 78.074 4.79241 78.0608 4.87495Z" fill="#179BD7"/>
<path d="M8.74962 18.376L9.07319 16.3303L8.35244 16.3137H4.91064L7.30252 1.21874C7.30964 1.17262 7.33318 1.13058 7.36884 1.10029C7.4045 1.07 7.4499 1.05347 7.49679 1.05371H13.3001C15.2267 1.05371 16.5563 1.45275 17.2504 2.24035C17.5759 2.60982 17.7831 2.99592 17.8834 3.42082C17.9885 3.86664 17.9904 4.39932 17.8877 5.04897L17.8803 5.0964V5.51266L18.2057 5.69617C18.4541 5.82144 18.6774 5.99092 18.8646 6.1962C19.143 6.5121 19.3231 6.9136 19.3992 7.38961C19.4777 7.87915 19.4517 8.46172 19.3231 9.1212C19.1746 9.87987 18.9345 10.5406 18.6103 11.0813C18.3243 11.5656 17.9397 11.9851 17.4812 12.3129C17.0506 12.6171 16.5389 12.848 15.9605 12.9958C15.3999 13.1411 14.7608 13.2144 14.0598 13.2144H13.6082C13.2852 13.2144 12.9716 13.3302 12.7253 13.5377C12.4795 13.7474 12.3163 14.0372 12.265 14.3554L12.231 14.5396L11.6593 18.145L11.6334 18.2774C11.6265 18.3193 11.6148 18.3403 11.5975 18.3544C11.5807 18.3681 11.5597 18.3757 11.5381 18.376H8.74962Z" fill="#253B80"/>
<path d="M18.5137 5.14404C18.4963 5.25427 18.4766 5.36695 18.4543 5.48272C17.689 9.39363 15.0707 10.7447 11.7266 10.7447H10.024C9.61503 10.7447 9.27043 11.0403 9.20672 11.4418L8.33497 16.9445L8.08812 18.5043C8.07828 18.5662 8.08203 18.6294 8.09912 18.6897C8.11621 18.75 8.1462 18.8059 8.18706 18.8535C8.22793 18.9011 8.2787 18.9394 8.33582 18.9657C8.39298 18.9919 8.45515 19.0055 8.5181 19.0055H11.5379C11.8955 19.0055 12.1993 18.7469 12.2556 18.3959L12.2853 18.2432L12.8539 14.6519L12.8904 14.4548C12.9461 14.1026 13.2505 13.844 13.6081 13.844H14.0597C16.9855 13.844 19.2759 12.6616 19.9453 9.2403C20.225 7.81103 20.0802 6.61762 19.3402 5.77829C19.1057 5.51867 18.8256 5.30373 18.5137 5.14404Z" fill="#179BD7"/>
<path d="M17.7132 4.82686C17.4688 4.75649 17.2202 4.70159 16.9689 4.66245C16.4723 4.58648 15.9704 4.55003 15.4679 4.55344H10.9193C10.7462 4.55331 10.5788 4.61483 10.4472 4.72686C10.3157 4.83889 10.2288 4.99408 10.2023 5.16432L9.23461 11.2644L9.20679 11.4423C9.23691 11.2482 9.33592 11.0711 9.4858 10.9432C9.63571 10.8154 9.82665 10.7451 10.0241 10.7452H11.7267C15.0707 10.7452 17.689 9.39358 18.4544 5.4833C18.4772 5.36753 18.4964 5.25485 18.5138 5.14462C18.3118 5.03922 18.1013 4.95085 17.8845 4.88045C17.8277 4.86167 17.7706 4.8438 17.7132 4.82686Z" fill="#222D65"/>
<path d="M10.2022 5.16385C10.2286 4.99354 10.3154 4.83831 10.447 4.72632C10.5786 4.61436 10.7461 4.55306 10.9192 4.55359H15.4679C16.0067 4.55359 16.5097 4.58869 16.9688 4.6626C17.2795 4.71118 17.5858 4.78387 17.8851 4.87997C18.1109 4.95447 18.3207 5.04254 18.5143 5.14415C18.742 3.69887 18.5125 2.71483 17.7273 1.82378C16.8618 0.842821 15.2996 0.422852 13.3006 0.422852H7.49728C7.08893 0.422852 6.7406 0.718432 6.67752 1.12055L4.26028 16.3706C4.24902 16.4415 4.2533 16.5138 4.27283 16.5828C4.29235 16.6519 4.3267 16.7158 4.37342 16.7703C4.42017 16.8249 4.47822 16.8687 4.54358 16.8988C4.60897 16.9289 4.68012 16.9445 4.75213 16.9446H8.33498L9.23455 11.2639L10.2022 5.16385Z" fill="#253B80"/>
</g>
<defs>
<clipPath id="clip0_2389_1495">
<rect width="83.9614" height="34.7426" fill="white" transform="translate(0.632324 0.422852)"/>
</clipPath>
</defs>
</svg>
