<svg width="32" height="32" viewBox="0 0 32 32" fill="none" xmlns="http://www.w3.org/2000/svg">
<g clip-path="url(#clip0_2389_1562)">
<path d="M16.0053 7.78418C11.468 7.78418 7.79468 11.4615 7.79468 15.9948C7.79468 20.5322 11.472 24.2055 16.0053 24.2055C20.5427 24.2055 24.216 20.5282 24.216 15.9948C24.216 11.4575 20.5387 7.78418 16.0053 7.78418ZM16.0053 21.3242C13.06 21.3242 10.676 18.9388 10.676 15.9948C10.676 13.0508 13.0613 10.6655 16.0053 10.6655C18.9493 10.6655 21.3347 13.0508 21.3347 15.9948C21.336 18.9388 18.9507 21.3242 16.0053 21.3242Z" fill="white"/>
<path d="M22.5974 0.101004C19.6534 -0.0363295 12.3614 -0.0296628 9.41473 0.101004C6.82539 0.222337 4.54139 0.84767 2.70006 2.689C-0.377275 5.76634 0.0160589 9.913 0.0160589 15.9943C0.0160589 22.2183 -0.330608 26.269 2.70006 29.2997C5.78939 32.3877 9.99606 31.9837 16.0054 31.9837C22.1707 31.9837 24.2987 31.9877 26.4787 31.1437C29.4427 29.993 31.6801 27.3437 31.8987 22.585C32.0374 19.6397 32.0294 12.349 31.8987 9.40234C31.6347 3.785 28.6201 0.378337 22.5974 0.101004ZM27.2574 27.2637C25.2401 29.281 22.4414 29.101 15.9667 29.101C9.30006 29.101 6.62673 29.1997 4.67606 27.2437C2.42939 25.0077 2.83606 21.417 2.83606 15.973C2.83606 8.60634 2.08006 3.301 9.47339 2.92234C11.1721 2.86234 11.6721 2.84234 15.9481 2.84234L16.0081 2.88234C23.1134 2.88234 28.6881 2.13834 29.0227 9.53034C29.0987 11.217 29.1161 11.7237 29.1161 15.993C29.1147 22.5823 29.2401 25.2717 27.2574 27.2637Z" fill="white"/>
<path d="M24.5412 9.37883C25.6009 9.37883 26.4599 8.51981 26.4599 7.46017C26.4599 6.40052 25.6009 5.5415 24.5412 5.5415C23.4816 5.5415 22.6226 6.40052 22.6226 7.46017C22.6226 8.51981 23.4816 9.37883 24.5412 9.37883Z" fill="white"/>
</g>
<defs>
<clipPath id="clip0_2389_1562">
<rect width="32" height="32" fill="white"/>
</clipPath>
</defs>
</svg>
