<svg width="202" height="56" viewBox="0 0 202 56" fill="none" xmlns="http://www.w3.org/2000/svg">
<path d="M12.373 51.9912L23.373 39.9912H1.37305L12.373 51.9912Z" fill="#FAB680"/>
<path d="M12.373 51.9912L23.373 39.9912H12.3731L12.373 51.9912Z" fill="#D09668"/>
<path d="M12.373 51.9912L17.873 45.9912H6.87305L12.373 51.9912Z" fill="#6E6870"/>
<path d="M23 36.9912H2V39.9912H23V36.9912Z" fill="#FAB680"/>
<path d="M23 36.9912H13V39.9912H23V36.9912Z" fill="#D09668"/>
<path d="M22.373 18.9912H18.373C17.2684 18.9912 16.373 19.8866 16.373 20.9912V38.9912C16.373 40.0958 17.2684 40.9912 18.373 40.9912H22.373C23.4776 40.9912 24.373 40.0958 24.373 38.9912V20.9912C24.373 19.8866 23.4776 18.9912 22.373 18.9912Z" fill="#FDBD13"/>
<path d="M14.373 23.9912H10.373C9.26848 23.9912 8.37305 24.8866 8.37305 25.9912V38.9912C8.37305 40.0958 9.26848 40.9912 10.373 40.9912H14.373C15.4776 40.9912 16.373 40.0958 16.373 38.9912V25.9912C16.373 24.8866 15.4776 23.9912 14.373 23.9912Z" fill="#EC5334"/>
<path d="M0.373047 30.9912C0.373047 29.8866 1.26848 28.9912 2.37305 28.9912H6.37305C7.47762 28.9912 8.37305 29.8866 8.37305 30.9912V38.9912C8.37305 40.0958 7.47762 40.9912 6.37305 40.9912H2.37305C1.26848 40.9912 0.373047 40.0958 0.373047 38.9912V30.9912Z" fill="#6E6870"/>
<path fill-rule="evenodd" clip-rule="evenodd" d="M0 17.9912H24.746C23.0589 13.349 18.1571 9.99121 12.373 9.99121C6.58892 9.99121 1.68711 13.349 0 17.9912Z" fill="#6E6870"/>
<path d="M44.2246 20.5185H50.5L48.3945 30.2392C46.4258 30.9228 44.5163 31.2646 42.666 31.2646C40.2598 31.2646 38.3867 30.6084 37.0469 29.2959C35.7161 27.9743 35.0508 26.1331 35.0508 23.7724C35.0508 21.3206 35.5111 19.0921 36.4316 17.0869C37.3613 15.0726 38.6465 13.5094 40.2871 12.3974C41.9277 11.2764 43.7461 10.7158 45.7422 10.7158C46.8086 10.7158 47.8066 10.807 48.7363 10.9893C49.6751 11.1715 50.6185 11.4632 51.5664 11.8642L50.6641 13.9424C49.9622 13.6325 49.2057 13.3636 48.3945 13.1357C47.5924 12.9079 46.7083 12.7939 45.7422 12.7939C44.2018 12.7939 42.7982 13.2588 41.5312 14.1885C40.2734 15.109 39.2936 16.3988 38.5918 18.0576C37.89 19.7165 37.5391 21.5713 37.5391 23.6221C37.5391 25.3538 38.0039 26.7165 38.9336 27.71C39.8724 28.7034 41.1803 29.2002 42.8574 29.2002C44.2611 29.2002 45.446 29.0224 46.4121 28.667L47.7246 22.5967H43.7734L44.2246 20.5185ZM61.916 30.9912L63.9395 21.5303C64.1035 20.6735 64.1855 20.0583 64.1855 19.6846C64.1855 18.3356 63.5156 17.6611 62.1758 17.6611C61.3646 17.6611 60.5716 17.93 59.7969 18.4678C59.0312 19.0055 58.3522 19.7894 57.7598 20.8193C57.1764 21.8402 56.7344 23.0752 56.4336 24.5244L55.0527 30.9912H52.7559L57.2676 9.71777H59.5645C59.4004 10.4652 59.2409 11.1898 59.0859 11.8916C58.9401 12.5934 58.7852 13.3089 58.6211 14.0381C58.4661 14.7581 58.293 15.5146 58.1016 16.3076C57.9193 17.1006 57.7051 17.9619 57.459 18.8916H57.6094C58.4661 17.7705 59.3092 16.9684 60.1387 16.4853C60.9772 16.0023 61.8522 15.7607 62.7637 15.7607C63.9577 15.7607 64.8783 16.0889 65.5254 16.7451C66.1816 17.4014 66.5098 18.331 66.5098 19.5342C66.5098 20.0993 66.4049 20.8558 66.1953 21.8037C65.8398 23.5628 65.179 26.6253 64.2129 30.9912H61.916ZM76.9004 15.8154C78.6322 15.8154 79.9993 16.3304 81.002 17.3603C82.0046 18.3812 82.5059 19.7894 82.5059 21.585C82.5059 23.2985 82.1777 24.9163 81.5215 26.4385C80.8652 27.9606 79.9766 29.1364 78.8555 29.9658C77.7344 30.7952 76.4674 31.21 75.0547 31.21C73.3047 31.21 71.9329 30.695 70.9395 29.665C69.946 28.6351 69.4492 27.2269 69.4492 25.4404C69.4492 23.7086 69.7819 22.0817 70.4473 20.5596C71.1126 19.0283 72.0104 17.8571 73.1406 17.0459C74.2708 16.2256 75.5241 15.8154 76.9004 15.8154ZM80.127 21.2705C80.127 20.2223 79.8398 19.3747 79.2656 18.7275C78.7005 18.0713 77.9303 17.7432 76.9551 17.7432C75.9616 17.7432 75.0684 18.0804 74.2754 18.7549C73.4915 19.4294 72.8809 20.3682 72.4434 21.5713C72.015 22.7653 71.8008 24.096 71.8008 25.5635C71.8008 26.7575 72.0879 27.6826 72.6621 28.3389C73.2454 28.986 74.0794 29.3096 75.1641 29.3096C76.112 29.3096 76.9642 28.9769 77.7207 28.3115C78.4772 27.6461 79.0651 26.7028 79.4844 25.4814C79.9128 24.251 80.127 22.8473 80.127 21.2705ZM93.8809 26.7392C93.8809 28.1611 93.375 29.2731 92.3633 30.0752C91.3607 30.8682 89.9434 31.2646 88.1113 31.2646C86.571 31.2646 85.181 30.9502 83.9414 30.3213V28.1611C84.5794 28.5439 85.2676 28.8402 86.0059 29.0498C86.7441 29.2594 87.4277 29.3642 88.0566 29.3642C89.2051 29.3642 90.071 29.1364 90.6543 28.6807C91.2376 28.2249 91.5293 27.6416 91.5293 26.9307C91.5293 26.4111 91.3698 25.9736 91.0508 25.6182C90.7318 25.2627 90.0436 24.7751 88.9863 24.1553C87.8014 23.4899 86.9629 22.8382 86.4707 22.2002C85.9785 21.5622 85.7324 20.8057 85.7324 19.9307C85.7324 18.6728 86.1927 17.6611 87.1133 16.8955C88.0339 16.1208 89.2461 15.7334 90.75 15.7334C92.3086 15.7334 93.8125 16.0706 95.2617 16.7451L94.5234 18.6182L93.7578 18.2764C92.8372 17.8844 91.8346 17.6885 90.75 17.6885C89.9023 17.6885 89.237 17.889 88.7539 18.29C88.2708 18.682 88.0293 19.1924 88.0293 19.8213C88.0293 20.3317 88.1888 20.7692 88.5078 21.1338C88.8359 21.4984 89.5059 21.9678 90.5176 22.542C91.4928 23.0889 92.1901 23.5583 92.6094 23.9502C93.0378 24.3421 93.3568 24.7659 93.5664 25.2217C93.776 25.6683 93.8809 26.1741 93.8809 26.7392ZM101.236 29.3916C101.738 29.3916 102.394 29.2731 103.205 29.0361V30.7998C102.895 30.9274 102.512 31.0368 102.057 31.1279C101.601 31.2191 101.236 31.2646 100.963 31.2646C99.8236 31.2646 98.9486 30.9958 98.3379 30.458C97.7363 29.9111 97.4355 29.0999 97.4355 28.0244C97.4355 27.4228 97.5176 26.7392 97.6816 25.9736L99.418 17.7432H97.0664L97.2578 16.7451L99.7871 15.6787L101.496 12.5615H102.836L102.084 16.0068H105.83L105.475 17.7432H101.742L99.9785 26.001C99.8145 26.7939 99.7324 27.3955 99.7324 27.8057C99.7324 28.3161 99.8646 28.708 100.129 28.9814C100.393 29.2549 100.762 29.3916 101.236 29.3916Z" fill="white"/>
<path d="M133.984 30.9912H129.158L126.451 20.4912C126.351 20.1175 126.178 19.3473 125.932 18.1807C125.695 17.0049 125.558 16.2165 125.521 15.8154C125.467 16.3076 125.33 17.1006 125.111 18.1943C124.893 19.279 124.724 20.0537 124.605 20.5185L121.912 30.9912H117.1L112 11.0029H116.17L118.727 21.9131C119.173 23.9274 119.497 25.6728 119.697 27.1494C119.752 26.6299 119.875 25.8278 120.066 24.7432C120.267 23.6494 120.454 22.8017 120.627 22.2002L123.539 11.0029H127.545L130.457 22.2002C130.585 22.7015 130.744 23.4671 130.936 24.4971C131.127 25.527 131.273 26.4111 131.373 27.1494C131.464 26.4385 131.61 25.5544 131.811 24.4971C132.011 23.4307 132.193 22.5693 132.357 21.9131L134.9 11.0029H139.07L133.984 30.9912ZM149.789 15.4189C150.354 15.4189 150.824 15.46 151.197 15.542L150.883 19.4521C150.546 19.361 150.135 19.3154 149.652 19.3154C148.322 19.3154 147.283 19.6572 146.535 20.3408C145.797 21.0244 145.428 21.9814 145.428 23.2119V30.9912H141.258V15.706H144.416L145.031 18.2764H145.236C145.71 17.4196 146.348 16.7314 147.15 16.2119C147.962 15.6833 148.841 15.4189 149.789 15.4189ZM153.795 11.7549C153.795 10.3968 154.551 9.71777 156.064 9.71777C157.577 9.71777 158.334 10.3968 158.334 11.7549C158.334 12.402 158.143 12.9079 157.76 13.2724C157.386 13.6279 156.821 13.8057 156.064 13.8057C154.551 13.8057 153.795 13.1221 153.795 11.7549ZM158.143 30.9912H153.973V15.706H158.143V30.9912ZM168.971 27.9424C169.7 27.9424 170.575 27.7829 171.596 27.4639V30.5674C170.557 31.0322 169.281 31.2646 167.768 31.2646C166.1 31.2646 164.883 30.8454 164.117 30.0068C163.361 29.1592 162.982 27.8922 162.982 26.206V18.8369H160.986V17.0732L163.283 15.6787L164.486 12.4521H167.152V15.706H171.432V18.8369H167.152V26.206C167.152 26.7985 167.316 27.236 167.645 27.5185C167.982 27.8011 168.424 27.9424 168.971 27.9424ZM181.029 18.3857C180.145 18.3857 179.452 18.6683 178.951 19.2334C178.45 19.7894 178.163 20.5823 178.09 21.6123H183.941C183.923 20.5823 183.654 19.7894 183.135 19.2334C182.615 18.6683 181.913 18.3857 181.029 18.3857ZM181.617 31.2646C179.156 31.2646 177.233 30.5856 175.848 29.2275C174.462 27.8695 173.77 25.9463 173.77 23.458C173.77 20.8968 174.408 18.9189 175.684 17.5244C176.969 16.1208 178.742 15.4189 181.002 15.4189C183.162 15.4189 184.844 16.0342 186.047 17.2646C187.25 18.4951 187.852 20.195 187.852 22.3642V24.3877H177.994C178.04 25.5726 178.391 26.4977 179.047 27.1631C179.703 27.8284 180.624 28.1611 181.809 28.1611C182.729 28.1611 183.6 28.0654 184.42 27.874C185.24 27.6826 186.097 27.3773 186.99 26.958V30.1846C186.261 30.5491 185.482 30.818 184.652 30.9912C183.823 31.1735 182.811 31.2646 181.617 31.2646ZM199.773 15.4189C200.339 15.4189 200.808 15.46 201.182 15.542L200.867 19.4521C200.53 19.361 200.12 19.3154 199.637 19.3154C198.306 19.3154 197.267 19.6572 196.52 20.3408C195.781 21.0244 195.412 21.9814 195.412 23.2119V30.9912H191.242V15.706H194.4L195.016 18.2764H195.221C195.695 17.4196 196.333 16.7314 197.135 16.2119C197.946 15.6833 198.826 15.4189 199.773 15.4189Z" fill="#E95334"/>
<path d="M40.52 39.5514C39.54 39.5714 38.67 39.8114 37.91 40.2714C37.15 40.7314 36.56 41.3664 36.14 42.1764C35.73 42.9864 35.525 43.9064 35.525 44.9364C35.525 45.9264 35.72 46.8214 36.11 47.6214C36.51 48.4114 37.085 49.0414 37.835 49.5114C38.595 49.9714 39.49 50.2014 40.52 50.2014C41.51 50.1814 42.38 49.9464 43.13 49.4964C43.89 49.0364 44.48 48.4064 44.9 47.6064C45.32 46.7964 45.53 45.8714 45.53 44.8314C45.53 43.8414 45.33 42.9464 44.93 42.1464C44.54 41.3464 43.965 40.7164 43.205 40.2564C42.445 39.7864 41.55 39.5514 40.52 39.5514ZM37.55 44.9214C37.55 44.1814 37.685 43.5314 37.955 42.9714C38.235 42.4014 38.6 41.9664 39.05 41.6664C39.51 41.3564 40.01 41.2014 40.55 41.2014C41.14 41.2014 41.66 41.3564 42.11 41.6664C42.56 41.9764 42.905 42.4064 43.145 42.9564C43.385 43.5064 43.505 44.1314 43.505 44.8314C43.505 45.6414 43.37 46.3314 43.1 46.9014C42.84 47.4614 42.48 47.8814 42.02 48.1614C41.57 48.4314 41.065 48.5664 40.505 48.5664C39.905 48.5664 39.38 48.4164 38.93 48.1164C38.49 47.8064 38.15 47.3764 37.91 46.8264C37.67 46.2664 37.55 45.6314 37.55 44.9214ZM48.0396 44.2314V49.9914H49.9896V44.2314H51.9846L51.3696 42.7314H49.9896V42.4464C49.9896 42.0464 50.0696 41.7314 50.2296 41.5014C50.3896 41.2614 50.6346 41.1414 50.9646 41.1414C51.1746 41.1414 51.4446 41.2064 51.7746 41.3364L52.3296 39.9264C52.1696 39.7964 51.9446 39.6864 51.6546 39.5964C51.3646 39.5064 51.1046 39.4614 50.8746 39.4614C49.9846 39.4614 49.2896 39.7014 48.7896 40.1814C48.2896 40.6614 48.0396 41.3264 48.0396 42.1764V42.7314H46.9146V44.2314H48.0396ZM54.3103 44.2314V49.9914H56.2603V44.2314H58.2553L57.6403 42.7314H56.2603V42.4464C56.2603 42.0464 56.3403 41.7314 56.5003 41.5014C56.6603 41.2614 56.9053 41.1414 57.2353 41.1414C57.4453 41.1414 57.7153 41.2064 58.0453 41.3364L58.6003 39.9264C58.4403 39.7964 58.2153 39.6864 57.9253 39.5964C57.6353 39.5064 57.3753 39.4614 57.1453 39.4614C56.2553 39.4614 55.5603 39.7014 55.0603 40.1814C54.5603 40.6614 54.3103 41.3264 54.3103 42.1764V42.7314H53.1853V44.2314H54.3103ZM61.061 41.6814C61.371 41.6814 61.631 41.5764 61.841 41.3664C62.061 41.1564 62.171 40.8964 62.171 40.5864C62.171 40.2764 62.061 40.0164 61.841 39.8064C61.631 39.5964 61.371 39.4914 61.061 39.4914C60.761 39.4914 60.506 39.5964 60.296 39.8064C60.086 40.0164 59.981 40.2764 59.981 40.5864C59.981 40.8964 60.086 41.1564 60.296 41.3664C60.506 41.5764 60.761 41.6814 61.061 41.6814ZM62.051 49.9914V42.7164H60.101V49.9914H62.051ZM69.7495 42.7164H63.9295L64.3045 44.3214H67.3645L63.7495 48.9564L64.0045 49.9914H70.0045L69.8545 48.4164H66.1945L69.8545 43.8264L69.7495 42.7164ZM72.6649 41.6814C72.9749 41.6814 73.2349 41.5764 73.4449 41.3664C73.6649 41.1564 73.7749 40.8964 73.7749 40.5864C73.7749 40.2764 73.6649 40.0164 73.4449 39.8064C73.2349 39.5964 72.9749 39.4914 72.6649 39.4914C72.3649 39.4914 72.1099 39.5964 71.8999 39.8064C71.6899 40.0164 71.5849 40.2764 71.5849 40.5864C71.5849 40.8964 71.6899 41.1564 71.8999 41.3664C72.1099 41.5764 72.3649 41.6814 72.6649 41.6814ZM73.6549 49.9914V42.7164H71.7049V49.9914H73.6549ZM82.5084 46.3314C82.5084 45.6214 82.3884 44.9814 82.1484 44.4114C81.9084 43.8314 81.5384 43.3714 81.0384 43.0314C80.5384 42.6914 79.9234 42.5214 79.1934 42.5214C78.4434 42.5214 77.7934 42.6814 77.2434 43.0014C76.6934 43.3114 76.2684 43.7564 75.9684 44.3364C75.6784 44.9164 75.5334 45.5914 75.5334 46.3614C75.5334 47.5514 75.8884 48.4864 76.5984 49.1664C77.3184 49.8364 78.3684 50.1714 79.7484 50.1714C80.3384 50.1714 80.8484 50.0964 81.2784 49.9464C81.7084 49.7864 82.1084 49.5614 82.4784 49.2714L81.9084 47.8614C81.5384 48.0714 81.1934 48.2314 80.8734 48.3414C80.5534 48.4514 80.1934 48.5064 79.7934 48.5064C79.1034 48.5064 78.5884 48.3714 78.2484 48.1014C77.9184 47.8314 77.7034 47.4414 77.6034 46.9314H82.5084V46.3314ZM77.6184 45.6264C77.6984 45.1564 77.8734 44.8014 78.1434 44.5614C78.4134 44.3114 78.7484 44.1864 79.1484 44.1864C79.5484 44.1864 79.8734 44.3064 80.1234 44.5464C80.3834 44.7864 80.5634 45.1464 80.6634 45.6264H77.6184ZM86.4631 49.9914V39.4014L84.5281 39.5664V49.9914H86.4631ZM91.02 49.9914V39.4014L89.085 39.5664V49.9914H91.02ZM98.2409 44.8014C98.5209 44.6714 98.8609 44.5614 99.2609 44.4714C99.6609 44.3714 100.026 44.3214 100.356 44.3214C100.716 44.3214 100.996 44.4264 101.196 44.6364C101.406 44.8364 101.516 45.1214 101.526 45.4914H100.101C99.2609 45.4914 98.5909 45.6964 98.0909 46.1064C97.5909 46.5064 97.3409 47.0764 97.3409 47.8164C97.3409 48.5364 97.5609 49.1114 98.0009 49.5414C98.4409 49.9614 99.0959 50.1714 99.9659 50.1714C100.636 50.1714 101.276 49.8514 101.886 49.2114L102.216 49.9914H103.491V45.2064C103.491 44.6964 103.346 44.2364 103.056 43.8264C102.776 43.4164 102.396 43.0964 101.916 42.8664C101.436 42.6364 100.906 42.5214 100.326 42.5214C99.9859 42.5214 99.5309 42.5914 98.9609 42.7314C98.3909 42.8614 97.9759 43.0114 97.7159 43.1814L98.2409 44.8014ZM99.0059 47.8164C99.0059 47.5364 99.1009 47.2964 99.2909 47.0964C99.4909 46.8964 99.7509 46.7964 100.071 46.7964H101.541V47.9064C101.051 48.3864 100.516 48.6264 99.9359 48.6264C99.6659 48.6264 99.4409 48.5464 99.2609 48.3864C99.0909 48.2264 99.0059 48.0364 99.0059 47.8164ZM110.645 47.7564C110.285 48.0164 109.955 48.2264 109.655 48.3864C109.355 48.5364 109.035 48.6114 108.695 48.6114C108.365 48.6114 108.105 48.4864 107.915 48.2364C107.735 47.9864 107.645 47.6364 107.645 47.1864V42.7164H105.695V47.2764C105.695 48.2064 105.88 48.9314 106.25 49.4514C106.62 49.9714 107.265 50.2314 108.185 50.2314C108.585 50.2314 109.04 50.1414 109.55 49.9614C110.06 49.7814 110.54 49.5314 110.99 49.2114L111.32 49.9914H112.595V42.7164H110.645V47.7564ZM115.406 44.2314V49.9914H117.356V44.2314H119.351L118.736 42.7314H117.356V42.4464C117.356 42.0464 117.436 41.7314 117.596 41.5014C117.756 41.2614 118.001 41.1414 118.331 41.1414C118.541 41.1414 118.811 41.2064 119.141 41.3364L119.696 39.9264C119.536 39.7964 119.311 39.6864 119.021 39.5964C118.731 39.5064 118.471 39.4614 118.241 39.4614C117.351 39.4614 116.656 39.7014 116.156 40.1814C115.656 40.6614 115.406 41.3264 115.406 42.1764V42.7314H114.281V44.2314H115.406ZM132.021 39.4014V49.9914H131.001L130.551 49.3314C129.911 49.8914 129.211 50.1714 128.451 50.1714C127.321 50.1714 126.426 49.8314 125.766 49.1514C125.116 48.4614 124.791 47.5314 124.791 46.3614C124.791 45.6014 124.936 44.9314 125.226 44.3514C125.526 43.7714 125.956 43.3214 126.516 43.0014C127.076 42.6814 127.741 42.5214 128.511 42.5214C128.751 42.5214 129.006 42.5664 129.276 42.6564C129.546 42.7364 129.806 42.8514 130.056 43.0014V39.5664L132.021 39.4014ZM126.801 46.3614C126.801 47.0014 126.951 47.5214 127.251 47.9214C127.561 48.3114 127.986 48.5064 128.526 48.5064C128.786 48.5064 129.036 48.4564 129.276 48.3564C129.526 48.2564 129.786 48.1064 130.056 47.9064V44.8014C129.796 44.5814 129.546 44.4264 129.306 44.3364C129.066 44.2364 128.806 44.1864 128.526 44.1864C127.996 44.1864 127.576 44.3914 127.266 44.8014C126.956 45.2014 126.801 45.7214 126.801 46.3614ZM141.025 46.3314C141.025 45.6214 140.905 44.9814 140.665 44.4114C140.425 43.8314 140.055 43.3714 139.555 43.0314C139.055 42.6914 138.44 42.5214 137.71 42.5214C136.96 42.5214 136.31 42.6814 135.76 43.0014C135.21 43.3114 134.785 43.7564 134.485 44.3364C134.195 44.9164 134.05 45.5914 134.05 46.3614C134.05 47.5514 134.405 48.4864 135.115 49.1664C135.835 49.8364 136.885 50.1714 138.265 50.1714C138.855 50.1714 139.365 50.0964 139.795 49.9464C140.225 49.7864 140.625 49.5614 140.995 49.2714L140.425 47.8614C140.055 48.0714 139.71 48.2314 139.39 48.3414C139.07 48.4514 138.71 48.5064 138.31 48.5064C137.62 48.5064 137.105 48.3714 136.765 48.1014C136.435 47.8314 136.22 47.4414 136.12 46.9314H141.025V46.3314ZM136.135 45.6264C136.215 45.1564 136.39 44.8014 136.66 44.5614C136.93 44.3114 137.265 44.1864 137.665 44.1864C138.065 44.1864 138.39 44.3064 138.64 44.5464C138.9 44.7864 139.08 45.1464 139.18 45.6264H136.135ZM151.79 42.4764C152.62 42.4764 153.215 42.7014 153.575 43.1514C153.945 43.5914 154.13 44.2514 154.13 45.1314V49.9914H152.18V45.5214C152.18 45.0514 152.105 44.6964 151.955 44.4564C151.815 44.2164 151.59 44.0964 151.28 44.0964C150.98 44.0964 150.705 44.1664 150.455 44.3064C150.205 44.4464 149.885 44.6564 149.495 44.9364V45.1314V49.9914H147.545V45.5214C147.545 45.0514 147.47 44.6964 147.32 44.4564C147.18 44.2164 146.955 44.0964 146.645 44.0964C146.345 44.0964 146.07 44.1664 145.82 44.3064C145.57 44.4464 145.245 44.6614 144.845 44.9514V49.9914H142.895V42.7164H144.17L144.5 43.4964C144.95 43.1764 145.415 42.9264 145.895 42.7464C146.375 42.5664 146.795 42.4764 147.155 42.4764C148.145 42.4764 148.815 42.8064 149.165 43.4664C149.615 43.1564 150.075 42.9164 150.545 42.7464C151.015 42.5664 151.43 42.4764 151.79 42.4764ZM166.026 46.7964L167.931 44.1114V49.9914H169.896V39.7914H168.711L165.576 44.5014L162.126 39.7914H160.896V49.9914H162.831V43.7664L165.276 46.9014L166.026 46.7964ZM173.369 44.8014C173.649 44.6714 173.989 44.5614 174.389 44.4714C174.789 44.3714 175.154 44.3214 175.484 44.3214C175.844 44.3214 176.124 44.4264 176.324 44.6364C176.534 44.8364 176.644 45.1214 176.654 45.4914H175.229C174.389 45.4914 173.719 45.6964 173.219 46.1064C172.719 46.5064 172.469 47.0764 172.469 47.8164C172.469 48.5364 172.689 49.1114 173.129 49.5414C173.569 49.9614 174.224 50.1714 175.094 50.1714C175.764 50.1714 176.404 49.8514 177.014 49.2114L177.344 49.9914H178.619V45.2064C178.619 44.6964 178.474 44.2364 178.184 43.8264C177.904 43.4164 177.524 43.0964 177.044 42.8664C176.564 42.6364 176.034 42.5214 175.454 42.5214C175.114 42.5214 174.659 42.5914 174.089 42.7314C173.519 42.8614 173.104 43.0114 172.844 43.1814L173.369 44.8014ZM174.134 47.8164C174.134 47.5364 174.229 47.2964 174.419 47.0964C174.619 46.8964 174.879 46.7964 175.199 46.7964H176.669V47.9064C176.179 48.3864 175.644 48.6264 175.064 48.6264C174.794 48.6264 174.569 48.5464 174.389 48.3864C174.219 48.2264 174.134 48.0364 174.134 47.8164ZM182.833 45.5514C183.253 45.1814 183.703 44.8764 184.183 44.6364C184.673 44.3964 185.083 44.2764 185.413 44.2764L185.023 42.7164C184.663 42.7164 184.248 42.8414 183.778 43.0914C183.308 43.3414 182.898 43.6214 182.548 43.9314L181.903 42.7164H180.883V49.9914H182.833V45.5514ZM189.15 49.9914V47.6064L189.93 46.9164L191.76 49.9914H193.995L191.325 45.6714L193.365 43.8864L192.27 42.5064L189.15 45.3714V39.4014L187.215 39.5664V49.9914H189.15ZM197.724 42.7314V40.6614L195.789 41.0064V42.7314H194.814V44.2314H195.789V47.6664C195.789 48.4964 196.044 49.1414 196.554 49.6014C197.064 50.0614 197.774 50.2914 198.684 50.2914C198.924 50.2914 199.189 50.2464 199.479 50.1564C199.779 50.0664 200.004 49.9614 200.154 49.8414L199.584 48.4314C199.314 48.5614 199.049 48.6264 198.789 48.6264C198.449 48.6264 198.184 48.5064 197.994 48.2664C197.814 48.0264 197.724 47.7114 197.724 47.3214V44.2314H199.644L199.044 42.7314H197.724Z" fill="#F29F0F"/>
</svg>
