<?xml version="1.0"?>
<svg xmlns="http://www.w3.org/2000/svg" xmlns:xlink="http://www.w3.org/1999/xlink" xmlns:svgjs="http://svgjs.com/svgjs" version="1.1" width="512" height="512" x="0" y="0" viewBox="0 0 512 512" style="enable-background:new 0 0 512 512" xml:space="preserve" class=""><g><path xmlns="http://www.w3.org/2000/svg" d="m256 0c-141.159 0-256 114.841-256 256s114.841 256 256 256 256-114.841 256-256-114.841-256-256-256zm0 488c-127.925 0-232-104.075-232-232s104.075-232 232-232 232 104.075 232 232-104.075 232-232 232zm133.886-185.435c-.001 0-.001 0 0 0l-47.029-27.152c-7.201-4.157-15.604-5.259-23.659-3.101s-14.782 7.313-18.939 14.515c-2.412 4.179-6.637 9.436-13.064 10.75-5.862 1.199-11.037.036-15.821-3.554-17.674-13.264-40.13-35.72-53.396-53.396-3.59-4.784-4.753-9.96-3.554-15.82 1.314-6.429 6.571-10.653 10.75-13.065 14.891-8.599 20.011-27.708 11.414-42.599l-27.152-47.03c-7.777-13.468-23.929-19.117-38.402-13.434l-.563.221c-22.474 8.823-38.908 15.594-45.704 22.39-12.345 12.346-24.849 35.319-14.308 74.658 20.473 76.409 119.184 175.12 195.593 195.594 10.375 2.78 19.611 3.957 27.815 3.957 22.903 0 37.755-9.175 46.845-18.265 6.795-6.795 13.564-23.226 22.386-45.694l.225-.572c5.681-14.475.031-30.626-13.437-38.403zm-8.906 29.631-.225.573c-4.256 10.84-13.111 33.396-17.017 37.494-11.455 11.456-28.774 14.179-51.477 8.097-68.463-18.345-160.279-110.161-178.623-178.624-6.083-22.701-3.359-40.021 8.085-51.464 4.111-3.918 26.673-12.775 37.515-17.031l.564-.222c.899-.354 1.815-.522 2.711-.522 2.479 0 4.798 1.302 6.135 3.617l27.152 47.029c1.98 3.431.801 7.833-2.629 9.813-11.936 6.891-19.842 17.205-22.263 29.042-2.58 12.618.142 24.732 7.872 35.034 14.689 19.573 38.616 43.5 58.187 58.186 10.3 7.73 22.415 10.452 35.034 7.872 11.837-2.421 22.151-10.328 29.042-22.264.952-1.649 2.502-2.833 4.366-3.332 1.862-.498 3.797-.25 5.448.703l47.028 27.152c3.153 1.822 4.426 5.46 3.095 8.847z" fill="#fff" data-original="#000000" class=""/></g></svg>
