<svg width="12" height="12" viewBox="0 0 12 12" fill="none" xmlns="http://www.w3.org/2000/svg">
<g clip-path="url(#clip0_1875_7945)">
<path d="M5.75844 7.38022C4.72946 6.53411 4.0424 5.49006 3.68119 4.89599L3.41176 4.38803C3.50596 4.28695 4.22439 3.51765 4.53572 3.10025C4.92697 2.57612 4.35972 2.10275 4.35972 2.10275C4.35972 2.10275 2.7636 0.506406 2.39984 0.189753C2.03608 -0.127343 1.61735 0.0487725 1.61735 0.0487725C0.852819 0.542759 0.0602447 0.972241 0.0126969 3.03774C0.0109236 4.97157 1.47892 6.96614 3.0664 8.51028C4.65642 10.2541 6.83952 12.002 8.95013 12C11.0154 11.9529 11.4448 11.1604 11.9388 10.3959C11.9388 10.3959 12.115 9.9775 11.7982 9.61341C11.4812 9.24943 9.88468 7.65298 9.88468 7.65298C9.88468 7.65298 9.41164 7.08562 8.8874 7.4772C8.49671 7.76925 7.79513 8.41884 7.62611 8.57634C7.62644 8.57689 6.45282 7.95124 5.75844 7.38022Z" fill="white"/>
</g>
<defs>
<clipPath id="clip0_1875_7945">
<rect width="12" height="12" fill="white"/>
</clipPath>
</defs>
</svg>
