<svg width="60" height="60" viewBox="0 0 60 60" fill="none" xmlns="http://www.w3.org/2000/svg">
<g clip-path="url(#clip0_1801_7758)">
<path d="M17.9633 24.7142L17.9701 24.7272L17.9778 24.7397C19.7929 27.725 23.2631 33.0028 28.4737 37.2873C30.2392 38.7392 32.6002 40.2504 34.506 41.392C35.4617 41.9644 36.308 42.447 36.9155 42.7864C37.2194 42.9561 37.4637 43.0902 37.6323 43.1819C37.6705 43.2026 37.7047 43.2212 37.735 43.2375C37.7716 43.2573 37.8023 43.2739 37.8268 43.287L37.8783 43.3145L37.8932 43.3224L37.9003 43.326L37.9089 43.3304L37.9262 43.3385C37.9391 43.3439 38.1631 43.2879 38.3412 43.1089L38.4704 43.2475C39.3224 42.4536 42.8084 39.2269 44.7354 37.7865C45.8519 36.9526 46.8847 37.1322 47.6867 37.5375C48.0956 37.7442 48.4371 38.0086 48.6783 38.2246C48.798 38.3319 48.8908 38.4253 48.9525 38.4905C48.9834 38.5231 49.0063 38.5485 49.0208 38.5649L49.0362 38.5825L49.0384 38.5851L49.0387 38.5854L49.0389 38.5856L49.0389 38.5857L49.0391 38.5859L49.0529 38.6025L49.0689 38.6185L49.4224 38.2649C49.0689 38.6185 49.0689 38.6185 49.069 38.6186L49.0693 38.6188L49.0703 38.6199L49.0747 38.6242L49.0918 38.6413L49.1588 38.7084L49.4146 38.9646C49.6359 39.1863 49.9538 39.5051 50.3401 39.8933C51.113 40.6698 52.1598 41.7239 53.2561 42.8347C55.4557 45.0636 57.8333 47.5 58.613 48.3952C59.3034 49.1889 59.4552 50.0341 59.4357 50.6911C59.4259 51.0218 59.3723 51.3028 59.3216 51.4994C59.2964 51.5974 59.2722 51.6733 59.2551 51.7227C59.2513 51.7337 59.2478 51.7434 59.2448 51.7516C59.1633 51.878 59.0823 52.004 59.0017 52.1295C57.858 53.9095 56.7724 55.5989 54.8804 56.9255C52.8516 58.348 49.842 59.383 44.7438 59.5C39.6034 59.5034 34.3341 57.3746 29.3365 54.1298C24.3418 50.8869 19.6575 46.5544 15.7005 42.2145L15.6904 42.2035L15.6796 42.193C11.7303 38.3515 7.94184 33.9611 5.14461 29.3417C2.3466 24.7211 0.559581 19.9033 0.562504 15.1947C0.680576 10.096 1.71626 7.08586 3.13917 5.05678C4.4662 3.16444 6.1559 2.07872 7.93589 0.934997C8.06136 0.854379 8.18727 0.773472 8.31354 0.691975C8.32181 0.688977 8.33144 0.685553 8.3424 0.68177C8.39185 0.664706 8.46783 0.640499 8.56586 0.615291C8.76266 0.564684 9.04377 0.511221 9.37458 0.501546C10.0318 0.482323 10.8769 0.634603 11.6697 1.32567L11.6699 1.32589C12.5644 2.10456 15.0002 4.48159 17.2288 6.68086C18.3393 7.77687 19.3932 8.82352 20.1695 9.59623C20.5576 9.98256 20.8763 10.3004 21.0979 10.5216L21.3541 10.7774L21.4212 10.8444L21.4383 10.8615L21.4426 10.8658L21.4437 10.8669L21.444 10.8672C21.444 10.8672 21.444 10.8673 21.7976 10.5137L21.444 10.8673L21.46 10.8832L21.4764 10.8969L21.4766 10.8971L21.4767 10.8972L21.477 10.8974L21.4773 10.8976L21.4799 10.8999L21.4975 10.9153C21.5139 10.9298 21.5393 10.9527 21.5718 10.9836C21.6371 11.0454 21.7304 11.1382 21.8377 11.258C22.0538 11.4994 22.3182 11.8411 22.525 12.2503C22.9305 13.0528 23.1102 14.086 22.277 15.2022L22.2768 15.2023C20.7624 17.2327 17.2726 20.9764 16.7143 21.5753L16.692 21.5993L16.4492 21.8598L16.6161 22.1745L17.9633 24.7142Z" stroke="#151116"/>
</g>
<defs>
<clipPath id="clip0_1801_7758">
<rect width="60" height="60" fill="white"/>
</clipPath>
</defs>
</svg>
