<?xml version="1.0"?>
<svg xmlns="http://www.w3.org/2000/svg" xmlns:xlink="http://www.w3.org/1999/xlink" xmlns:svgjs="http://svgjs.com/svgjs" version="1.1" width="40" height="40" x="0" y="0" viewBox="0 0 64 64" style="enable-background:new 0 0 512 512" xml:space="preserve" class=""><g><g xmlns="http://www.w3.org/2000/svg" id="Burger_Menu"><path d="m53 21h-42c-1.7 0-3-1.3-3-3s1.3-3 3-3h42c1.7 0 3 1.3 3 3s-1.3 3-3 3z" fill="#4c4c4c" data-original="#000000" class=""/><path d="m53 35h-42c-1.7 0-3-1.3-3-3s1.3-3 3-3h42c1.7 0 3 1.3 3 3s-1.3 3-3 3z" fill="#4c4c4c" data-original="#000000" class=""/><path d="m53 49h-42c-1.7 0-3-1.3-3-3s1.3-3 3-3h42c1.7 0 3 1.3 3 3s-1.3 3-3 3z" fill="#4c4c4c" data-original="#000000" class=""/></g></g></svg>
