<svg width="16" height="16" viewBox="0 0 16 16" fill="none" xmlns="http://www.w3.org/2000/svg">
<path d="M8 0C3.58177 0 0 3.58177 0 8C0 12.4182 3.58177 16 8 16C12.4182 16 16 12.4182 16 8C15.9951 3.58385 12.4161 0.00494793 8 0ZM8 15.4667C3.8763 15.4667 0.533333 12.1237 0.533333 8C0.533333 3.8763 3.8763 0.533333 8 0.533333C12.1237 0.533333 15.4667 3.8763 15.4667 8C15.462 12.1217 12.1217 15.462 8 15.4667Z" fill="#151116"/>
<path d="M10.9102 9.34975L10.6667 6.92761C10.6667 5.80756 9.73333 4.92071 8.70586 4.62943C8.7668 4.51615 8.79909 4.38959 8.8 4.26094C8.8 3.81914 8.4418 3.46094 8 3.46094C7.5582 3.46094 7.2 3.81914 7.2 4.26094C7.20091 4.38959 7.2332 4.51615 7.29414 4.62943C6.26667 4.91966 5.33333 5.80391 5.33464 6.90092L5.08984 9.34975C4.45859 9.46811 4.00091 10.0188 4 10.661C4 10.8082 4.1194 10.9276 4.26667 10.9276H6.8C6.83958 11.5522 7.37513 12.0281 8 11.9943C8.62487 12.0281 9.16042 11.5522 9.2 10.9276H11.7333C11.8806 10.9276 12 10.8082 12 10.661C11.9991 10.0188 11.5414 9.46811 10.9102 9.34975ZM7.73333 4.26094C7.73333 4.11367 7.85273 3.99427 8 3.99427C8.14727 3.99427 8.26667 4.11367 8.26667 4.26094C8.26667 4.4082 8.14727 4.52761 8 4.52761C7.85273 4.52761 7.73333 4.4082 7.73333 4.26094ZM8 11.461C7.67018 11.4923 7.375 11.2563 7.33333 10.9276H8.66667C8.625 11.2563 8.32982 11.4923 8 11.461ZM4.57891 10.3943C4.69232 10.0749 4.9944 9.86134 5.33333 9.86095C5.47083 9.8616 5.5862 9.75769 5.6 9.62098L5.86667 6.92761C5.86667 5.87644 7.01328 5.06094 8 5.06094C8.98672 5.06094 10.1333 5.87644 10.1346 6.9543L10.4013 9.62098C10.415 9.75717 10.5297 9.86095 10.6667 9.86095C11.0056 9.86134 11.3077 10.0749 11.4211 10.3943H4.57891Z" fill="#151116"/>
</svg>
