<svg width="202" height="55" viewBox="0 0 202 55" fill="none" xmlns="http://www.w3.org/2000/svg">
<g clip-path="url(#clip0_2358_1382)">
<path d="M12.373 51L23.373 39H1.37305L12.373 51Z" fill="#FAB680"/>
<path d="M12.373 51L23.373 39H12.3731L12.373 51Z" fill="#D09668"/>
<path d="M12.373 51L17.873 45H6.87305L12.373 51Z" fill="#2D3741"/>
<path d="M23 36H2V39H23V36Z" fill="#FAB680"/>
<path d="M23 36H13V39H23V36Z" fill="#D09668"/>
<path d="M22.373 18H18.373C17.2685 18 16.373 18.8954 16.373 20V38C16.373 39.1046 17.2685 40 18.373 40H22.373C23.4776 40 24.373 39.1046 24.373 38V20C24.373 18.8954 23.4776 18 22.373 18Z" fill="#FDBD13"/>
<path d="M14.373 23H10.373C9.26848 23 8.37305 23.8954 8.37305 25V38C8.37305 39.1046 9.26848 40 10.373 40H14.373C15.4776 40 16.373 39.1046 16.373 38V25C16.373 23.8954 15.4776 23 14.373 23Z" fill="#EC5334"/>
<path d="M0.373047 30C0.373047 28.8954 1.26848 28 2.37305 28H6.37305C7.47762 28 8.37305 28.8954 8.37305 30V38C8.37305 39.1046 7.47762 40 6.37305 40H2.37305C1.26848 40 0.373047 39.1046 0.373047 38V30Z" fill="#2D3645"/>
<path fill-rule="evenodd" clip-rule="evenodd" d="M0 17H24.746C23.0589 12.3578 18.1571 9 12.373 9C6.58892 9 1.68711 12.3578 0 17Z" fill="#2D3743"/>
<path d="M2.35438e-06 17.0002L-0.281955 16.8977L-0.428223 17.3002H2.35438e-06V17.0002ZM24.746 17.0002V17.3002H25.1742L25.028 16.8977L24.746 17.0002ZM2.35438e-06 17.3002H24.746V16.7002H2.35438e-06V17.3002ZM12.373 9.3002C18.0456 9.3002 22.8248 12.5923 24.464 17.1027L25.028 16.8977C23.2929 12.1236 18.2686 8.7002 12.373 8.7002V9.3002ZM0.281959 17.1027C1.92116 12.5923 6.70039 9.3002 12.373 9.3002V8.7002C6.47745 8.7002 1.45307 12.1236 -0.281955 16.8977L0.281959 17.1027Z" fill="white"/>
<path d="M44.2246 19.5273H50.5L48.3945 29.248C46.4258 29.9316 44.5163 30.2734 42.666 30.2734C40.2598 30.2734 38.3867 29.6172 37.0469 28.3047C35.7161 26.9831 35.0508 25.1419 35.0508 22.7812C35.0508 20.3294 35.5111 18.1009 36.4316 16.0957C37.3613 14.0814 38.6465 12.5182 40.2871 11.4062C41.9277 10.2852 43.7461 9.72461 45.7422 9.72461C46.8086 9.72461 47.8066 9.81576 48.7363 9.99805C49.6751 10.1803 50.6185 10.472 51.5664 10.873L50.6641 12.9512C49.9622 12.6413 49.2057 12.3724 48.3945 12.1445C47.5924 11.9167 46.7083 11.8027 45.7422 11.8027C44.2018 11.8027 42.7982 12.2676 41.5312 13.1973C40.2734 14.1178 39.2936 15.4076 38.5918 17.0664C37.89 18.7253 37.5391 20.5801 37.5391 22.6309C37.5391 24.3626 38.0039 25.7253 38.9336 26.7188C39.8724 27.7122 41.1803 28.209 42.8574 28.209C44.2611 28.209 45.446 28.0312 46.4121 27.6758L47.7246 21.6055H43.7734L44.2246 19.5273ZM61.916 30L63.9395 20.5391C64.1035 19.6823 64.1855 19.0671 64.1855 18.6934C64.1855 17.3444 63.5156 16.6699 62.1758 16.6699C61.3646 16.6699 60.5716 16.9388 59.7969 17.4766C59.0312 18.0143 58.3522 18.7982 57.7598 19.8281C57.1764 20.849 56.7344 22.084 56.4336 23.5332L55.0527 30H52.7559L57.2676 8.72656H59.5645C59.4004 9.47396 59.2409 10.1986 59.0859 10.9004C58.9401 11.6022 58.7852 12.3177 58.6211 13.0469C58.4661 13.7669 58.293 14.5234 58.1016 15.3164C57.9193 16.1094 57.7051 16.9707 57.459 17.9004H57.6094C58.4661 16.7793 59.3092 15.9772 60.1387 15.4941C60.9772 15.0111 61.8522 14.7695 62.7637 14.7695C63.9577 14.7695 64.8783 15.0977 65.5254 15.7539C66.1816 16.4102 66.5098 17.3398 66.5098 18.543C66.5098 19.1081 66.4049 19.8646 66.1953 20.8125C65.8398 22.5716 65.179 25.6341 64.2129 30H61.916ZM76.9004 14.8242C78.6322 14.8242 79.9993 15.3392 81.002 16.3691C82.0046 17.39 82.5059 18.7982 82.5059 20.5938C82.5059 22.3073 82.1777 23.9251 81.5215 25.4473C80.8652 26.9694 79.9766 28.1452 78.8555 28.9746C77.7344 29.804 76.4674 30.2188 75.0547 30.2188C73.3047 30.2188 71.9329 29.7038 70.9395 28.6738C69.946 27.6439 69.4492 26.2357 69.4492 24.4492C69.4492 22.7174 69.7819 21.0905 70.4473 19.5684C71.1126 18.0371 72.0104 16.8659 73.1406 16.0547C74.2708 15.2344 75.5241 14.8242 76.9004 14.8242ZM80.127 20.2793C80.127 19.2311 79.8398 18.3835 79.2656 17.7363C78.7005 17.0801 77.9303 16.752 76.9551 16.752C75.9616 16.752 75.0684 17.0892 74.2754 17.7637C73.4915 18.4382 72.8809 19.377 72.4434 20.5801C72.015 21.7741 71.8008 23.1048 71.8008 24.5723C71.8008 25.7663 72.0879 26.6914 72.6621 27.3477C73.2454 27.9948 74.0794 28.3184 75.1641 28.3184C76.112 28.3184 76.9642 27.9857 77.7207 27.3203C78.4772 26.6549 79.0651 25.7116 79.4844 24.4902C79.9128 23.2598 80.127 21.8561 80.127 20.2793ZM93.8809 25.748C93.8809 27.1699 93.375 28.2819 92.3633 29.084C91.3607 29.877 89.9434 30.2734 88.1113 30.2734C86.571 30.2734 85.181 29.959 83.9414 29.3301V27.1699C84.5794 27.5527 85.2676 27.849 86.0059 28.0586C86.7441 28.2682 87.4277 28.373 88.0566 28.373C89.2051 28.373 90.071 28.1452 90.6543 27.6895C91.2376 27.2337 91.5293 26.6504 91.5293 25.9395C91.5293 25.4199 91.3698 24.9824 91.0508 24.627C90.7318 24.2715 90.0436 23.7839 88.9863 23.1641C87.8014 22.4987 86.9629 21.847 86.4707 21.209C85.9785 20.571 85.7324 19.8145 85.7324 18.9395C85.7324 17.6816 86.1927 16.6699 87.1133 15.9043C88.0339 15.1296 89.2461 14.7422 90.75 14.7422C92.3086 14.7422 93.8125 15.0794 95.2617 15.7539L94.5234 17.627L93.7578 17.2852C92.8372 16.8932 91.8346 16.6973 90.75 16.6973C89.9023 16.6973 89.237 16.8978 88.7539 17.2988C88.2708 17.6908 88.0293 18.2012 88.0293 18.8301C88.0293 19.3405 88.1888 19.778 88.5078 20.1426C88.8359 20.5072 89.5059 20.9766 90.5176 21.5508C91.4928 22.0977 92.1901 22.5671 92.6094 22.959C93.0378 23.3509 93.3568 23.7747 93.5664 24.2305C93.776 24.6771 93.8809 25.1829 93.8809 25.748ZM101.236 28.4004C101.738 28.4004 102.394 28.2819 103.205 28.0449V29.8086C102.895 29.9362 102.512 30.0456 102.057 30.1367C101.601 30.2279 101.236 30.2734 100.963 30.2734C99.8236 30.2734 98.9486 30.0046 98.3379 29.4668C97.7363 28.9199 97.4355 28.1087 97.4355 27.0332C97.4355 26.4316 97.5176 25.748 97.6816 24.9824L99.418 16.752H97.0664L97.2578 15.7539L99.7871 14.6875L101.496 11.5703H102.836L102.084 15.0156H105.83L105.475 16.752H101.742L99.9785 25.0098C99.8145 25.8027 99.7324 26.4043 99.7324 26.8145C99.7324 27.3249 99.8646 27.7168 100.129 27.9902C100.393 28.2637 100.762 28.4004 101.236 28.4004Z" fill="#000333"/>
<path d="M133.984 30H129.158L126.451 19.5C126.351 19.1263 126.178 18.3561 125.932 17.1895C125.695 16.0137 125.558 15.2253 125.521 14.8242C125.467 15.3164 125.33 16.1094 125.111 17.2031C124.893 18.2878 124.724 19.0625 124.605 19.5273L121.912 30H117.1L112 10.0117H116.17L118.727 20.9219C119.173 22.9362 119.497 24.6816 119.697 26.1582C119.752 25.6387 119.875 24.8366 120.066 23.752C120.267 22.6582 120.454 21.8105 120.627 21.209L123.539 10.0117H127.545L130.457 21.209C130.585 21.7103 130.744 22.4759 130.936 23.5059C131.127 24.5358 131.273 25.4199 131.373 26.1582C131.464 25.4473 131.61 24.5632 131.811 23.5059C132.011 22.4395 132.193 21.5781 132.357 20.9219L134.9 10.0117H139.07L133.984 30ZM149.789 14.4277C150.354 14.4277 150.824 14.4688 151.197 14.5508L150.883 18.4609C150.546 18.3698 150.135 18.3242 149.652 18.3242C148.322 18.3242 147.283 18.666 146.535 19.3496C145.797 20.0332 145.428 20.9902 145.428 22.2207V30H141.258V14.7148H144.416L145.031 17.2852H145.236C145.71 16.4284 146.348 15.7402 147.15 15.2207C147.962 14.6921 148.841 14.4277 149.789 14.4277ZM153.795 10.7637C153.795 9.4056 154.551 8.72656 156.064 8.72656C157.577 8.72656 158.334 9.4056 158.334 10.7637C158.334 11.4108 158.143 11.9167 157.76 12.2812C157.386 12.6367 156.821 12.8145 156.064 12.8145C154.551 12.8145 153.795 12.1309 153.795 10.7637ZM158.143 30H153.973V14.7148H158.143V30ZM168.971 26.9512C169.7 26.9512 170.575 26.7917 171.596 26.4727V29.5762C170.557 30.041 169.281 30.2734 167.768 30.2734C166.1 30.2734 164.883 29.8542 164.117 29.0156C163.361 28.168 162.982 26.901 162.982 25.2148V17.8457H160.986V16.082L163.283 14.6875L164.486 11.4609H167.152V14.7148H171.432V17.8457H167.152V25.2148C167.152 25.8073 167.316 26.2448 167.645 26.5273C167.982 26.8099 168.424 26.9512 168.971 26.9512ZM181.029 17.3945C180.145 17.3945 179.452 17.6771 178.951 18.2422C178.45 18.7982 178.163 19.5911 178.09 20.6211H183.941C183.923 19.5911 183.654 18.7982 183.135 18.2422C182.615 17.6771 181.913 17.3945 181.029 17.3945ZM181.617 30.2734C179.156 30.2734 177.233 29.5944 175.848 28.2363C174.462 26.8783 173.77 24.9551 173.77 22.4668C173.77 19.9056 174.408 17.9277 175.684 16.5332C176.969 15.1296 178.742 14.4277 181.002 14.4277C183.162 14.4277 184.844 15.043 186.047 16.2734C187.25 17.5039 187.852 19.2038 187.852 21.373V23.3965H177.994C178.04 24.5814 178.391 25.5065 179.047 26.1719C179.703 26.8372 180.624 27.1699 181.809 27.1699C182.729 27.1699 183.6 27.0742 184.42 26.8828C185.24 26.6914 186.097 26.3861 186.99 25.9668V29.1934C186.261 29.5579 185.482 29.8268 184.652 30C183.823 30.1823 182.811 30.2734 181.617 30.2734ZM199.773 14.4277C200.339 14.4277 200.808 14.4688 201.182 14.5508L200.867 18.4609C200.53 18.3698 200.12 18.3242 199.637 18.3242C198.306 18.3242 197.267 18.666 196.52 19.3496C195.781 20.0332 195.412 20.9902 195.412 22.2207V30H191.242V14.7148H194.4L195.016 17.2852H195.221C195.695 16.4284 196.333 15.7402 197.135 15.2207C197.946 14.6921 198.826 14.4277 199.773 14.4277Z" fill="#E95334"/>
<path d="M40.5199 38.5602C39.5399 38.5802 38.6699 38.8202 37.9099 39.2802C37.1499 39.7402 36.5599 40.3752 36.1399 41.1852C35.7299 41.9952 35.5249 42.9152 35.5249 43.9452C35.5249 44.9352 35.7199 45.8302 36.1099 46.6302C36.5099 47.4202 37.0849 48.0502 37.8349 48.5202C38.5949 48.9802 39.4899 49.2102 40.5199 49.2102C41.5099 49.1902 42.3799 48.9552 43.1299 48.5052C43.8899 48.0452 44.4799 47.4152 44.8999 46.6152C45.3199 45.8052 45.5299 44.8802 45.5299 43.8402C45.5299 42.8502 45.3299 41.9552 44.9299 41.1552C44.5399 40.3552 43.9649 39.7252 43.2049 39.2652C42.4449 38.7952 41.5499 38.5602 40.5199 38.5602ZM37.5499 43.9302C37.5499 43.1902 37.6849 42.5402 37.9549 41.9802C38.2349 41.4102 38.5999 40.9752 39.0499 40.6752C39.5099 40.3652 40.0099 40.2102 40.5499 40.2102C41.1399 40.2102 41.6599 40.3652 42.1099 40.6752C42.5599 40.9852 42.9049 41.4152 43.1449 41.9652C43.3849 42.5152 43.5049 43.1402 43.5049 43.8402C43.5049 44.6502 43.3699 45.3402 43.0999 45.9102C42.8399 46.4702 42.4799 46.8902 42.0199 47.1702C41.5699 47.4402 41.0649 47.5752 40.5049 47.5752C39.9049 47.5752 39.3799 47.4252 38.9299 47.1252C38.4899 46.8152 38.1499 46.3852 37.9099 45.8352C37.6699 45.2752 37.5499 44.6402 37.5499 43.9302ZM48.0395 43.2402V49.0002H49.9895V43.2402H51.9845L51.3695 41.7402H49.9895V41.4552C49.9895 41.0552 50.0695 40.7402 50.2295 40.5102C50.3895 40.2702 50.6345 40.1502 50.9645 40.1502C51.1745 40.1502 51.4445 40.2152 51.7745 40.3452L52.3295 38.9352C52.1695 38.8052 51.9445 38.6952 51.6545 38.6052C51.3645 38.5152 51.1045 38.4702 50.8745 38.4702C49.9845 38.4702 49.2895 38.7102 48.7895 39.1902C48.2895 39.6702 48.0395 40.3352 48.0395 41.1852V41.7402H46.9145V43.2402H48.0395ZM54.3102 43.2402V49.0002H56.2602V43.2402H58.2552L57.6402 41.7402H56.2602V41.4552C56.2602 41.0552 56.3402 40.7402 56.5002 40.5102C56.6602 40.2702 56.9052 40.1502 57.2352 40.1502C57.4452 40.1502 57.7152 40.2152 58.0452 40.3452L58.6002 38.9352C58.4402 38.8052 58.2152 38.6952 57.9252 38.6052C57.6352 38.5152 57.3752 38.4702 57.1452 38.4702C56.2552 38.4702 55.5602 38.7102 55.0602 39.1902C54.5602 39.6702 54.3102 40.3352 54.3102 41.1852V41.7402H53.1852V43.2402H54.3102ZM61.0609 40.6902C61.3709 40.6902 61.6309 40.5852 61.8409 40.3752C62.0609 40.1652 62.1709 39.9052 62.1709 39.5952C62.1709 39.2852 62.0609 39.0252 61.8409 38.8152C61.6309 38.6052 61.3709 38.5002 61.0609 38.5002C60.7609 38.5002 60.5059 38.6052 60.2959 38.8152C60.0859 39.0252 59.9809 39.2852 59.9809 39.5952C59.9809 39.9052 60.0859 40.1652 60.2959 40.3752C60.5059 40.5852 60.7609 40.6902 61.0609 40.6902ZM62.0509 49.0002V41.7252H60.1009V49.0002H62.0509ZM69.7494 41.7252H63.9294L64.3044 43.3302H67.3644L63.7494 47.9652L64.0044 49.0002H70.0044L69.8544 47.4252H66.1944L69.8544 42.8352L69.7494 41.7252ZM72.6648 40.6902C72.9748 40.6902 73.2348 40.5852 73.4448 40.3752C73.6648 40.1652 73.7748 39.9052 73.7748 39.5952C73.7748 39.2852 73.6648 39.0252 73.4448 38.8152C73.2348 38.6052 72.9748 38.5002 72.6648 38.5002C72.3648 38.5002 72.1098 38.6052 71.8998 38.8152C71.6898 39.0252 71.5848 39.2852 71.5848 39.5952C71.5848 39.9052 71.6898 40.1652 71.8998 40.3752C72.1098 40.5852 72.3648 40.6902 72.6648 40.6902ZM73.6548 49.0002V41.7252H71.7048V49.0002H73.6548ZM82.5083 45.3402C82.5083 44.6302 82.3883 43.9902 82.1483 43.4202C81.9083 42.8402 81.5383 42.3802 81.0383 42.0402C80.5383 41.7002 79.9233 41.5302 79.1933 41.5302C78.4433 41.5302 77.7933 41.6902 77.2433 42.0102C76.6933 42.3202 76.2683 42.7652 75.9683 43.3452C75.6783 43.9252 75.5333 44.6002 75.5333 45.3702C75.5333 46.5602 75.8883 47.4952 76.5983 48.1752C77.3183 48.8452 78.3683 49.1802 79.7483 49.1802C80.3383 49.1802 80.8483 49.1052 81.2783 48.9552C81.7083 48.7952 82.1083 48.5702 82.4783 48.2802L81.9083 46.8702C81.5383 47.0802 81.1933 47.2402 80.8733 47.3502C80.5533 47.4602 80.1933 47.5152 79.7933 47.5152C79.1033 47.5152 78.5883 47.3802 78.2483 47.1102C77.9183 46.8402 77.7033 46.4502 77.6033 45.9402H82.5083V45.3402ZM77.6183 44.6352C77.6983 44.1652 77.8733 43.8102 78.1433 43.5702C78.4133 43.3202 78.7483 43.1952 79.1483 43.1952C79.5483 43.1952 79.8733 43.3152 80.1233 43.5552C80.3833 43.7952 80.5633 44.1552 80.6633 44.6352H77.6183ZM86.463 49.0002V38.4102L84.528 38.5752V49.0002H86.463ZM91.0199 49.0002V38.4102L89.0849 38.5752V49.0002H91.0199ZM98.2408 43.8102C98.5208 43.6802 98.8608 43.5702 99.2608 43.4802C99.6608 43.3802 100.026 43.3302 100.356 43.3302C100.716 43.3302 100.996 43.4352 101.196 43.6452C101.406 43.8452 101.516 44.1302 101.526 44.5002H100.101C99.2608 44.5002 98.5908 44.7052 98.0908 45.1152C97.5908 45.5152 97.3408 46.0852 97.3408 46.8252C97.3408 47.5452 97.5608 48.1202 98.0008 48.5502C98.4408 48.9702 99.0958 49.1802 99.9658 49.1802C100.636 49.1802 101.276 48.8602 101.886 48.2202L102.216 49.0002H103.491V44.2152C103.491 43.7052 103.346 43.2452 103.056 42.8352C102.776 42.4252 102.396 42.1052 101.916 41.8752C101.436 41.6452 100.906 41.5302 100.326 41.5302C99.9858 41.5302 99.5308 41.6002 98.9608 41.7402C98.3908 41.8702 97.9758 42.0202 97.7158 42.1902L98.2408 43.8102ZM99.0058 46.8252C99.0058 46.5452 99.1008 46.3052 99.2908 46.1052C99.4908 45.9052 99.7508 45.8052 100.071 45.8052H101.541V46.9152C101.051 47.3952 100.516 47.6352 99.9358 47.6352C99.6658 47.6352 99.4408 47.5552 99.2608 47.3952C99.0908 47.2352 99.0058 47.0452 99.0058 46.8252ZM110.645 46.7652C110.285 47.0252 109.955 47.2352 109.655 47.3952C109.355 47.5452 109.035 47.6202 108.695 47.6202C108.365 47.6202 108.105 47.4952 107.915 47.2452C107.735 46.9952 107.645 46.6452 107.645 46.1952V41.7252H105.695V46.2852C105.695 47.2152 105.88 47.9402 106.25 48.4602C106.62 48.9802 107.265 49.2402 108.185 49.2402C108.585 49.2402 109.04 49.1502 109.55 48.9702C110.06 48.7902 110.54 48.5402 110.99 48.2202L111.32 49.0002H112.595V41.7252H110.645V46.7652ZM115.406 43.2402V49.0002H117.356V43.2402H119.351L118.736 41.7402H117.356V41.4552C117.356 41.0552 117.436 40.7402 117.596 40.5102C117.756 40.2702 118.001 40.1502 118.331 40.1502C118.541 40.1502 118.811 40.2152 119.141 40.3452L119.696 38.9352C119.536 38.8052 119.311 38.6952 119.021 38.6052C118.731 38.5152 118.471 38.4702 118.241 38.4702C117.351 38.4702 116.656 38.7102 116.156 39.1902C115.656 39.6702 115.406 40.3352 115.406 41.1852V41.7402H114.281V43.2402H115.406ZM132.021 38.4102V49.0002H131.001L130.551 48.3402C129.911 48.9002 129.211 49.1802 128.451 49.1802C127.321 49.1802 126.426 48.8402 125.766 48.1602C125.116 47.4702 124.791 46.5402 124.791 45.3702C124.791 44.6102 124.936 43.9402 125.226 43.3602C125.526 42.7802 125.956 42.3302 126.516 42.0102C127.076 41.6902 127.741 41.5302 128.511 41.5302C128.751 41.5302 129.006 41.5752 129.276 41.6652C129.546 41.7452 129.806 41.8602 130.056 42.0102V38.5752L132.021 38.4102ZM126.801 45.3702C126.801 46.0102 126.951 46.5302 127.251 46.9302C127.561 47.3202 127.986 47.5152 128.526 47.5152C128.786 47.5152 129.036 47.4652 129.276 47.3652C129.526 47.2652 129.786 47.1152 130.056 46.9152V43.8102C129.796 43.5902 129.546 43.4352 129.306 43.3452C129.066 43.2452 128.806 43.1952 128.526 43.1952C127.996 43.1952 127.576 43.4002 127.266 43.8102C126.956 44.2102 126.801 44.7302 126.801 45.3702ZM141.025 45.3402C141.025 44.6302 140.905 43.9902 140.665 43.4202C140.425 42.8402 140.055 42.3802 139.555 42.0402C139.055 41.7002 138.44 41.5302 137.71 41.5302C136.96 41.5302 136.31 41.6902 135.76 42.0102C135.21 42.3202 134.785 42.7652 134.485 43.3452C134.195 43.9252 134.05 44.6002 134.05 45.3702C134.05 46.5602 134.405 47.4952 135.115 48.1752C135.835 48.8452 136.885 49.1802 138.265 49.1802C138.855 49.1802 139.365 49.1052 139.795 48.9552C140.225 48.7952 140.625 48.5702 140.995 48.2802L140.425 46.8702C140.055 47.0802 139.71 47.2402 139.39 47.3502C139.07 47.4602 138.71 47.5152 138.31 47.5152C137.62 47.5152 137.105 47.3802 136.765 47.1102C136.435 46.8402 136.22 46.4502 136.12 45.9402H141.025V45.3402ZM136.135 44.6352C136.215 44.1652 136.39 43.8102 136.66 43.5702C136.93 43.3202 137.265 43.1952 137.665 43.1952C138.065 43.1952 138.39 43.3152 138.64 43.5552C138.9 43.7952 139.08 44.1552 139.18 44.6352H136.135ZM151.79 41.4852C152.62 41.4852 153.215 41.7102 153.575 42.1602C153.945 42.6002 154.13 43.2602 154.13 44.1402V49.0002H152.18V44.5302C152.18 44.0602 152.105 43.7052 151.955 43.4652C151.815 43.2252 151.59 43.1052 151.28 43.1052C150.98 43.1052 150.705 43.1752 150.455 43.3152C150.205 43.4552 149.885 43.6652 149.495 43.9452V44.1402V49.0002H147.545V44.5302C147.545 44.0602 147.47 43.7052 147.32 43.4652C147.18 43.2252 146.955 43.1052 146.645 43.1052C146.345 43.1052 146.07 43.1752 145.82 43.3152C145.57 43.4552 145.245 43.6702 144.845 43.9602V49.0002H142.895V41.7252H144.17L144.5 42.5052C144.95 42.1852 145.415 41.9352 145.895 41.7552C146.375 41.5752 146.795 41.4852 147.155 41.4852C148.145 41.4852 148.815 41.8152 149.165 42.4752C149.615 42.1652 150.075 41.9252 150.545 41.7552C151.015 41.5752 151.43 41.4852 151.79 41.4852ZM166.026 45.8052L167.931 43.1202V49.0002H169.896V38.8002H168.711L165.576 43.5102L162.126 38.8002H160.896V49.0002H162.831V42.7752L165.276 45.9102L166.026 45.8052ZM173.369 43.8102C173.649 43.6802 173.989 43.5702 174.389 43.4802C174.789 43.3802 175.154 43.3302 175.484 43.3302C175.844 43.3302 176.124 43.4352 176.324 43.6452C176.534 43.8452 176.644 44.1302 176.654 44.5002H175.229C174.389 44.5002 173.719 44.7052 173.219 45.1152C172.719 45.5152 172.469 46.0852 172.469 46.8252C172.469 47.5452 172.689 48.1202 173.129 48.5502C173.569 48.9702 174.224 49.1802 175.094 49.1802C175.764 49.1802 176.404 48.8602 177.014 48.2202L177.344 49.0002H178.619V44.2152C178.619 43.7052 178.474 43.2452 178.184 42.8352C177.904 42.4252 177.524 42.1052 177.044 41.8752C176.564 41.6452 176.034 41.5302 175.454 41.5302C175.114 41.5302 174.659 41.6002 174.089 41.7402C173.519 41.8702 173.104 42.0202 172.844 42.1902L173.369 43.8102ZM174.134 46.8252C174.134 46.5452 174.229 46.3052 174.419 46.1052C174.619 45.9052 174.879 45.8052 175.199 45.8052H176.669V46.9152C176.179 47.3952 175.644 47.6352 175.064 47.6352C174.794 47.6352 174.569 47.5552 174.389 47.3952C174.219 47.2352 174.134 47.0452 174.134 46.8252ZM182.833 44.5602C183.253 44.1902 183.703 43.8852 184.183 43.6452C184.673 43.4052 185.083 43.2852 185.413 43.2852L185.023 41.7252C184.663 41.7252 184.248 41.8502 183.778 42.1002C183.308 42.3502 182.898 42.6302 182.548 42.9402L181.903 41.7252H180.883V49.0002H182.833V44.5602ZM189.15 49.0002V46.6152L189.93 45.9252L191.76 49.0002H193.995L191.325 44.6802L193.365 42.8952L192.27 41.5152L189.15 44.3802V38.4102L187.215 38.5752V49.0002H189.15ZM197.724 41.7402V39.6702L195.789 40.0152V41.7402H194.814V43.2402H195.789V46.6752C195.789 47.5052 196.044 48.1502 196.554 48.6102C197.064 49.0702 197.774 49.3002 198.684 49.3002C198.924 49.3002 199.189 49.2552 199.479 49.1652C199.779 49.0752 200.004 48.9702 200.154 48.8502L199.584 47.4402C199.314 47.5702 199.049 47.6352 198.789 47.6352C198.449 47.6352 198.184 47.5152 197.994 47.2752C197.814 47.0352 197.724 46.7202 197.724 46.3302V43.2402H199.644L199.044 41.7402H197.724Z" fill="#F29F0F"/>
</g>
<defs>
<clipPath id="clip0_2358_1382">
<rect width="202" height="55" fill="white"/>
</clipPath>
</defs>
</svg>
